<svg version="1.1" xmlns="http://www.w3.org/2000/svg" xmlns:xlink="http://www.w3.org/1999/xlink" width="27.76044" height="29.13357" viewBox="0,0,27.76044,29.13357"><g transform="translate(-249.3076,-169.81221)"><g data-paper-data="{&quot;isPaintingLayer&quot;:true}" fill-rule="evenodd" stroke-width="0.25" stroke-miterlimit="10" stroke-dasharray="" stroke-dashoffset="0" style="mix-blend-mode: normal"><g><path d="M258.73526,190.43655c0.23418,0.11709 0.73183,0.38055 0.02927,1.37583c-0.70255,0.99528 -2.72238,1.20019 -2.95657,1.20019c-0.90746,0.02927 -2.01983,0.02927 -3.2493,-0.38055c-3.5713,-1.17092 -3.60058,-5.00568 -2.45893,-5.6204c1.11237,-0.61473 1.61001,1.75637 3.22002,3.19075c0.70255,0.644 1.55146,0.87819 2.25402,1.02456c0.99528,0.17564 2.89802,-0.93674 3.16147,-0.79037z" fill="#ffab19" stroke="#001026" stroke-linecap="round" stroke-linejoin="round"/><path d="M251.47557,188.06544c0.46836,0.79037 1.37583,1.90274 1.37583,1.90274c0,0 -1.0831,-0.26345 -1.69783,0.23418c-0.49764,0.38055 -0.38055,1.02456 -0.322,1.22946c-0.38055,-0.38055 -0.84892,-0.90746 -1.14165,-1.93201c-0.29273,-1.02456 0,-2.25402 0.58546,-2.42966c0.58546,-0.11709 0.73183,0.322 1.20019,0.99528z" fill="#ffffff" stroke="none" stroke-linecap="butt" stroke-linejoin="miter"/></g><path d="M260.19891,193.48094c-0.52691,0.35127 -2.34184,1.63928 -4.6544,2.37111l-0.11709,0.02927c-0.11709,0.02927 -0.17564,0.17564 -0.11709,0.29273c0.49764,0.70255 1.4051,2.10766 -0.20491,2.60529c-1.55146,0.49764 -4.44948,-3.62985 -3.22002,-4.71295c0.55618,-0.40982 1.05383,-0.20491 1.31728,-0.08782c0.14636,0.05855 0.29273,0.05855 0.43909,0.02927c0.35127,-0.11709 0.99528,-0.35127 1.49292,-0.61473c1.25874,-0.644 1.55146,-0.90746 2.13693,-1.34656c0.58546,-0.43909 1.93201,-1.52219 3.01511,-0.58546c0.93674,0.79037 0.40982,1.66856 -0.08782,2.01983z" fill="#ffab19" stroke="#001026" stroke-linecap="round" stroke-linejoin="round"/><path d="M264.85331,187.39216c0.14636,0.11709 1.93201,2.22475 2.51747,1.69783c0.70255,-0.61473 1.66856,-1.81492 2.72238,-0.84892c1.05383,0.96601 -0.93674,2.60529 -1.78565,3.04438c-2.01983,0.90746 -3.65912,-0.81965 -4.01039,-1.28801c-0.35127,-0.46836 -0.96601,-1.25874 -0.96601,-2.01983c0.02927,-0.81965 1.02456,-1.02456 1.52219,-0.58546z" fill="#ffab19" stroke="#001026" stroke-linecap="round" stroke-linejoin="round"/><g><path d="M264.88258,194.21276c0.61473,0.55618 1.96129,1.69783 1.96129,1.69783c0,0 4.18603,-0.73183 4.18603,1.37583c0,1.25874 -2.10766,1.55146 -4.94713,1.28801c-0.17564,-0.02927 -0.35127,-0.08782 -0.49764,-0.20491c-0.644,-0.55618 -2.4882,-2.19547 -3.65912,-3.33712c-1.7271,-1.69783 -3.16147,-2.8102 -3.16147,-2.8102c-2.4882,-2.42966 -0.46836,-3.45421 0.322,-4.85931c0.73183,-1.20019 1.05383,-0.96601 2.8102,-0.61473c0.99528,0.14636 1.58074,0.23418 2.22475,0.20491c0.96601,-0.02927 0.79037,1.37583 0.52691,2.10766c0,0 -0.40982,1.0831 -0.79037,1.63928c-0.46836,0.67328 -0.81965,1.11237 -1.17092,1.37583z" fill="#ffab19" stroke="#001026" stroke-linecap="round" stroke-linejoin="round"/><path d="M262.42366,192.04656c0,0 -0.43909,-0.35127 -0.90746,-0.79037c-0.58546,-0.52691 -1.17092,-0.96601 -0.58546,-1.87347c0.52691,-0.70255 1.02456,-1.63928 2.34184,-0.79037c1.25874,0.79037 0.70255,1.52219 0.70255,1.52219c-0.644,1.31728 -1.55146,1.93201 -1.55146,1.93201z" fill="#ffffff" stroke="none" stroke-linecap="butt" stroke-linejoin="miter"/></g><path d="M258.00344,189.64618c0.644,0.81965 1.63928,1.84419 0.38055,2.69311c-1.7271,0.96601 -3.16147,-1.96129 -3.45421,-2.98584c-0.26345,-0.90746 0.49764,-1.49292 1.14165,-1.99056c1.25874,-0.90746 2.31257,-1.7271 3.48348,-1.28801c1.46365,0.52691 0.40982,1.69783 -0.322,2.22475c-0.43909,0.322 -0.87819,0.67328 -1.20019,0.87819c-0.08782,0.14636 -0.11709,0.322 -0.02927,0.46836z" fill="#ffab19" stroke="#001026" stroke-linecap="round" stroke-linejoin="round"/><g><path d="M267.22441,169.91621c0.08782,-0.05855 0.23418,-0.02927 0.26345,0.08782l0.7611,3.1322c0,0 1.87347,1.37583 2.42966,2.34184c0.93674,1.61001 0.96601,2.92729 0.96601,2.92729c0,0 2.07838,0.61473 2.42966,2.28329c0.35127,1.66856 -0.93674,4.83004 -6.44005,5.91313c-5.50331,1.0831 -9.92353,-0.40982 -12.00191,-3.74694c-2.07838,-3.33712 1.20019,-7.31824 1.02456,-7.08405l-0.61473,-5.23986c-0.02927,-0.11709 0.11709,-0.20491 0.23418,-0.14636l3.54203,2.31257c0,0 1.31728,-0.49764 2.69311,-0.55618c0.81965,-0.05855 1.52219,0 2.19547,0.11709z" fill="#ffab19" stroke="#001026" stroke-linecap="butt" stroke-linejoin="miter"/><path d="M271.55682,178.52246c0,0 2.01983,0.52691 2.37111,2.19547c0.35127,1.66856 -1.05383,4.68367 -6.4986,5.73749c-7.08405,1.46365 -10.45044,-2.75166 -8.48915,-5.85459c1.96129,-3.1322 5.32768,-0.46836 7.78661,-0.644c2.10766,-0.14636 2.34184,-1.99056 4.83004,-1.43437z" fill="#ffffff" stroke="none" stroke-linecap="butt" stroke-linejoin="miter"/><path d="M262.33584,181.65466c0,-0.11709 0.11709,-0.20491 0.23418,-0.17564c0.55618,0.20491 2.13693,0.67328 3.8933,0.79037c1.58074,0.08782 2.51747,0 2.95657,-0.08782c0.14636,-0.02927 0.26345,0.11709 0.20491,0.26345c-0.26345,0.79037 -1.37583,2.98584 -4.44948,2.8102c-2.66384,-0.29273 -2.92729,-2.1662 -2.83947,-3.60058z" fill="#ffffff" stroke="#001026" stroke-linecap="round" stroke-linejoin="round"/><path d="M276.94304,178.84446c-1.37583,1.11237 -3.48348,1.14165 -3.48348,1.14165" fill="none" stroke="#001026" stroke-linecap="round" stroke-linejoin="round"/><path d="M276.56248,182.12303c-1.84419,0.14636 -2.98584,-0.40982 -2.98584,-0.40982" fill="none" stroke="#001026" stroke-linecap="round" stroke-linejoin="round"/><path d="M266.60969,179.19574c0.61473,0 1.25874,0.05855 1.28801,0.26345c0.02927,0.40982 -0.40982,1.22946 -0.87819,1.25874c-0.52691,0.05855 -1.75637,-0.67328 -1.75637,-1.14165c-0.02927,-0.35127 0.7611,-0.38055 1.34656,-0.38055z" fill="#001026" stroke="#001026" stroke-linecap="round" stroke-linejoin="round"/><path d="M253.43686,178.75664c0,0 2.51747,0.81965 3.54203,1.7271" fill="none" stroke="#001026" stroke-linecap="round" stroke-linejoin="round"/><path d="M257.06671,181.5083c-1.25874,0.49764 -3.42494,0.17564 -3.42494,0.17564" fill="none" stroke="#001026" stroke-linecap="round" stroke-linejoin="round"/><g><path d="M270.06389,175.77081c0.84892,1.31728 0.87819,2.8102 0.05855,3.33712c-0.81965,0.52691 -2.1662,-0.08782 -3.04438,-1.4051c-0.84892,-1.31728 -0.87819,-2.8102 -0.05855,-3.33712c0.81965,-0.55618 2.19547,0.08782 3.04438,1.4051z" fill="#ffffff" stroke="#001026" stroke-linecap="round" stroke-linejoin="round"/><path d="M269.9468,177.43936c0,0.322 -0.23418,0.58546 -0.52691,0.58546c-0.29273,0 -0.52691,-0.26345 -0.52691,-0.58546c0,-0.322 0.23418,-0.58546 0.52691,-0.58546c0.29273,0 0.52691,0.26345 0.52691,0.58546" fill="#001026" stroke="none" stroke-linecap="butt" stroke-linejoin="miter"/></g><g><path d="M262.8042,176.59044c0.87819,1.28801 0.81965,2.86875 0.02927,3.42494c-0.96601,0.55618 -2.25402,0.14636 -3.1322,-1.14165c-0.90746,-1.28801 -0.96601,-2.95657 -0.05855,-3.60058c0.90746,-0.67328 2.28329,0.02927 3.16147,1.31728z" fill="#ffffff" stroke="#001026" stroke-linecap="round" stroke-linejoin="round"/><path d="M262.62857,178.28828c0,0.322 -0.23418,0.58546 -0.52691,0.58546c-0.29273,0 -0.52691,-0.26345 -0.52691,-0.58546c0,-0.322 0.23418,-0.58546 0.52691,-0.58546c0.29273,0.02927 0.52691,0.26345 0.52691,0.58546" fill="#001026" stroke="none" stroke-linecap="butt" stroke-linejoin="miter"/></g></g></g></g></svg>