<svg version="1.1" xmlns="http://www.w3.org/2000/svg" xmlns:xlink="http://www.w3.org/1999/xlink" width="296.22773" height="515.54087" viewBox="0,0,296.22773,515.54087"><g transform="translate(-158.94737,-1.28226)"><g data-paper-data="{&quot;isPaintingLayer&quot;:true}" stroke-linejoin="miter" stroke-miterlimit="10" stroke-dasharray="" stroke-dashoffset="0" style="mix-blend-mode: normal"><text transform="translate(161.52153,403.65714) scale(0.36638,0.36638)" font-size="40" xml:space="preserve" fill="#bfbfbf" fill-rule="nonzero" stroke="none" stroke-width="1" stroke-linecap="butt" stroke-linejoin="miter" stroke-miterlimit="10" stroke-dasharray="" stroke-dashoffset="0" font-family="Sans Serif" font-weight="normal" text-anchor="start" style="mix-blend-mode: normal"><tspan x="0" dy="0">絶対に不要なコードをまた削除</tspan><tspan x="0" dy="48px">サウンドレコーダーに音量設定のバーを追加</tspan></text><g fill="#ffffff" stroke="none" stroke-linecap="butt"><text transform="translate(372.21919,374.66037) scale(0.30375,0.30375)" font-size="40" xml:space="preserve" fill="#ffffff" fill-rule="nonzero" stroke="none" stroke-width="1" stroke-linecap="butt" stroke-linejoin="miter" stroke-miterlimit="10" stroke-dasharray="" stroke-dashoffset="0" font-family="Sans Serif" font-weight="normal" text-anchor="start" style="mix-blend-mode: normal"><tspan x="0" dy="0">3,719</tspan></text><g fill-rule="evenodd" stroke-width="0"><path d="M353.41343,363.97501h1.34763c0.11012,0 0.21571,0.04381 0.29361,0.12184l0.73693,0.73801c0.11769,0.11786 0.27727,0.18408 0.44372,0.18408h1.65287c0.16645,0 0.32604,-0.06621 0.44373,-0.18408l0.73692,-0.73801c0.07791,-0.07802 0.18349,-0.12184 0.29362,-0.12184h12.06829c0.22924,0 0.41512,0.18617 0.41512,0.4159v5.21961c0,0.22974 -0.18588,0.4159 -0.41512,0.4159h-12.06829c-0.16645,0 -0.32603,0.06621 -0.44372,0.18408l-0.73692,0.73801c-0.07791,0.07802 -0.1835,0.12184 -0.29362,0.12184h-1.65287c-0.11012,0 -0.21571,-0.04381 -0.29362,-0.12184l-0.73692,-0.73801c-0.11769,-0.11786 -0.27727,-0.18408 -0.44373,-0.18408h-1.34763c-0.22924,0 -0.41512,-0.18616 -0.41512,-0.4159v-5.21961c0,-0.22974 0.18588,-0.4159 0.41512,-0.4159z"/><path d="M353.41343,370.96045h1.34763c0.11012,0 0.21571,0.04381 0.29361,0.12184l0.73693,0.73801c0.11769,0.11786 0.27727,0.18408 0.44372,0.18408h1.65287c0.16645,0 0.32604,-0.06621 0.44373,-0.18408l0.73692,-0.73801c0.07791,-0.07802 0.18349,-0.12184 0.29362,-0.12184h7.74622c0.22924,0 0.41513,0.18616 0.41513,0.4159v5.21961c0,0.22974 -0.18589,0.4159 -0.41513,0.4159h-7.74622c-0.16645,0 -0.32603,0.06621 -0.44372,0.18408l-0.73692,0.73801c-0.07791,0.07802 -0.1835,0.12183 -0.29362,0.12183h-1.65287c-0.11012,0 -0.21571,-0.04381 -0.29362,-0.12183l-0.73692,-0.73801c-0.11769,-0.11786 -0.27727,-0.18408 -0.44373,-0.18408h-1.34763c-0.22924,0 -0.41512,-0.18616 -0.41512,-0.4159v-5.21961c0,-0.22974 0.18588,-0.4159 0.41512,-0.4159z"/></g></g><g fill-rule="nonzero"><text transform="translate(161.52153,378.29936) scale(0.607,0.607)" font-size="40" xml:space="preserve" fill="#ffffff" fill-rule="nonzero" stroke="none" stroke-width="1" stroke-linecap="butt" stroke-linejoin="miter" stroke-miterlimit="10" stroke-dasharray="" stroke-dashoffset="0" font-family="Sans Serif" font-weight="normal" text-anchor="start" style="mix-blend-mode: normal"><tspan x="0" dy="0">v5 - 23/8/17</tspan></text><path d="M344.60526,385.58337h-183.15789" fill="none" stroke="#555962" stroke-width="5" stroke-linecap="round"/></g><text transform="translate(161.52153,494.65714) scale(0.36638,0.36638)" font-size="40" xml:space="preserve" fill="#bfbfbf" fill-rule="nonzero" stroke="none" stroke-width="1" stroke-linecap="butt" stroke-linejoin="miter" stroke-miterlimit="10" stroke-dasharray="" stroke-dashoffset="0" font-family="Sans Serif" font-weight="normal" text-anchor="start" style="mix-blend-mode: normal"><tspan x="0" dy="0">絶対に不要なコード削除</tspan><tspan x="0" dy="48px">起動時の画面を多少軽量化</tspan></text><g fill="#ffffff" stroke="none" stroke-linecap="butt"><text transform="translate(372.21919,465.66036) scale(0.30375,0.30375)" font-size="40" xml:space="preserve" fill="#ffffff" fill-rule="nonzero" stroke="none" stroke-width="1" stroke-linecap="butt" stroke-linejoin="miter" stroke-miterlimit="10" stroke-dasharray="" stroke-dashoffset="0" font-family="Sans Serif" font-weight="normal" text-anchor="start" style="mix-blend-mode: normal"><tspan x="0" dy="0">3,676</tspan></text><g fill-rule="evenodd" stroke-width="0"><path d="M353.41343,454.97501h1.34763c0.11012,0 0.21571,0.04381 0.29361,0.12184l0.73693,0.73801c0.11769,0.11786 0.27727,0.18408 0.44372,0.18408h1.65287c0.16645,0 0.32604,-0.06621 0.44373,-0.18408l0.73692,-0.73801c0.07791,-0.07802 0.18349,-0.12184 0.29362,-0.12184h12.06829c0.22924,0 0.41512,0.18617 0.41512,0.4159v5.21961c0,0.22974 -0.18588,0.4159 -0.41512,0.4159h-12.06829c-0.16645,0 -0.32603,0.06621 -0.44372,0.18408l-0.73692,0.73801c-0.07791,0.07802 -0.1835,0.12184 -0.29362,0.12184h-1.65287c-0.11012,0 -0.21571,-0.04381 -0.29362,-0.12184l-0.73692,-0.73801c-0.11769,-0.11786 -0.27727,-0.18408 -0.44373,-0.18408h-1.34763c-0.22924,0 -0.41512,-0.18616 -0.41512,-0.4159v-5.21961c0,-0.22974 0.18588,-0.4159 0.41512,-0.4159z"/><path d="M353.41343,461.96045h1.34763c0.11012,0 0.21571,0.04381 0.29361,0.12184l0.73693,0.73801c0.11769,0.11786 0.27727,0.18408 0.44372,0.18408h1.65287c0.16645,0 0.32604,-0.06621 0.44373,-0.18408l0.73692,-0.73801c0.07791,-0.07802 0.18349,-0.12184 0.29362,-0.12184h7.74622c0.22924,0 0.41513,0.18616 0.41513,0.4159v5.21961c0,0.22974 -0.18589,0.4159 -0.41513,0.4159h-7.74622c-0.16645,0 -0.32603,0.06621 -0.44372,0.18408l-0.73692,0.73801c-0.07791,0.07802 -0.1835,0.12183 -0.29362,0.12183h-1.65287c-0.11012,0 -0.21571,-0.04381 -0.29362,-0.12183l-0.73692,-0.73801c-0.11769,-0.11786 -0.27727,-0.18408 -0.44373,-0.18408h-1.34763c-0.22924,0 -0.41512,-0.18616 -0.41512,-0.4159v-5.21961c0,-0.22974 0.18588,-0.4159 0.41512,-0.4159z"/></g></g><g fill-rule="nonzero"><text transform="translate(161.52153,469.29937) scale(0.607,0.607)" font-size="40" xml:space="preserve" fill="#ffffff" fill-rule="nonzero" stroke="none" stroke-width="1" stroke-linecap="butt" stroke-linejoin="miter" stroke-miterlimit="10" stroke-dasharray="" stroke-dashoffset="0" font-family="Sans Serif" font-weight="normal" text-anchor="start" style="mix-blend-mode: normal"><tspan x="0" dy="0">v4 - 23/8/9</tspan></text><path d="M344.60526,476.58337h-183.15789" fill="none" stroke="#555962" stroke-width="5" stroke-linecap="round"/></g><text transform="translate(161.52153,279.65714) scale(0.36638,0.36638)" font-size="40" xml:space="preserve" fill="#bfbfbf" fill-rule="nonzero" stroke="none" stroke-width="1" stroke-linecap="butt" stroke-linejoin="miter" stroke-miterlimit="10" stroke-dasharray="" stroke-dashoffset="0" font-family="Sans Serif" font-weight="normal" text-anchor="start" style="mix-blend-mode: normal"><tspan x="0" dy="0">データがないときにファイルの削除か</tspan><tspan x="0" dy="48px">ファイルから読込を押したときに</tspan><tspan x="0" dy="48px">読み込むデータがないことを</tspan><tspan x="0" dy="48px">表示するように変更</tspan></text><g fill="#ffffff" stroke="none" stroke-linecap="butt"><text transform="translate(372.21919,250.66037) scale(0.30375,0.30375)" font-size="40" xml:space="preserve" fill="#ffffff" fill-rule="nonzero" stroke="none" stroke-width="1" stroke-linecap="butt" stroke-linejoin="miter" stroke-miterlimit="10" stroke-dasharray="" stroke-dashoffset="0" font-family="Sans Serif" font-weight="normal" text-anchor="start" style="mix-blend-mode: normal"><tspan x="0" dy="0">3,729</tspan></text><g fill-rule="evenodd" stroke-width="0"><path d="M353.41343,239.97501h1.34763c0.11012,0 0.21571,0.04381 0.29361,0.12184l0.73693,0.73801c0.11769,0.11786 0.27727,0.18408 0.44372,0.18408h1.65287c0.16645,0 0.32604,-0.06621 0.44373,-0.18408l0.73692,-0.73801c0.07791,-0.07802 0.18349,-0.12184 0.29362,-0.12184h12.06829c0.22924,0 0.41512,0.18617 0.41512,0.4159v5.21961c0,0.22974 -0.18588,0.4159 -0.41512,0.4159h-12.06829c-0.16645,0 -0.32603,0.06621 -0.44372,0.18408l-0.73692,0.73801c-0.07791,0.07802 -0.1835,0.12184 -0.29362,0.12184h-1.65287c-0.11012,0 -0.21571,-0.04381 -0.29362,-0.12184l-0.73692,-0.73801c-0.11769,-0.11786 -0.27727,-0.18408 -0.44373,-0.18408h-1.34763c-0.22924,0 -0.41512,-0.18616 -0.41512,-0.4159v-5.21961c0,-0.22974 0.18588,-0.4159 0.41512,-0.4159z"/><path d="M353.41343,246.96045h1.34763c0.11012,0 0.21571,0.04381 0.29361,0.12184l0.73693,0.73801c0.11769,0.11786 0.27727,0.18408 0.44372,0.18408h1.65287c0.16645,0 0.32604,-0.06621 0.44373,-0.18408l0.73692,-0.73801c0.07791,-0.07802 0.18349,-0.12184 0.29362,-0.12184h7.74622c0.22924,0 0.41513,0.18616 0.41513,0.4159v5.21961c0,0.22974 -0.18589,0.4159 -0.41513,0.4159h-7.74622c-0.16645,0 -0.32603,0.06621 -0.44372,0.18408l-0.73692,0.73801c-0.07791,0.07802 -0.1835,0.12183 -0.29362,0.12183h-1.65287c-0.11012,0 -0.21571,-0.04381 -0.29362,-0.12183l-0.73692,-0.73801c-0.11769,-0.11786 -0.27727,-0.18408 -0.44373,-0.18408h-1.34763c-0.22924,0 -0.41512,-0.18616 -0.41512,-0.4159v-5.21961c0,-0.22974 0.18588,-0.4159 0.41512,-0.4159z"/></g></g><g fill-rule="nonzero"><text transform="translate(161.52153,254.29937) scale(0.607,0.607)" font-size="40" xml:space="preserve" fill="#ffffff" fill-rule="nonzero" stroke="none" stroke-width="1" stroke-linecap="butt" stroke-linejoin="miter" stroke-miterlimit="10" stroke-dasharray="" stroke-dashoffset="0" font-family="Sans Serif" font-weight="normal" text-anchor="start" style="mix-blend-mode: normal"><tspan x="0" dy="0">v6 - 23/8/25</tspan></text><path d="M161.44737,261.58337h183.15789" fill="none" stroke="#555962" stroke-width="5" stroke-linecap="round"/></g><text transform="translate(161.52153,165.65714) scale(0.36638,0.36638)" font-size="40" xml:space="preserve" fill="#bfbfbf" fill-rule="nonzero" stroke="none" stroke-width="1" stroke-linecap="butt" stroke-linejoin="miter" stroke-miterlimit="10" stroke-dasharray="" stroke-dashoffset="0" font-family="Sans Serif" font-weight="normal" text-anchor="start" style="mix-blend-mode: normal"><tspan x="0" dy="0">Scratchで開いたときにいろんな制限を</tspan><tspan x="0" dy="48px">かけるように変更</tspan><tspan x="0" dy="48px">サムネイルを少し変更</tspan></text><g fill="#ffffff" stroke="none" stroke-linecap="butt"><text transform="translate(372.21919,136.66037) scale(0.30375,0.30375)" font-size="40" xml:space="preserve" fill="#ffffff" fill-rule="nonzero" stroke="none" stroke-width="1" stroke-linecap="butt" stroke-linejoin="miter" stroke-miterlimit="10" stroke-dasharray="" stroke-dashoffset="0" font-family="Sans Serif" font-weight="normal" text-anchor="start" style="mix-blend-mode: normal"><tspan x="0" dy="0">3,885</tspan></text><g fill-rule="evenodd" stroke-width="0"><path d="M353.41343,125.97501h1.34763c0.11012,0 0.21571,0.04381 0.29361,0.12184l0.73693,0.73801c0.11769,0.11786 0.27727,0.18408 0.44372,0.18408h1.65287c0.16645,0 0.32604,-0.06621 0.44373,-0.18408l0.73692,-0.73801c0.07791,-0.07802 0.18349,-0.12184 0.29362,-0.12184h12.06829c0.22924,0 0.41512,0.18617 0.41512,0.4159v5.21961c0,0.22974 -0.18588,0.4159 -0.41512,0.4159h-12.06829c-0.16645,0 -0.32603,0.06621 -0.44372,0.18408l-0.73692,0.73801c-0.07791,0.07802 -0.1835,0.12184 -0.29362,0.12184h-1.65287c-0.11012,0 -0.21571,-0.04381 -0.29362,-0.12184l-0.73692,-0.73801c-0.11769,-0.11786 -0.27727,-0.18408 -0.44373,-0.18408h-1.34763c-0.22924,0 -0.41512,-0.18616 -0.41512,-0.4159v-5.21961c0,-0.22974 0.18588,-0.4159 0.41512,-0.4159z"/><path d="M353.41343,132.96045h1.34763c0.11012,0 0.21571,0.04381 0.29361,0.12184l0.73693,0.73801c0.11769,0.11786 0.27727,0.18408 0.44372,0.18408h1.65287c0.16645,0 0.32604,-0.06621 0.44373,-0.18408l0.73692,-0.73801c0.07791,-0.07802 0.18349,-0.12184 0.29362,-0.12184h7.74622c0.22924,0 0.41513,0.18616 0.41513,0.4159v5.21961c0,0.22974 -0.18589,0.4159 -0.41513,0.4159h-7.74622c-0.16645,0 -0.32603,0.06621 -0.44372,0.18408l-0.73692,0.73801c-0.07791,0.07802 -0.1835,0.12183 -0.29362,0.12183h-1.65287c-0.11012,0 -0.21571,-0.04381 -0.29362,-0.12183l-0.73692,-0.73801c-0.11769,-0.11786 -0.27727,-0.18408 -0.44373,-0.18408h-1.34763c-0.22924,0 -0.41512,-0.18616 -0.41512,-0.4159v-5.21961c0,-0.22974 0.18588,-0.4159 0.41512,-0.4159z"/></g></g><g fill-rule="nonzero"><text transform="translate(161.52153,140.29937) scale(0.607,0.607)" font-size="40" xml:space="preserve" fill="#ffffff" fill-rule="nonzero" stroke="none" stroke-width="1" stroke-linecap="butt" stroke-linejoin="miter" stroke-miterlimit="10" stroke-dasharray="" stroke-dashoffset="0" font-family="Sans Serif" font-weight="normal" text-anchor="start" style="mix-blend-mode: normal"><tspan x="0" dy="0">v7 - 23/9/2</tspan></text><path d="M161.44737,147.58337h183.15789" fill="none" stroke="#555962" stroke-width="5" stroke-linecap="round"/></g><text transform="translate(161.52153,53.04453) scale(0.36638,0.36638)" font-size="40" xml:space="preserve" fill="#bfbfbf" fill-rule="nonzero" stroke="none" stroke-width="1" stroke-linecap="butt" stroke-linejoin="miter" stroke-miterlimit="10" stroke-dasharray="" stroke-dashoffset="0" font-family="Sans Serif" font-weight="normal" text-anchor="start" style="mix-blend-mode: normal"><tspan x="0" dy="0">セーブせずに終了したときにデータの</tspan><tspan x="0" dy="48px">バックアップをとり、復元ができるように</tspan><tspan x="0" dy="48px">前回支払った維持費を表示するように</tspan></text><g fill="#ffffff" stroke="none" stroke-linecap="butt"><text transform="translate(372.21919,24.04776) scale(0.30375,0.30375)" font-size="40" xml:space="preserve" fill="#ffffff" fill-rule="nonzero" stroke="none" stroke-width="1" stroke-linecap="butt" stroke-linejoin="miter" stroke-miterlimit="10" stroke-dasharray="" stroke-dashoffset="0" font-family="Sans Serif" font-weight="normal" text-anchor="start" style="mix-blend-mode: normal"><tspan x="0" dy="0">3,936</tspan></text><g fill-rule="evenodd" stroke-width="0"><path d="M353.41343,13.3624h1.34763c0.11012,0 0.21571,0.04381 0.29361,0.12184l0.73693,0.73801c0.11769,0.11786 0.27727,0.18408 0.44372,0.18408h1.65287c0.16645,0 0.32604,-0.06621 0.44373,-0.18408l0.73692,-0.73801c0.07791,-0.07802 0.18349,-0.12184 0.29362,-0.12184h12.06829c0.22924,0 0.41512,0.18617 0.41512,0.4159v5.21961c0,0.22974 -0.18588,0.4159 -0.41512,0.4159h-12.06829c-0.16645,0 -0.32603,0.06621 -0.44372,0.18408l-0.73692,0.73801c-0.07791,0.07802 -0.1835,0.12184 -0.29362,0.12184h-1.65287c-0.11012,0 -0.21571,-0.04381 -0.29362,-0.12184l-0.73692,-0.73801c-0.11769,-0.11786 -0.27727,-0.18408 -0.44373,-0.18408h-1.34763c-0.22924,0 -0.41512,-0.18616 -0.41512,-0.4159v-5.21961c0,-0.22974 0.18588,-0.4159 0.41512,-0.4159z"/><path d="M353.41343,20.34784h1.34763c0.11012,0 0.21571,0.04381 0.29361,0.12184l0.73693,0.73801c0.11769,0.11786 0.27727,0.18408 0.44372,0.18408h1.65287c0.16645,0 0.32604,-0.06621 0.44373,-0.18408l0.73692,-0.73801c0.07791,-0.07802 0.18349,-0.12184 0.29362,-0.12184h7.74622c0.22924,0 0.41513,0.18616 0.41513,0.4159v5.21961c0,0.22974 -0.18589,0.4159 -0.41513,0.4159h-7.74622c-0.16645,0 -0.32603,0.06621 -0.44372,0.18408l-0.73692,0.73801c-0.07791,0.07802 -0.1835,0.12183 -0.29362,0.12183h-1.65287c-0.11012,0 -0.21571,-0.04381 -0.29362,-0.12183l-0.73692,-0.73801c-0.11769,-0.11786 -0.27727,-0.18408 -0.44373,-0.18408h-1.34763c-0.22924,0 -0.41512,-0.18616 -0.41512,-0.4159v-5.21961c0,-0.22974 0.18588,-0.4159 0.41512,-0.4159z"/></g></g><g fill-rule="nonzero"><text transform="translate(161.52153,27.68676) scale(0.607,0.607)" font-size="40" xml:space="preserve" fill="#ffffff" fill-rule="nonzero" stroke="none" stroke-width="1" stroke-linecap="butt" stroke-linejoin="miter" stroke-miterlimit="10" stroke-dasharray="" stroke-dashoffset="0" font-family="Sans Serif" font-weight="normal" text-anchor="start" style="mix-blend-mode: normal"><tspan x="0" dy="0">v8 - 23/9/20</tspan></text><path d="M161.44737,34.97075h183.15789" fill="none" stroke="#555962" stroke-width="5" stroke-linecap="round"/></g></g></g></svg>