<svg version="1.1" xmlns="http://www.w3.org/2000/svg" xmlns:xlink="http://www.w3.org/1999/xlink" width="180.64105" height="50.79543" viewBox="0,0,180.64105,50.79543"><g transform="translate(-149.67949,-154.6023)"><g data-paper-data="{&quot;isPaintingLayer&quot;:true}" stroke-miterlimit="10" stroke-dasharray="" stroke-dashoffset="0" style="mix-blend-mode: normal"><path d="M330.32054,190.99036c0,7.94488 -6.45972,14.40737 -14.41015,14.40737h-151.82352c-7.9421,0 -14.40738,-6.4625 -14.40738,-14.40737v-21.98069c0,-7.29123 5.4452,-13.33396 12.47988,-14.27892c0.63065,-0.08471 153.75101,-0.12845 153.75101,-0.12845c7.95043,0 14.41015,6.46527 14.41015,14.41015z" fill-opacity="0.50196" fill="#262626" fill-rule="nonzero" stroke="none" stroke-width="1" stroke-linecap="butt" stroke-linejoin="miter"/><text transform="translate(194.91339,175.79742) scale(0.35022,0.35022)" font-size="40" xml:space="preserve" fill="#ffffff" fill-rule="nonzero" stroke="none" stroke-width="1" stroke-linecap="butt" stroke-linejoin="miter" stroke-miterlimit="10" stroke-dasharray="" stroke-dashoffset="0" font-family="Sans Serif" font-weight="normal" text-anchor="start" style="mix-blend-mode: normal"><tspan x="0" dy="0">維持費が</tspan><tspan x="0" dy="48px">引かれました。</tspan></text><path d="M190.39261,170.32981v19.34202c0,4.61423 -3.75168,8.36752 -8.36913,8.36752h-18.86414c-4.61262,0 -8.36752,-3.75329 -8.36752,-8.36752v-19.34363c0,-4.2346 3.16247,-7.74411 7.24807,-8.29292c0.36627,-0.0492 19.98359,-0.0746 19.98359,-0.0746c4.61745,0 8.36913,3.75491 8.36913,8.36913z" fill="#2e2e2e" fill-rule="nonzero" stroke="none" stroke-width="1" stroke-linecap="butt" stroke-linejoin="miter"/><g fill-rule="evenodd"><g stroke="#ffffff" stroke-width="1.5" stroke-linecap="round"><path d="M182.92766,185.3349v1.02143c0,1.98665 -1.61049,3.59714 -3.59714,3.59714h-15.84598c-1.53233,0 -2.77451,-1.24218 -2.77451,-2.77451v0l4.00128,-3.3627c0.73709,-0.65083 2.00064,-0.54238 2.63242,0.32542l0.52648,0.65085c0.63178,0.86779 1.79005,0.97626 2.63242,0.32543l5.47544,-4.44743c0.73709,-0.65083 1.79005,-0.54238 2.42183,0.10847l4.42247,4.5559z" fill="#ffffff" stroke-linejoin="round"/><path d="M182.92766,177.0593v9.52185c0,1.75292 -1.42103,3.17394 -3.17395,3.17394h-15.86974c-1.75292,0 -3.17394,-1.42103 -3.17394,-3.17394v-12.6958c0,-1.75292 1.42103,-3.17394 3.17394,-3.17394h12.6958" fill="none" stroke-linejoin="miter"/></g><g stroke-linecap="butt" stroke-linejoin="miter"><path d="M185.36627,169.5159c0.65736,0 1.19022,0.53288 1.19022,1.19024c0,0.65736 -0.53288,1.19024 -1.19022,1.19024h-4.76092c-0.65734,0 -1.19024,-0.53288 -1.19024,-1.19024c0,-0.65736 0.5329,-1.19024 1.19024,-1.19024z" fill="#ffffff" stroke="none" stroke-width="1"/><path d="M185.36627,169.42597c0.707,0 1.28015,0.57315 1.28015,1.28017c0,0.707 -0.57315,1.28015 -1.28015,1.28015h-4.76092c-0.707,0 -1.28017,-0.57315 -1.28017,-1.28015c0,-0.707 0.57315,-1.28017 1.28017,-1.28017z" fill="none" stroke="#ffffff" stroke-width="0.1"/></g></g></g></g></svg>