<svg version="1.1" xmlns="http://www.w3.org/2000/svg" xmlns:xlink="http://www.w3.org/1999/xlink" width="43.13887" height="43.31143" viewBox="0,0,43.13887,43.31143"><defs><linearGradient x1="87.93482" y1="337.62094" x2="193.27761" y2="337.62094" gradientUnits="userSpaceOnUse" id="color-1"><stop offset="0" stop-color="#d1d2d3"/><stop offset="1" stop-color="#a4a5a8"/></linearGradient></defs><g transform="translate(-131.18149,-323.95315)"><g data-paper-data="{&quot;isPaintingLayer&quot;:true}" fill-rule="nonzero" stroke-linecap="butt" stroke-linejoin="miter" stroke-miterlimit="10" stroke-dasharray="" stroke-dashoffset="0" style="mix-blend-mode: normal"><path d="M173.07036,331.69969v27.81956c0,3.58182 -2.91226,6.49533 -6.49657,6.49533h-27.64698c-3.58054,0 -6.49532,-2.91351 -6.49532,-6.49533v-27.82081c0,-3.58181 2.91475,-6.49529 6.49532,-6.49529h27.64698c3.5843,0 6.49657,2.91476 6.49657,6.49656z" data-paper-data="{&quot;index&quot;:null}" fill="url(#color-1)" stroke="#666666" stroke-width="2.5"/><path d="M169.90124,335.53006c0.10717,0.21921 0.19018,0.41289 0.19018,0.35857v15.2145c0,0.41732 -0.34419,0.73857 -0.73857,0.73857c-0.0716,0 -0.18643,-0.04922 -0.21633,-0.0791l-0.14226,-0.11107l-6.31637,-4.08247v1.90923c0,2.87532 -2.36097,5.31769 -5.16998,5.31769h-16.07295c-2.97717,-0.13014 -5.31769,-2.47066 -5.31769,-5.31769v-11.66938c0,-2.98952 2.32817,-5.31769 5.31769,-5.31769h16.07295c2.86148,0 5.16998,2.34829 5.16998,5.31769v1.9636l6.19037,-4.44583c0.39831,-0.23847 0.81827,-0.15448 1.03298,0.20336z" data-paper-data="{&quot;index&quot;:null}" fill="#297ff8" stroke="none" stroke-width="0"/></g></g></svg>