<svg version="1.1" xmlns="http://www.w3.org/2000/svg" xmlns:xlink="http://www.w3.org/1999/xlink" width="140.9777" height="263.83045" viewBox="0,0,140.9777,263.83045"><g transform="translate(-0.01115,0)"><g data-paper-data="{&quot;isPaintingLayer&quot;:true}" stroke-linejoin="miter" stroke-miterlimit="10" stroke-dasharray="" stroke-dashoffset="0" style="mix-blend-mode: normal"><g fill-rule="nonzero"><path d="M0.01115,0h38.4777v35h-38.4777z" fill="#e6e8eb" stroke="none" stroke-width="1.00207" stroke-linecap="butt"/><g fill="none" stroke="#000000" stroke-width="2.5" stroke-linecap="round"><path d="M25.52667,8.39557l-9.03895,9.03895"/><path d="M25.52667,26.60446l-9.03895,-9.03894"/></g></g><g fill-rule="nonzero" stroke-width="1" stroke-linecap="butt"><path d="M139.3917,89.80097c0,2.96234 -2.40254,5.36426 -5.36426,5.36426h-118.0555c-2.96234,0 -5.36363,-2.40255 -5.36363,-5.36426v-29.60257c0,-2.96234 2.4013,-5.36362 5.36363,-5.36362h118.05488c2.96359,0 5.36426,2.40128 5.36426,5.36362v29.60258z" fill="#3c8528" stroke-opacity="0.4031" stroke="#ffffff"/><text transform="translate(19.428,81) scale(0.4631,0.5)" font-size="40" xml:space="preserve" fill="#d7d7d9" fill-rule="nonzero" stroke="none" stroke-width="1" stroke-linecap="butt" stroke-linejoin="miter" stroke-miterlimit="10" stroke-dasharray="" stroke-dashoffset="0" font-family="Serif" font-weight="normal" text-anchor="start" style="mix-blend-mode: normal"><tspan x="0" dy="0">保存して遊ぶ</tspan></text></g><g stroke-width="1" stroke-linecap="butt"><path d="M140.48885,207.96619c0,2.96234 -2.40254,5.36426 -5.36426,5.36426h-118.0555c-2.96234,0 -5.36363,-2.40255 -5.36363,-5.36426v-29.60257c0,-2.96234 2.4013,-5.36362 5.36363,-5.36362h118.05488c2.96359,0 5.36426,2.40128 5.36426,5.36362v29.60258z" fill="#313333" fill-rule="nonzero" stroke-opacity="0.4031" stroke="#ffffff"/><text transform="translate(32.43012,199.16522) scale(0.33114,0.5)" font-size="40" xml:space="preserve" fill="#d7d7d9" fill-rule="nonzero" stroke="none" stroke-width="1" stroke-linecap="butt" stroke-linejoin="miter" stroke-miterlimit="10" stroke-dasharray="" stroke-dashoffset="0" font-family="Serif" font-weight="normal" text-anchor="start" style="mix-blend-mode: normal"><tspan x="0" dy="0">ファイルから読込</tspan></text><path d="M14.46719,184.05856c0,-0.83911 0.67817,-1.51934 1.49247,-1.51934h10.48283v3.54608c0,1.37515 1.09822,2.48993 2.46997,2.48993h3.51767v13.58793c0,0.82955 -0.68223,1.50206 -1.5006,1.50206h-14.96172c-0.82876,0 -1.5006,-0.67898 -1.5006,-1.51933z" fill="#ffffff" fill-rule="evenodd" stroke="none"/><path d="M27.93939,182.53922l4.49074,4.527h-2.99538c-0.82586,0 -1.49535,-0.66798 -1.49535,-1.50743z" fill="#ffffff" fill-rule="evenodd" stroke="none"/><path d="M23.96947,198.9529c-0.1289,0.12994 -0.30077,0.19492 -0.47263,0.19492c-0.19336,0 -0.36522,-0.06498 -0.49412,-0.19492l-2.74991,-2.77211c-0.19336,-0.21657 -0.25779,-0.49811 -0.15037,-0.758c0.10742,-0.25988 0.34374,-0.41149 0.62303,-0.41149h1.11714l0.53709,-3.91992c0.04297,-0.3032 0.19335,-0.58474 0.42967,-0.758c0.23631,-0.19492 0.55858,-0.28156 0.83787,-0.23823c0.51561,0.08446 0.9238,0.49811 0.98825,0.99623l0.55857,3.91992h1.0527c0.27929,0 0.51561,0.17327 0.62303,0.43315c0.10742,0.23822 0.04296,0.54143 -0.15038,0.73634z" fill="#313333" fill-rule="evenodd" stroke="none"/></g><g stroke-width="1" stroke-linecap="butt"><path d="M140.48885,257.96619c0,2.96234 -2.40254,5.36426 -5.36426,5.36426h-118.0555c-2.96234,0 -5.36363,-2.40255 -5.36363,-5.36426v-29.60257c0,-2.96234 2.4013,-5.36362 5.36363,-5.36362h118.05488c2.96359,0 5.36426,2.40128 5.36426,5.36362v29.60258z" fill="#313333" fill-rule="nonzero" stroke-opacity="0.4031" stroke="#ffffff"/><text transform="translate(32.43013,249.16522) scale(0.38201,0.5)" font-size="40" xml:space="preserve" fill="#d7d7d9" fill-rule="nonzero" stroke="none" stroke-width="1" stroke-linecap="butt" stroke-linejoin="miter" stroke-miterlimit="10" stroke-dasharray="" stroke-dashoffset="0" font-family="Serif" font-weight="normal" text-anchor="start" style="mix-blend-mode: normal"><tspan x="0" dy="0">コードから読込</tspan></text><path d="M14.46719,234.05856c0,-0.83911 0.67817,-1.51934 1.49247,-1.51934h10.48283v3.54608c0,1.37515 1.09822,2.48993 2.46997,2.48993h3.51767v13.58793c0,0.82955 -0.68223,1.50206 -1.5006,1.50206h-14.96172c-0.82876,0 -1.5006,-0.67898 -1.5006,-1.51933z" fill="#ffffff" fill-rule="evenodd" stroke="none"/><path d="M27.93939,232.53922l4.49074,4.527h-2.99538c-0.82586,0 -1.49535,-0.66798 -1.49535,-1.50743z" fill="#ffffff" fill-rule="evenodd" stroke="none"/><path d="M23.96947,248.9529c-0.1289,0.12994 -0.30077,0.19492 -0.47263,0.19492c-0.19336,0 -0.36522,-0.06498 -0.49412,-0.19492l-2.74991,-2.77211c-0.19336,-0.21657 -0.25779,-0.49811 -0.15037,-0.758c0.10742,-0.25988 0.34374,-0.41149 0.62303,-0.41149h1.11714l0.53709,-3.91992c0.04297,-0.3032 0.19335,-0.58474 0.42967,-0.758c0.23631,-0.19492 0.55858,-0.28156 0.83787,-0.23823c0.51561,0.08446 0.9238,0.49811 0.98825,0.99623l0.55857,3.91992h1.0527c0.27929,0 0.51561,0.17327 0.62303,0.43315c0.10742,0.23822 0.04296,0.54143 -0.15038,0.73634z" fill="#313333" fill-rule="evenodd" stroke="none"/></g></g></g></svg>