<svg version="1.1" xmlns="http://www.w3.org/2000/svg" xmlns:xlink="http://www.w3.org/1999/xlink" width="92.21921" height="62.49177" viewBox="0,0,92.21921,62.49177"><g transform="translate(-193.89043,-148.75412)"><g data-paper-data="{&quot;isPaintingLayer&quot;:true}" fill-rule="nonzero" stroke-linejoin="miter" stroke-miterlimit="10" stroke-dasharray="" stroke-dashoffset="0" style="mix-blend-mode: normal"><path d="M194.89044,210.2459v-60.49176h90.21921v60.49176z" fill="#fff580" stroke="#666666" stroke-width="2" stroke-linecap="butt"/><path d="M195.90991,209.3284v-3.6523h88.18031v3.6523z" fill="#c0c0c0" stroke="none" stroke-width="0" stroke-linecap="butt"/><path d="M212.74474,164.41449v-14.66037h34.1149v14.66037z" fill="#cc0000" stroke="#666666" stroke-width="2" stroke-linecap="butt"/><text transform="translate(214.12504,160.7937) scale(0.26667,0.26667)" font-size="40" xml:space="preserve" fill="#ffffff" fill-rule="nonzero" stroke="none" stroke-width="1" stroke-linecap="butt" stroke-linejoin="miter" stroke-miterlimit="10" stroke-dasharray="" stroke-dashoffset="0" font-family="Sans Serif" font-weight="normal" text-anchor="start" style="mix-blend-mode: normal"><tspan x="0" dy="0">宝くじ</tspan></text><g data-paper-data="{&quot;index&quot;:null}"><path d="M258.94951,164.79501v27.91h-12.07993l-15.12782,-27.91h27.20773" fill-opacity="0.75294" fill="#b4e0d7" stroke="none" stroke-width="1" stroke-linecap="butt"/><path d="M231.7418,164.79501l15.12782,27.91h-8.12816l-15.12782,-27.91h8.12816" fill-opacity="0.74902" fill="#d4fff5" stroke="none" stroke-width="1" stroke-linecap="butt"/><path d="M219.05217,164.79501l15.07132,27.91h-4.57184l-15.12782,-27.91h4.62833" fill-opacity="0.74902" fill="#d4fff5" stroke="none" stroke-width="1" stroke-linecap="butt"/><path d="M223.61364,164.79501l15.12782,27.91h-4.62833l-15.07132,-27.91h4.57184" fill-opacity="0.75294" fill="#b4e0d7" stroke="none" stroke-width="1" stroke-linecap="butt"/><path d="M212.55056,164.79501h1.8629l15.12782,27.91h-16.99072v-27.91" fill-opacity="0.75294" fill="#b4e0d7" stroke="none" stroke-width="1" stroke-linecap="butt"/><g stroke-width="1.512" stroke-linecap="round"><path d="" fill="#5e154d" stroke="#5e154d"/><path d="M258.94951,164.79501v27.91h-46.39896v-27.91h46.39896" fill="none" stroke="#666666"/></g></g><path d="M246.85963,164.41449v-14.66037h11.8851v14.66037z" fill="#03fdff" stroke="#666666" stroke-width="2" stroke-linecap="butt"/><path d="M249.41669,154.0521h6.16667" fill="none" stroke="#d8d8d8" stroke-width="2" stroke-linecap="round"/><path d="M255.25002,157.0521h-5.5" fill="none" stroke="#d8d8d8" stroke-width="2" stroke-linecap="round"/><path d="M249.58335,160.88544h2.66666" fill="none" stroke="#d8d8d8" stroke-width="2" stroke-linecap="round"/><path d="M267.22373,192.57922v-28.32509h14.05254v28.32509z" fill="#7cff67" stroke="#666666" stroke-width="2" stroke-linecap="butt"/><path d="M270.58333,169.88544h6" fill="none" stroke="#d8d8d8" stroke-width="2" stroke-linecap="round"/><path d="M273.41667,172.55209h-2.83333" fill="none" stroke="#d8d8d8" stroke-width="2" stroke-linecap="round"/><path d="M278.08333,176.21877h-8.5" fill="none" stroke="#d8d8d8" stroke-width="2" stroke-linecap="round"/><path d="M270.91668,178.38544h2.5" fill="none" stroke="#d8d8d8" stroke-width="2" stroke-linecap="round"/><path d="M276.41668,178.55209h1.66667" fill="none" stroke="#d8d8d8" stroke-width="2" stroke-linecap="round"/><path d="M270.41668,181.55209h7.5" fill="none" stroke="#d8d8d8" stroke-width="2" stroke-linecap="round"/><path d="M274.58335,184.71877h-4.83333" fill="none" stroke="#d8d8d8" stroke-width="2" stroke-linecap="round"/></g></g></svg>