<svg version="1.1" xmlns="http://www.w3.org/2000/svg" xmlns:xlink="http://www.w3.org/1999/xlink" width="493.66441" height="373.12422" viewBox="0,0,493.66441,373.12422"><defs><linearGradient x1="255.01087" y1="180" x2="266.33146" y2="180" gradientUnits="userSpaceOnUse" id="color-1"><stop offset="0" stop-color="#2b2e33" stop-opacity="0.6"/><stop offset="1" stop-color="#2b2e33" stop-opacity="0"/></linearGradient></defs><g transform="translate(6.83219,6.56211)"><g data-paper-data="{&quot;isPaintingLayer&quot;:true}" stroke-miterlimit="10" stroke-dasharray="" stroke-dashoffset="0" style="mix-blend-mode: normal"><g fill-rule="nonzero" stroke="none" stroke-linecap="butt" stroke-linejoin="miter"><path d="M470.82188,275.00628c0,6.79865 -5.52777,12.32882 -12.33118,12.32882h-109.77054c-6.79622,0 -12.3288,-5.53013 -12.3288,-12.32882l-0.01561,-29.82313h134.45194z" fill="#3d3d40" stroke-width="0"/><text transform="translate(366.75405,273.83161) scale(0.63104,0.63104)" font-size="40" xml:space="preserve" fill="#ffffff" fill-rule="nonzero" stroke="none" stroke-width="1" stroke-linecap="butt" stroke-linejoin="miter" stroke-miterlimit="10" stroke-dasharray="" stroke-dashoffset="0" font-family="Sans Serif" font-weight="normal" text-anchor="start" style="mix-blend-mode: normal"><tspan x="0" dy="0">幸福度順</tspan></text></g><g fill-rule="nonzero" stroke="none" stroke-linecap="butt" stroke-linejoin="miter"><path d="M470.82188,245.56096h-134.43052l-0.01561,-42.16739h134.45194z" fill="#3d3d40" stroke-width="0"/><text transform="translate(366.75405,232.04203) scale(0.63104,0.63104)" font-size="40" xml:space="preserve" fill="#ffffff" fill-rule="nonzero" stroke="none" stroke-width="1" stroke-linecap="butt" stroke-linejoin="miter" stroke-miterlimit="10" stroke-dasharray="" stroke-dashoffset="0" font-family="Sans Serif" font-weight="normal" text-anchor="start" style="mix-blend-mode: normal"><tspan x="0" dy="0">儲け順</tspan></text></g><path d="M349.89235,245.22427h107.42857" fill="none" fill-rule="nonzero" stroke="#252526" stroke-width="2.5" stroke-linecap="round" stroke-linejoin="miter"/><path d="M0.10832,0h254.90253v360h-254.90251z" fill-opacity="0.6" fill="#2b2e33" fill-rule="nonzero" stroke="none" stroke-width="1.00207" stroke-linecap="butt" stroke-linejoin="miter"/><path d="M266.33146,360h-11.32062v-360h11.32062z" fill="url(#color-1)" fill-rule="nonzero" stroke="none" stroke-width="1.00207" stroke-linecap="butt" stroke-linejoin="miter"/><path d="M0.10832,0h26.61286v360h-26.61284z" fill-opacity="0.4" fill="#818999" fill-rule="nonzero" stroke="none" stroke-width="1.00207" stroke-linecap="butt" stroke-linejoin="miter"/><path d="M470.88759,24.50371v17.49204c0,6.79865 -5.52777,12.32882 -12.33118,12.32882h-44.37543c-6.79622,0 -12.3288,-5.53013 -12.3288,-12.32882v-17.49442c0,-6.79865 5.53248,-12.32871 12.3288,-12.32871h44.37543c6.80336,0 12.33118,5.53251 12.33118,12.33114z" fill="#303032" fill-rule="nonzero" stroke="none" stroke-width="0" stroke-linecap="butt" stroke-linejoin="miter"/><text transform="translate(411.12825,40.82108) scale(0.63104,0.63104)" font-size="40" xml:space="preserve" fill="#ffffff" fill-rule="nonzero" stroke="none" stroke-width="1" stroke-linecap="butt" stroke-linejoin="miter" stroke-miterlimit="10" stroke-dasharray="" stroke-dashoffset="0" font-family="Sans Serif" font-weight="normal" text-anchor="start" style="mix-blend-mode: normal"><tspan x="0" dy="0">戻る</tspan></text><path d="M470.82188,84.1299l0.00581,29.82086h-134.49077l0.05444,-29.82324c0,-6.79865 5.53248,-12.32871 12.3288,-12.32871h109.77054c6.80336,0 12.33118,5.53251 12.33118,12.33114z" fill="#3d3d40" fill-rule="nonzero" stroke="none" stroke-width="0" stroke-linecap="butt" stroke-linejoin="miter"/><text transform="translate(345.66743,100.44727) scale(0.63104,0.63104)" font-size="40" xml:space="preserve" fill="#ffffff" fill-rule="nonzero" stroke="none" stroke-width="1" stroke-linecap="butt" stroke-linejoin="miter" stroke-miterlimit="10" stroke-dasharray="" stroke-dashoffset="0" font-family="Sans Serif" font-weight="normal" text-anchor="start" style="mix-blend-mode: normal"><tspan x="0" dy="0">並び替え</tspan></text><g fill-rule="nonzero" stroke="none" stroke-width="1" stroke-linecap="butt" stroke-linejoin="miter"><path d="M466.99285,89.5962c0.0043,0.88327 -0.34579,1.73137 -0.97188,2.35442l-5.36589,5.36589c-1.30734,1.29623 -3.41519,1.29623 -4.72253,0l-5.3522,-5.36589c-0.62982,-0.62166 -0.98472,-1.46947 -0.98557,-2.35442c0.00254,-0.88595 0.35132,-1.7358 0.97188,-2.36811c0.39697,-0.32852 0.98557,-0.97188 7.734,-0.97188c6.74843,0 7.3781,0.62967 7.72031,0.97188c0.6256,0.62898 0.97527,1.48099 0.97188,2.36811z" fill="#231f20"/><path d="M458.30063,96.91955c-0.51408,-0.00445 -1.00577,-0.21096 -1.36885,-0.57492l-5.39327,-5.36589c-0.73708,-0.76373 -0.73708,-1.97397 0,-2.7377c0.76656,-0.76656 12.74399,-0.76656 13.51054,0c0.73708,0.76373 0.73708,1.97397 0,2.7377l-5.36589,5.36589c-0.36644,0.36729 -0.86371,0.57407 -1.38254,0.57492z" fill="#ffffff"/></g><g fill-rule="nonzero" stroke="none" stroke-linecap="butt" stroke-linejoin="miter"><path d="M470.82188,161.9745h-134.43052l-0.01561,-42.16739h134.45194z" fill="#3d3d40" stroke-width="0"/><text transform="translate(366.75405,148.45557) scale(0.63104,0.63104)" font-size="40" xml:space="preserve" fill="#ffffff" fill-rule="nonzero" stroke="none" stroke-width="1" stroke-linecap="butt" stroke-linejoin="miter" stroke-miterlimit="10" stroke-dasharray="" stroke-dashoffset="0" font-family="Sans Serif" font-weight="normal" text-anchor="start" style="mix-blend-mode: normal"><tspan x="0" dy="0">追加順</tspan></text></g><g fill-rule="nonzero" stroke="none" stroke-linecap="butt" stroke-linejoin="miter"><path d="M470.82188,203.77319h-134.43052l-0.01561,-42.16739h134.45194z" fill="#3d3d40" stroke-width="0"/><text transform="translate(366.75405,190.25426) scale(0.63104,0.63104)" font-size="40" xml:space="preserve" fill="#ffffff" fill-rule="nonzero" stroke="none" stroke-width="1" stroke-linecap="butt" stroke-linejoin="miter" stroke-miterlimit="10" stroke-dasharray="" stroke-dashoffset="0" font-family="Sans Serif" font-weight="normal" text-anchor="start" style="mix-blend-mode: normal"><tspan x="0" dy="0">建築費順</tspan></text></g><g fill="none" fill-rule="nonzero" stroke="#252526" stroke-width="2.5" stroke-linecap="round" stroke-linejoin="miter"><path d="M349.89235,161.85213h107.42857"/><path d="M349.89234,203.65082h107.42857"/></g><path d="M-6.58218,366.31211v-372.62422h493.16441v372.62422z" fill="none" fill-rule="nonzero" stroke="#000000" stroke-width="0.5" stroke-linecap="butt" stroke-linejoin="miter"/><text transform="translate(443.09489,139.01863) scale(0.29146,0.29146)" font-size="40" xml:space="preserve" fill="#cccccc" fill-rule="nonzero" stroke="none" stroke-width="1" stroke-linecap="butt" stroke-linejoin="miter" stroke-miterlimit="10" stroke-dasharray="" stroke-dashoffset="0" font-family="Sans Serif" font-weight="normal" text-anchor="start" style="mix-blend-mode: normal"><tspan x="0" dy="0">標準</tspan></text><g fill="none" fill-rule="nonzero" stroke="#bfbfbf" stroke-width="4" stroke-linecap="round" stroke-linejoin="miter"><path d="M353.06642,128.94794v18.28752"/><path d="M343.92266,138.0917h18.28751"/></g><g fill="#bfbfbf" fill-rule="nonzero" stroke="none" stroke-width="0" stroke-linecap="butt" stroke-linejoin="miter"><path d="M361.01289,190.05797l-10.33307,-10.33307l1.54996,-1.54996l10.33307,10.33307z"/><path d="M359.15564,174.29799c0.5181,0.51809 0.51799,1.35835 0,1.87633l-10.47654,10.47654c-0.5181,0.51809 -1.35825,0.51787 -1.87624,-0.0001l-4.34066,-4.34066c-0.5181,-0.51809 -0.5181,-1.35803 0,-1.87614l10.47644,-10.47644c0.51831,-0.51832 1.35814,-0.5182 1.87624,-0.0001l4.34064,4.34064z"/></g><g data-paper-data="{&quot;index&quot;:null}" stroke-width="1"><path d="M354.83976,215.31311c0.07655,-0.05102 0.20413,-0.02552 0.22965,0.07655l0.66341,2.7302c0,0 1.63301,1.19923 2.11783,2.04128c0.81652,1.40337 0.84202,2.55159 0.84202,2.55159c0,0 1.81162,0.53583 2.11783,1.99024c0.30618,1.4544 -0.81651,4.21011 -5.61348,5.15418c-4.79698,0.94409 -8.64986,-0.35723 -10.4615,-3.26603c-1.81162,-2.9088 1.04615,-6.37895 0.89305,-6.17482l-0.53583,-4.56733c-0.02552,-0.10207 0.10206,-0.17861 0.20411,-0.12759l3.08741,2.01576c0,0 1.14822,-0.43376 2.34745,-0.48479c0.71445,-0.05102 1.32682,0 1.91369,0.10207z" fill="#bfbfbf" fill-rule="evenodd" stroke="#bfbfbf" stroke-linecap="butt" stroke-linejoin="miter"/><path d="M363.31103,223.09544c-1.19923,0.9696 -3.03638,0.99512 -3.03638,0.99512" fill="#bfbfbf" fill-rule="evenodd" stroke="#bfbfbf" stroke-linecap="round" stroke-linejoin="round"/><path d="M362.97931,225.95321c-1.6075,0.12759 -2.60261,-0.35721 -2.60261,-0.35721" fill="#bfbfbf" fill-rule="evenodd" stroke="#bfbfbf" stroke-linecap="round" stroke-linejoin="round"/><path d="M342.82181,223.01888c0,0 2.19435,0.71445 3.08741,1.50543" fill="#bfbfbf" fill-rule="evenodd" stroke="#bfbfbf" stroke-linecap="round" stroke-linejoin="round"/><path d="M345.98577,225.41739c-1.09719,0.43376 -2.98535,0.15309 -2.98535,0.15309" fill="#bfbfbf" fill-rule="evenodd" stroke="#bfbfbf" stroke-linecap="round" stroke-linejoin="round"/><g fill="none" fill-rule="nonzero" stroke="none" stroke-linecap="butt" stroke-linejoin="miter" font-family="sans-serif" font-weight="normal" font-size="12" text-anchor="start"/><g fill="none" fill-rule="nonzero" stroke="none" stroke-linecap="butt" stroke-linejoin="miter" font-family="sans-serif" font-weight="normal" font-size="12" text-anchor="start"/></g><path d="M353.06639,257.9863c0.77551,-1.76338 2.44921,-2.989 4.39384,-2.989c2.68092,0 4.85674,2.32251 4.85674,5.18415c0,5.63581 -9.25057,13.10337 -9.25057,13.10337c0,0 -9.25054,-7.28175 -9.25054,-13.10337c0,-2.86165 2.17581,-5.18415 4.85674,-5.18415c1.94464,0 3.61835,1.2256 4.39382,2.989z" fill="#bfbfbf" fill-rule="nonzero" stroke="none" stroke-width="0" stroke-linecap="butt" stroke-linejoin="round"/></g></g></svg>