<svg version="1.1" xmlns="http://www.w3.org/2000/svg" xmlns:xlink="http://www.w3.org/1999/xlink" width="185.84723" height="50.79543" viewBox="0,0,185.84723,50.79543"><g transform="translate(-149.67949,-154.60231)"><g data-paper-data="{&quot;isPaintingLayer&quot;:true}" fill-rule="nonzero" stroke="none" stroke-linecap="butt" stroke-linejoin="miter" stroke-miterlimit="10" stroke-dasharray="" stroke-dashoffset="0" style="mix-blend-mode: normal"><path d="M330.32055,190.99038c0,7.94488 -6.45972,14.40737 -14.41015,14.40737h-151.82352c-7.9421,0 -14.40738,-6.4625 -14.40738,-14.40737v-21.98069c0,-7.29123 5.4452,-13.33396 12.47988,-14.27892c0.63065,-0.08471 153.75101,-0.12845 153.75101,-0.12845c7.95043,0 14.41015,6.46527 14.41015,14.41015z" fill-opacity="0.50196" fill="#262626" stroke-width="1"/><text transform="translate(194.91339,175.79743) scale(0.35022,0.35022)" font-size="40" xml:space="preserve" fill="#ffffff" fill-rule="nonzero" stroke="none" stroke-width="1" stroke-linecap="butt" stroke-linejoin="miter" stroke-miterlimit="10" stroke-dasharray="" stroke-dashoffset="0" font-family="Sans Serif" font-weight="normal" text-anchor="start" style="mix-blend-mode: normal"><tspan x="0" dy="0">曲を終了</tspan><tspan x="0" dy="48px">していませんでした。</tspan></text><path d="M190.39261,170.32983v19.34202c0,4.61423 -3.75168,8.36752 -8.36913,8.36752h-18.86414c-4.61262,0 -8.36752,-3.75329 -8.36752,-8.36752v-19.34363c0,-4.2346 3.16247,-7.74411 7.24807,-8.29292c0.36627,-0.0492 19.98359,-0.0746 19.98359,-0.0746c4.61745,0 8.36913,3.75491 8.36913,8.36913z" fill="#2e2e2e" stroke-width="1"/><path d="M160.40938,180.00004c0,-6.72839 5.45444,-12.18283 12.18283,-12.18283c6.72839,0 12.18283,5.45444 12.18283,12.18283c0,6.72839 -5.45444,12.18283 -12.18283,12.18283c-6.72839,0 -12.18283,-5.45444 -12.18283,-12.18283z" fill="#ffffff" stroke-width="0"/><path d="M175.18932,172.18799v7.64731c0,1.31232 -1.06701,2.37978 -2.38025,2.37978h-0.60591c-1.31187,0 -2.37978,-1.06746 -2.37978,-2.37978v-7.64777c0,-1.20435 0.89943,-2.20249 2.06141,-2.35857c0.10417,-0.01399 0.92429,-0.02121 0.92429,-0.02121c1.31323,0 2.38025,1.06792 2.38025,2.38024z" fill="#2e2e2e" stroke-width="1"/><path d="M175.18932,187.02546v0.74182c0,1.31232 -1.06701,2.37979 -2.38025,2.37979h-0.60591c-1.31187,0 -2.37978,-1.06747 -2.37978,-2.37979v-0.74228c0,-1.20435 0.89943,-2.20248 2.06141,-2.35857c0.10417,-0.01399 0.92429,-0.02122 0.92429,-0.02122c1.31323,0 2.38025,1.06792 2.38025,2.38024z" fill="#2e2e2e" stroke-width="1"/></g></g></svg>