<svg version="1.1" xmlns="http://www.w3.org/2000/svg" xmlns:xlink="http://www.w3.org/1999/xlink" width="150.5023" height="150.59166" viewBox="0,0,150.5023,150.59166"><g transform="translate(9.37486,-3.64244)"><g data-paper-data="{&quot;isPaintingLayer&quot;:true}" fill-rule="nonzero" stroke="none" stroke-linecap="butt" stroke-linejoin="miter" stroke-miterlimit="10" stroke-dasharray="" stroke-dashoffset="0" style="mix-blend-mode: normal"><path d="M38.89262,34.44804c0,4.05879 -3.29178,7.34972 -7.34972,7.34972h-18.63101c-4.05879,0 -7.34886,-3.29178 -7.34886,-7.34972v-23.45674c0,-4.05879 3.29008,-7.34886 7.34886,-7.34886h18.63016c4.06049,0 7.34972,3.29008 7.34972,7.34886z" fill-opacity="0.91765" fill="#62686c" stroke-width="0"/><path d="M13.26883,21.68669l14.32163,-14.10279c0.57141,-0.57141 1.49538,-0.57141 2.06679,0l1.50681,1.50681c0.57141,0.57141 0.57141,1.49538 0,2.06679l-11.78143,11.56259l11.79358,11.56259c0.57141,0.57141 0.57141,1.49538 0,2.06679l-1.50681,1.50681c-0.57141,0.57141 -1.49539,0.57141 -2.0668,0l-14.32163,-14.10279c-0.57141,-0.57141 -0.57141,-1.49538 -0.01216,-2.06679z" data-paper-data="{&quot;index&quot;:null}" fill="#f2f7ff" stroke-width="1"/><path d="M141.12744,101.49188c0,4.27554 -3.46757,7.74222 -7.74222,7.74222c0,0 -0.9523,0 -1.91156,0c-2.92016,0 -133.10721,0 -133.10721,0c-4.27554,0 -7.74131,-3.46757 -7.74131,-7.74222v-24.70941c0,-4.27554 3.46578,-7.74131 7.74131,-7.74131h135.01787c4.27733,0 7.74222,3.46578 7.74222,7.74131z" fill-opacity="0.91765" fill="#62686c" stroke-width="0"/><text transform="translate(4.08128,96.92001) scale(0.67453,0.67453)" font-size="40" xml:space="preserve" fill="#f2f7ff" fill-rule="nonzero" stroke="none" stroke-width="1" stroke-linecap="butt" stroke-linejoin="miter" stroke-miterlimit="10" stroke-dasharray="" stroke-dashoffset="0" font-family="Sans Serif" font-weight="normal" text-anchor="start" style="mix-blend-mode: normal"><tspan x="0" dy="0">v4~</tspan></text><path d="M141.12744,146.49188c0,4.27554 -3.46757,7.74222 -7.74222,7.74222c0,0 -0.9523,0 -1.91156,0c-2.92016,0 -133.10721,0 -133.10721,0c-4.27554,0 -7.74131,-3.46757 -7.74131,-7.74222v-24.70941c0,-4.27554 3.46578,-7.74131 7.74131,-7.74131h135.01787c4.27733,0 7.74222,3.46578 7.74222,7.74131z" fill-opacity="0.91765" fill="#62686c" stroke-width="0"/><text transform="translate(4.08128,141.92001) scale(0.67453,0.67453)" font-size="40" xml:space="preserve" fill="#f2f7ff" fill-rule="nonzero" stroke="none" stroke-width="1" stroke-linecap="butt" stroke-linejoin="miter" stroke-miterlimit="10" stroke-dasharray="" stroke-dashoffset="0" font-family="Sans Serif" font-weight="normal" text-anchor="start" style="mix-blend-mode: normal"><tspan x="0" dy="0">v1~v3</tspan></text></g></g></svg>