<svg version="1.1" xmlns="http://www.w3.org/2000/svg" xmlns:xlink="http://www.w3.org/1999/xlink" width="486.85716" height="369.85716" viewBox="0,0,486.85716,369.85716"><defs><linearGradient x1="145.28571" y1="180" x2="157.71428" y2="180" gradientUnits="userSpaceOnUse" id="color-1"><stop offset="0" stop-color="#222324" stop-opacity="0.6"/><stop offset="1" stop-color="#222324" stop-opacity="0"/></linearGradient></defs><g transform="translate(3.42858,4.92858)"><g data-paper-data="{&quot;isPaintingLayer&quot;:true}" fill-rule="nonzero" stroke-linecap="butt" stroke-linejoin="miter" stroke-miterlimit="10" stroke-dasharray="" stroke-dashoffset="0" style="mix-blend-mode: normal"><path d="M-3.42858,364.92858v-369.85716h486.85716v369.85716z" fill-opacity="0.8" fill="#222324" stroke="none" stroke-width="NaN"/><path d="M-2.57143,364.92858v-369.85716h160.28572v369.85716z" fill="url(#color-1)" stroke="none" stroke-width="NaN"/><path d="M459.42858,364.92858v-369.85716h24v369.85716z" fill-opacity="0.70196" fill="#545759" stroke="none" stroke-width="NaN"/><text transform="translate(43.54539,31.69565) scale(0.58009,0.58009)" font-size="40" xml:space="preserve" fill="#f2f7ff" fill-rule="nonzero" stroke="#f2f7ff" stroke-width="1" stroke-linecap="butt" stroke-linejoin="miter" stroke-miterlimit="10" stroke-dasharray="" stroke-dashoffset="0" font-family="Sans Serif" font-weight="normal" text-anchor="start" style="mix-blend-mode: normal"><tspan x="0" dy="0">更新情報</tspan></text><g stroke="none"><path d="M38.89262,34.44804c0,4.05879 -3.29178,7.34972 -7.34972,7.34972h-18.63101c-4.05879,0 -7.34886,-3.29178 -7.34886,-7.34972v-23.45674c0,-4.05879 3.29008,-7.34886 7.34886,-7.34886h18.63016c4.06049,0 7.34972,3.29008 7.34972,7.34886z" fill-opacity="0.91765" fill="#62686c" stroke-width="0"/><path d="M13.26883,21.68669l14.32163,-14.10279c0.57141,-0.57141 1.49538,-0.57141 2.06679,0l1.50681,1.50681c0.57141,0.57141 0.57141,1.49538 0,2.06679l-11.78143,11.56259l11.79358,11.56259c0.57141,0.57141 0.57141,1.49538 0,2.06679l-1.50681,1.50681c-0.57141,0.57141 -1.49539,0.57141 -2.0668,0l-14.32163,-14.10279c-0.57141,-0.57141 -0.57141,-1.49538 -0.01216,-2.06679z" data-paper-data="{&quot;index&quot;:null}" fill="#f2f7ff" stroke-width="1"/></g></g></g></svg>