<svg version="1.1" xmlns="http://www.w3.org/2000/svg" xmlns:xlink="http://www.w3.org/1999/xlink" width="488.5" height="368.5" viewBox="0,0,488.5,368.5"><defs><linearGradient x1="114.74954" y1="255.00004" x2="365.25054" y2="255.00004" gradientUnits="userSpaceOnUse" id="color-1"><stop offset="0" stop-color="#d1d2d3"/><stop offset="1" stop-color="#a4a5a8"/></linearGradient><linearGradient x1="283.34709" y1="164.31383" x2="283.34709" y2="210.62666" gradientUnits="userSpaceOnUse" id="color-2"><stop offset="0" stop-color="#4b4b4d" stop-opacity="0"/><stop offset="1" stop-color="#4b4b4d"/></linearGradient><linearGradient x1="283.34709" y1="164.31383" x2="283.34709" y2="210.62666" gradientUnits="userSpaceOnUse" id="color-3"><stop offset="0" stop-color="#666666" stop-opacity="0"/><stop offset="1" stop-color="#666666" stop-opacity="0.30196"/></linearGradient><linearGradient x1="155.99544" y1="108.20047" x2="406.49644" y2="108.20047" gradientUnits="userSpaceOnUse" id="color-4"><stop offset="0" stop-color="#d1d2d3"/><stop offset="1" stop-color="#a4a5a8"/></linearGradient><linearGradient x1="196.65291" y1="164.31383" x2="196.65291" y2="210.62666" gradientUnits="userSpaceOnUse" id="color-5"><stop offset="0" stop-color="#4b4b4d" stop-opacity="0"/><stop offset="1" stop-color="#4b4b4d"/></linearGradient><linearGradient x1="196.65291" y1="164.31383" x2="196.65291" y2="210.62666" gradientUnits="userSpaceOnUse" id="color-6"><stop offset="0" stop-color="#666666" stop-opacity="0"/><stop offset="1" stop-color="#666666" stop-opacity="0.30196"/></linearGradient></defs><g transform="translate(4.25,4.24999)"><g data-paper-data="{&quot;isPaintingLayer&quot;:true}" fill-rule="nonzero" stroke-linejoin="miter" stroke-miterlimit="10" stroke-dasharray="" stroke-dashoffset="0" style="mix-blend-mode: normal"><path d="M-4.25,364.25001v-368.5h488.5v368.5z" fill="none" stroke="none" stroke-width="0" stroke-linecap="butt"/><path d="M365.25054,273.73102c0,4.752 -3.854,8.605 -8.605,8.605h-233.292c-4.752,0 -8.604,-3.854 -8.604,-8.605v-32.463c0,-4.752 3.852,-8.604 8.604,-8.604h233.291c4.754,0 8.605,3.852 8.605,8.604v32.463z" fill="url(#color-1)" stroke="#656565" stroke-width="2.5" stroke-linecap="butt"/><text transform="translate(204.37488,270.62968) scale(0.88581,0.8858)" font-size="40" xml:space="preserve" fill="#4f4f4f" fill-rule="nonzero" stroke="none" stroke-width="1" stroke-linecap="butt" stroke-linejoin="miter" stroke-miterlimit="10" stroke-dasharray="" stroke-dashoffset="0" font-family="&quot;ヒラギノ角ゴ Pro W3&quot;, &quot;Hiragino Kaku Gothic Pro&quot;, Osaka, &quot;メイリオ&quot;, Meiryo, &quot;ＭＳ Ｐゴシック&quot;, &quot;MS PGothic&quot;" font-weight="normal" text-anchor="start" style="mix-blend-mode: normal"><tspan x="0" dy="0">戻る</tspan></text><g stroke-width="2.5" stroke-linecap="butt"><path d="M324.00457,202.02163c0,4.752 -3.854,8.605 -8.605,8.605h-64.10596c-4.752,0 -8.604,-3.854 -8.604,-8.605v-107.55318c0,-4.752 3.852,-8.604 8.604,-8.604h64.10496c4.754,0 8.605,3.852 8.605,8.604z" fill="#d1d2d3" stroke="#656565"/><path d="M324.00457,202.02163c0,4.752 -3.854,8.605 -8.605,8.605h-64.10596c-4.752,0 -8.604,-3.854 -8.604,-8.605v-34.14379c0,-4.752 81.31396,-4.752 81.31396,0z" fill="url(#color-2)" stroke="url(#color-3)"/></g><text transform="translate(244.16359,195.95688) scale(0.39184,0.39184)" font-size="40" xml:space="preserve" fill="#d9e9ff" fill-rule="nonzero" stroke="none" stroke-width="1" stroke-linecap="butt" stroke-linejoin="miter" stroke-miterlimit="10" stroke-dasharray="" stroke-dashoffset="0" font-family="Sans Serif" font-weight="normal" text-anchor="start" style="mix-blend-mode: normal"><tspan x="0" dy="0">支出の管理</tspan></text><text transform="translate(267.64718,149.80224) scale(1.55298,1.4737)" font-size="40" xml:space="preserve" fill="#ff4d4d" fill-rule="nonzero" stroke="#ff4d4d" stroke-width="2" stroke-linecap="butt" stroke-linejoin="miter" stroke-miterlimit="10" stroke-dasharray="" stroke-dashoffset="0" font-family="Sans Serif" font-weight="normal" text-anchor="start" style="mix-blend-mode: normal"><tspan x="0" dy="0">$</tspan></text><g><g stroke-width="2.5" stroke-linecap="butt"><path d="M237.3104,202.02163c0,4.752 -3.854,8.605 -8.605,8.605h-64.10596c-4.752,0 -8.604,-3.854 -8.604,-8.605v-107.55318c0,-4.752 3.852,-8.604 8.604,-8.604h64.10496c4.754,0 8.605,3.852 8.605,8.604z" fill="url(#color-4)" stroke="#656565"/><path d="M237.3104,202.02163c0,4.752 -3.854,8.605 -8.605,8.605h-64.10596c-4.752,0 -8.604,-3.854 -8.604,-8.605v-34.14379c0,-4.752 81.31396,-4.752 81.31396,0z" fill="url(#color-5)" stroke="url(#color-6)"/></g><text transform="translate(179.28398,195.95689) scale(0.39184,0.39184)" font-size="40" xml:space="preserve" fill="#d9e9ff" fill-rule="nonzero" stroke="none" stroke-width="1" stroke-linecap="butt" stroke-linejoin="miter" stroke-miterlimit="10" stroke-dasharray="" stroke-dashoffset="0" font-family="Sans Serif" font-weight="normal" text-anchor="start" style="mix-blend-mode: normal"><tspan x="0" dy="0">投資</tspan></text><g fill="none" stroke-width="5" stroke-linecap="round"><g><path d="M173.88674,145.53634l18.49707,-17.94566l11.86038,4.40247l15.93397,-15.78529" stroke="#619def"/><path d="M220.3367,146.329h-47.08409v-31.23086" stroke="#666e7f"/></g></g></g></g></g></svg>