<svg version="1.1" xmlns="http://www.w3.org/2000/svg" xmlns:xlink="http://www.w3.org/1999/xlink" width="488.5" height="368.5" viewBox="0,0,488.5,368.5"><defs><linearGradient x1="114.74954" y1="180" x2="365.25054" y2="180" gradientUnits="userSpaceOnUse" id="color-1"><stop offset="0" stop-color="#d1d2d3"/><stop offset="1" stop-color="#a4a5a8"/></linearGradient><linearGradient x1="114.74954" y1="105" x2="365.25054" y2="105" gradientUnits="userSpaceOnUse" id="color-2"><stop offset="0" stop-color="#d1d2d3"/><stop offset="1" stop-color="#a4a5a8"/></linearGradient><linearGradient x1="114.74954" y1="255" x2="365.25054" y2="255" gradientUnits="userSpaceOnUse" id="color-3"><stop offset="0" stop-color="#d1d2d3"/><stop offset="1" stop-color="#a4a5a8"/></linearGradient></defs><g transform="translate(4.25,4.25)"><g data-paper-data="{&quot;isPaintingLayer&quot;:true}" fill-rule="nonzero" stroke-linecap="butt" stroke-linejoin="miter" stroke-miterlimit="10" stroke-dasharray="" stroke-dashoffset="0" style="mix-blend-mode: normal"><path d="M365.25054,198.731c0,4.752 -3.854,8.605 -8.605,8.605h-233.292c-4.752,0 -8.604,-3.854 -8.604,-8.605v-32.463c0,-4.752 3.852,-8.604 8.604,-8.604h233.291c4.754,0 8.605,3.852 8.605,8.604v32.463z" fill="url(#color-1)" stroke="#656565" stroke-width="2.5"/><text transform="translate(204.20356,195.62965) scale(0.88581,0.8858)" font-size="40" xml:space="preserve" fill="#4f4f4f" fill-rule="nonzero" stroke="none" stroke-width="1" stroke-linecap="butt" stroke-linejoin="miter" stroke-miterlimit="10" stroke-dasharray="" stroke-dashoffset="0" font-family="&quot;ヒラギノ角ゴ Pro W3&quot;, &quot;Hiragino Kaku Gothic Pro&quot;, Osaka, &quot;メイリオ&quot;, Meiryo, &quot;ＭＳ Ｐゴシック&quot;, &quot;MS PGothic&quot;" font-weight="normal" text-anchor="start" style="mix-blend-mode: normal"><tspan x="0" dy="0">設定</tspan></text><path d="M-4.25,364.25v-368.5h488.5v368.5z" fill="none" stroke="none" stroke-width="0"/><path d="M365.25054,123.731c0,4.752 -3.854,8.605 -8.605,8.605h-233.292c-4.752,0 -8.604,-3.854 -8.604,-8.605v-32.463c0,-4.752 3.852,-8.604 8.604,-8.604h233.291c4.754,0 8.605,3.852 8.605,8.604v32.463z" fill="url(#color-2)" stroke="#656565" stroke-width="2.5"/><text transform="translate(133.70356,120.62965) scale(0.88581,0.8858)" font-size="40" xml:space="preserve" fill="#4f4f4f" fill-rule="nonzero" stroke="none" stroke-width="1" stroke-linecap="butt" stroke-linejoin="miter" stroke-miterlimit="10" stroke-dasharray="" stroke-dashoffset="0" font-family="&quot;ヒラギノ角ゴ Pro W3&quot;, &quot;Hiragino Kaku Gothic Pro&quot;, Osaka, &quot;メイリオ&quot;, Meiryo, &quot;ＭＳ Ｐゴシック&quot;, &quot;MS PGothic&quot;" font-weight="normal" text-anchor="start" style="mix-blend-mode: normal"><tspan x="0" dy="0">ゲームを再開</tspan></text><path d="M365.25054,273.731c0,4.752 -3.854,8.605 -8.605,8.605h-233.292c-4.752,0 -8.604,-3.854 -8.604,-8.605v-32.463c0,-4.752 3.852,-8.604 8.604,-8.604h233.291c4.754,0 8.605,3.852 8.605,8.604v32.463z" fill="url(#color-3)" stroke="#656565" stroke-width="2.5"/><text transform="translate(115.70356,270.62965) scale(0.88581,0.8858)" font-size="40" xml:space="preserve" fill="#4f4f4f" fill-rule="nonzero" stroke="none" stroke-width="1" stroke-linecap="butt" stroke-linejoin="miter" stroke-miterlimit="10" stroke-dasharray="" stroke-dashoffset="0" font-family="&quot;ヒラギノ角ゴ Pro W3&quot;, &quot;Hiragino Kaku Gothic Pro&quot;, Osaka, &quot;メイリオ&quot;, Meiryo, &quot;ＭＳ Ｐゴシック&quot;, &quot;MS PGothic&quot;" font-weight="normal" text-anchor="start" style="mix-blend-mode: normal"><tspan x="0" dy="0">セーブして終了</tspan></text><path d="M452.36531,345.63247c-1.38866,0 -2.56568,-1.17501 -2.56568,-2.56568c0,-1.38866 1.17702,-2.56568 2.56568,-2.56568c1.38866,0 2.56568,1.17702 2.56568,2.56568c0,1.39067 -1.17702,2.56568 -2.56568,2.56568z" data-paper-data="{&quot;noHover&quot;:false,&quot;origItem&quot;:[&quot;Path&quot;,{&quot;applyMatrix&quot;:true,&quot;segments&quot;:[[[454.88098,343.06679],[0,1.39067],[0,-1.38866]],[[452.3653,340.55111],[1.38866,0],[-1.38866,0]],[[449.84962,343.06679],[0,-1.38866],[0,1.39067]],[[452.3653,345.58247],[-1.38866,0],[1.38866,0]]],&quot;closed&quot;:true,&quot;fillColor&quot;:[0,0,0,1]}]}" fill-opacity="0.01961" fill="#b5b5b5" stroke="none" stroke-width="0.5"/><path d="M454.39206,336.82552l-0.00336,2.26498h-4.04679l-0.01689,-6.04485l2.04028,-0.0916c2.22185,0 3.97659,-1.74313 3.97659,-3.96297c0,-2.22185 -1.75474,-3.98723 -3.97659,-3.98723c-2.22185,0 -3.97659,1.76537 -3.97659,3.98723l-4.12322,-0.01833c0,-4.43768 3.66215,-8.094 8.09981,-8.094c4.43768,0 8.09981,3.65633 8.09981,8.094c0,3.74536 -2.60543,6.95517 -6.07305,7.85277z" data-paper-data="{&quot;noHover&quot;:false,&quot;origItem&quot;:[&quot;Path&quot;,{&quot;applyMatrix&quot;:true,&quot;segments&quot;:[[[460.41549,328.97895],[0,3.74536],[0,-4.43766]],[[452.36529,320.92875],[4.43768,0],[-4.43766,0]],[[444.31509,328.97895],[0,-4.43768],[0,0]],[[448.34019,328.97895],[0,0],[0,-2.22185]],[[452.36529,324.95385],[-2.22185,0],[2.22185,0]],[[456.39039,328.97895],[0,-2.22185],[0,2.21984]],[[452.36529,333.00405],[2.22185,0],[0,0]],[450.35275,333.00405],[450.35275,339.04169],[454.37784,339.04169],[[454.37784,336.77758],[0,0],[3.46762,-0.8976]]],&quot;closed&quot;:true,&quot;fillColor&quot;:[0,0,0,1]}]}" fill-opacity="0.01961" fill="#b5b5b5" stroke="none" stroke-width="0.5"/></g></g></svg>