<svg version="1.1" xmlns="http://www.w3.org/2000/svg" xmlns:xlink="http://www.w3.org/1999/xlink" width="180.64107" height="50.79543" viewBox="0,0,180.64107,50.79543"><g transform="translate(-149.67951,-154.60235)"><g data-paper-data="{&quot;isPaintingLayer&quot;:true}" fill-rule="nonzero" stroke="none" stroke-linecap="butt" stroke-linejoin="miter" stroke-miterlimit="10" stroke-dasharray="" stroke-dashoffset="0" style="mix-blend-mode: normal"><path d="M296.24451,190.99041c0,7.94488 -6.45972,14.40737 -14.41015,14.40737h-117.74746c-7.9421,0 -14.40738,-6.4625 -14.40738,-14.40737v-21.98069c0,-7.29123 5.4452,-13.33396 12.47988,-14.27892c0.63065,-0.08471 119.67495,-0.12845 119.67495,-0.12845c7.95043,0 14.41015,6.46527 14.41015,14.41015z" fill-opacity="0.50196" fill="#262626" stroke-width="1"/><path d="M330.32059,190.99041c0,7.94488 -6.45972,14.40737 -14.41015,14.40737h-2.96343c-7.9421,0 -14.40738,-6.4625 -14.40738,-14.40737v-21.98069c0,-7.29123 5.4452,-13.33396 12.47988,-14.27892c0.63065,-0.08471 4.89092,-0.12845 4.89092,-0.12845c7.95043,0 14.41015,6.46527 14.41015,14.41015z" fill-opacity="0.50196" fill="#262626" stroke-width="1"/><g fill="#ffffff" stroke-width="1"><path d="M307.3555,172.92595v14.14922h14.14922v-5.05329h2.02132v4.67429c0,1.32497 -1.07534,2.40032 -2.40032,2.40032h-13.39122c-1.32377,0 -2.40032,-1.07534 -2.40032,-2.40032v-13.39122c0,-1.32377 1.07655,-2.40032 2.40032,-2.40032h4.67429v2.02132z"/><path d="M323.52601,177.97825h-2.02132v-3.62423l-8.38139,8.38137l-1.4291,-1.42907l8.38142,-8.38137h-3.62422v-2.02132h7.07461z"/></g><text transform="translate(194.91341,175.79744) scale(0.35022,0.35022)" font-size="40" xml:space="preserve" fill="#ffffff" fill-rule="nonzero" stroke="none" stroke-width="1" stroke-linecap="butt" stroke-linejoin="miter" stroke-miterlimit="10" stroke-dasharray="" stroke-dashoffset="0" font-family="Sans Serif" font-weight="normal" text-anchor="start" style="mix-blend-mode: normal"><tspan x="0" dy="0">データを保存</tspan><tspan x="0" dy="48px">していません。</tspan></text><path d="M190.39263,170.32983v19.34202c0,4.61423 -3.75168,8.36752 -8.36913,8.36752h-18.86414c-4.61262,0 -8.36752,-3.75329 -8.36752,-8.36752v-19.34363c0,-4.2346 3.16247,-7.74411 7.24807,-8.29292c0.36627,-0.0492 19.98359,-0.0746 19.98359,-0.0746c4.61745,0 8.36913,3.75491 8.36913,8.36913z" fill="#2e2e2e" stroke-width="1"/><path d="M160.40938,180.00004c0,-6.72839 5.45444,-12.18283 12.18283,-12.18283c6.72839,0 12.18283,5.45444 12.18283,12.18283c0,6.72839 -5.45444,12.18283 -12.18283,12.18283c-6.72839,0 -12.18283,-5.45444 -12.18283,-12.18283z" fill="#ffffff" stroke-width="0"/><path d="M175.18934,172.188v7.64731c0,1.31232 -1.06701,2.37978 -2.38025,2.37978h-0.60591c-1.31187,0 -2.37978,-1.06746 -2.37978,-2.37978v-7.64777c0,-1.20435 0.89943,-2.20249 2.06141,-2.35857c0.10417,-0.01399 0.92429,-0.02121 0.92429,-0.02121c1.31323,0 2.38025,1.06792 2.38025,2.38024z" fill="#2e2e2e" stroke-width="1"/><path d="M175.18934,187.02547v0.74182c0,1.31232 -1.06701,2.37979 -2.38025,2.37979h-0.60591c-1.31187,0 -2.37978,-1.06747 -2.37978,-2.37979v-0.74228c0,-1.20435 0.89943,-2.20249 2.06141,-2.35857c0.10417,-0.01399 0.92429,-0.02121 0.92429,-0.02121c1.31323,0 2.38025,1.06792 2.38025,2.38024z" fill="#2e2e2e" stroke-width="1"/></g></g></svg>