<svg version="1.1" xmlns="http://www.w3.org/2000/svg" xmlns:xlink="http://www.w3.org/1999/xlink" width="488.5" height="368.5" viewBox="0,0,488.5,368.5"><defs><linearGradient x1="114.74954" y1="54.84089" x2="365.25054" y2="54.84089" gradientUnits="userSpaceOnUse" id="color-1"><stop offset="0" stop-color="#d1d2d3"/><stop offset="1" stop-color="#a4a5a8"/></linearGradient></defs><g transform="translate(4.25,4.24998)"><g data-paper-data="{&quot;isPaintingLayer&quot;:true}" fill-rule="nonzero" stroke-linecap="butt" stroke-linejoin="miter" stroke-miterlimit="10" stroke-dasharray="" stroke-dashoffset="0" style="mix-blend-mode: normal"><path d="M-4.25,364.25002v-368.5h488.5v368.5z" fill="none" stroke="none" stroke-width="0"/><path d="M452.36531,345.63249c-1.38866,0 -2.56568,-1.17501 -2.56568,-2.56568c0,-1.38866 1.17702,-2.56568 2.56568,-2.56568c1.38866,0 2.56568,1.17702 2.56568,2.56568c0,1.39067 -1.17702,2.56568 -2.56568,2.56568z" data-paper-data="{&quot;noHover&quot;:false,&quot;origItem&quot;:[&quot;Path&quot;,{&quot;applyMatrix&quot;:true,&quot;segments&quot;:[[[454.88098,343.06679],[0,1.39067],[0,-1.38866]],[[452.3653,340.55111],[1.38866,0],[-1.38866,0]],[[449.84962,343.06679],[0,-1.38866],[0,1.39067]],[[452.3653,345.58247],[-1.38866,0],[1.38866,0]]],&quot;closed&quot;:true,&quot;fillColor&quot;:[0,0,0,1]}]}" fill-opacity="0.01961" fill="#b5b5b5" stroke="none" stroke-width="0.5"/><path d="M-4.25,364.25002v-368.5h488.5v368.5z" fill="none" stroke="none" stroke-width="0"/><path d="M365.25054,73.57187c0,4.752 -3.854,8.605 -8.605,8.605h-233.292c-4.752,0 -8.604,-3.854 -8.604,-8.605v-8.463c0,-4.752 3.852,-8.604 8.604,-8.604h233.291c4.754,0 8.605,3.852 8.605,8.604v8.463z" fill="url(#color-1)" stroke="#656565" stroke-width="2.5"/><text transform="translate(218.60647,76.75887) scale(0.53484,0.53483)" font-size="40" xml:space="preserve" fill="#4f4f4f" fill-rule="nonzero" stroke="none" stroke-width="1" stroke-linecap="butt" stroke-linejoin="miter" stroke-miterlimit="10" stroke-dasharray="" stroke-dashoffset="0" font-family="&quot;ヒラギノ角ゴ Pro W3&quot;, &quot;Hiragino Kaku Gothic Pro&quot;, Osaka, &quot;メイリオ&quot;, Meiryo, &quot;ＭＳ Ｐゴシック&quot;, &quot;MS PGothic&quot;" font-weight="normal" text-anchor="start" style="mix-blend-mode: normal"><tspan x="0" dy="0">戻る</tspan></text></g></g></svg>