<svg version="1.1" xmlns="http://www.w3.org/2000/svg" xmlns:xlink="http://www.w3.org/1999/xlink" width="281.57253" height="561.53796" viewBox="0,0,281.57253,561.53796"><g transform="translate(-158.94737,-1.28224)"><g data-paper-data="{&quot;isPaintingLayer&quot;:true}" stroke-linejoin="miter" stroke-miterlimit="10" stroke-dasharray="" stroke-dashoffset="0" style="mix-blend-mode: normal"><text transform="translate(161.52153,210.16828) scale(0.36638,0.36638)" font-size="40" xml:space="preserve" fill="#bfbfbf" fill-rule="nonzero" stroke="none" stroke-width="1" stroke-linecap="butt" stroke-linejoin="miter" stroke-miterlimit="10" stroke-dasharray="" stroke-dashoffset="0" font-family="Sans Serif" font-weight="normal" text-anchor="start" style="mix-blend-mode: normal"><tspan x="0" dy="0">パッケージ版への移行による追加変更</tspan><tspan x="0" dy="48px">・サウンドレコーダー追加</tspan><tspan x="0" dy="48px"> </tspan><tspan x="0" dy="48px">セーブせず終了したときと</tspan><tspan x="0" dy="48px">サウンドレコーダーで曲を止めずに</tspan><tspan x="0" dy="48px">終了したときの通知を追加</tspan><tspan x="0" dy="48px">コードに保存を削除</tspan></text><text transform="translate(161.59569,399.96429) scale(0.36638,0.36638)" font-size="40" xml:space="preserve" fill="#bfbfbf" fill-rule="nonzero" stroke="none" stroke-width="1" stroke-linecap="butt" stroke-linejoin="miter" stroke-miterlimit="10" stroke-dasharray="" stroke-dashoffset="0" font-family="Sans Serif" font-weight="normal" text-anchor="start" style="mix-blend-mode: normal"><tspan x="0" dy="0">パッケージ版への移行による変更</tspan><tspan x="0" dy="48px">・チャット機能削除</tspan><tspan x="0" dy="48px">・イベント機能削除</tspan><tspan x="0" dy="48px">・サーバーに保存を</tspan><tspan x="0" dy="48px">　ファイルに保存に変更し、</tspan><tspan x="0" dy="48px">　パソコンに保存するように変更</tspan><tspan x="0" dy="48px">・内部的なスプライト・スクリプト削除</tspan><tspan x="0" dy="48px">・一部の通知削除 </tspan><tspan x="0" dy="48px"> </tspan><tspan x="0" dy="48px">時刻表示追加</tspan></text><g fill="#ffffff" stroke="none" stroke-linecap="butt"><text transform="translate(372.29335,370.96752) scale(0.30375,0.30375)" font-size="40" xml:space="preserve" fill="#ffffff" fill-rule="nonzero" stroke="none" stroke-width="1" stroke-linecap="butt" stroke-linejoin="miter" stroke-miterlimit="10" stroke-dasharray="" stroke-dashoffset="0" font-family="Sans Serif" font-weight="normal" text-anchor="start" style="mix-blend-mode: normal"><tspan x="0" dy="0">3,712</tspan></text><g fill-rule="evenodd" stroke-width="0"><path d="M353.48759,360.28216h1.34763c0.11012,0 0.21571,0.04381 0.29361,0.12184l0.73693,0.73801c0.11769,0.11786 0.27727,0.18408 0.44372,0.18408h1.65287c0.16645,0 0.32604,-0.06621 0.44373,-0.18408l0.73692,-0.73801c0.07791,-0.07802 0.18349,-0.12184 0.29362,-0.12184h12.06829c0.22924,0 0.41512,0.18617 0.41512,0.4159v5.21961c0,0.22974 -0.18588,0.4159 -0.41512,0.4159h-12.06829c-0.16645,0 -0.32603,0.06621 -0.44372,0.18408l-0.73692,0.73801c-0.07791,0.07802 -0.1835,0.12184 -0.29362,0.12184h-1.65287c-0.11012,0 -0.21571,-0.04381 -0.29362,-0.12184l-0.73692,-0.73801c-0.11769,-0.11786 -0.27727,-0.18408 -0.44373,-0.18408h-1.34763c-0.22924,0 -0.41512,-0.18616 -0.41512,-0.4159v-5.21961c0,-0.22974 0.18588,-0.4159 0.41512,-0.4159z"/><path d="M353.48759,367.2676h1.34763c0.11012,0 0.21571,0.04381 0.29361,0.12184l0.73693,0.73801c0.11769,0.11786 0.27727,0.18408 0.44372,0.18408h1.65287c0.16645,0 0.32604,-0.06621 0.44373,-0.18408l0.73692,-0.73801c0.07791,-0.07802 0.18349,-0.12184 0.29362,-0.12184h7.74622c0.22924,0 0.41513,0.18616 0.41513,0.4159v5.21961c0,0.22974 -0.18589,0.4159 -0.41513,0.4159h-7.74622c-0.16645,0 -0.32603,0.06621 -0.44372,0.18408l-0.73692,0.73801c-0.07791,0.07802 -0.1835,0.12183 -0.29362,0.12183h-1.65287c-0.11012,0 -0.21571,-0.04381 -0.29362,-0.12183l-0.73692,-0.73801c-0.11769,-0.11786 -0.27727,-0.18408 -0.44373,-0.18408h-1.34763c-0.22924,0 -0.41512,-0.18616 -0.41512,-0.4159v-5.21961c0,-0.22974 0.18588,-0.4159 0.41512,-0.4159z"/></g></g><g fill-rule="nonzero"><text transform="translate(161.59569,374.60652) scale(0.607,0.607)" font-size="40" xml:space="preserve" fill="#ffffff" fill-rule="nonzero" stroke="none" stroke-width="1" stroke-linecap="butt" stroke-linejoin="miter" stroke-miterlimit="10" stroke-dasharray="" stroke-dashoffset="0" font-family="Sans Serif" font-weight="normal" text-anchor="start" style="mix-blend-mode: normal"><tspan x="0" dy="0">v1 - 23/8/6</tspan></text><path d="M344.67942,381.89052h-183.15789" fill="none" stroke="#555962" stroke-width="5" stroke-linecap="round"/></g><g fill="#ffffff" stroke="none" stroke-linecap="butt"><text transform="translate(372.21919,181.17151) scale(0.30375,0.30375)" font-size="40" xml:space="preserve" fill="#ffffff" fill-rule="nonzero" stroke="none" stroke-width="1" stroke-linecap="butt" stroke-linejoin="miter" stroke-miterlimit="10" stroke-dasharray="" stroke-dashoffset="0" font-family="Sans Serif" font-weight="normal" text-anchor="start" style="mix-blend-mode: normal"><tspan x="0" dy="0">3,791</tspan></text><g fill-rule="evenodd" stroke-width="0"><path d="M353.41343,170.48615h1.34763c0.11012,0 0.21571,0.04381 0.29361,0.12184l0.73693,0.73801c0.11769,0.11786 0.27727,0.18408 0.44372,0.18408h1.65287c0.16645,0 0.32604,-0.06621 0.44373,-0.18408l0.73692,-0.73801c0.07791,-0.07802 0.18349,-0.12184 0.29362,-0.12184h12.06829c0.22924,0 0.41512,0.18617 0.41512,0.4159v5.21961c0,0.22974 -0.18588,0.4159 -0.41512,0.4159h-12.06829c-0.16645,0 -0.32603,0.06621 -0.44372,0.18408l-0.73692,0.73801c-0.07791,0.07802 -0.1835,0.12184 -0.29362,0.12184h-1.65287c-0.11012,0 -0.21571,-0.04381 -0.29362,-0.12184l-0.73692,-0.73801c-0.11769,-0.11786 -0.27727,-0.18408 -0.44373,-0.18408h-1.34763c-0.22924,0 -0.41512,-0.18616 -0.41512,-0.4159v-5.21961c0,-0.22974 0.18588,-0.4159 0.41512,-0.4159z"/><path d="M353.41343,177.47159h1.34763c0.11012,0 0.21571,0.04381 0.29361,0.12184l0.73693,0.73801c0.11769,0.11786 0.27727,0.18408 0.44372,0.18408h1.65287c0.16645,0 0.32604,-0.06621 0.44373,-0.18408l0.73692,-0.73801c0.07791,-0.07802 0.18349,-0.12184 0.29362,-0.12184h7.74622c0.22924,0 0.41513,0.18616 0.41513,0.4159v5.21961c0,0.22974 -0.18589,0.4159 -0.41513,0.4159h-7.74622c-0.16645,0 -0.32603,0.06621 -0.44372,0.18408l-0.73692,0.73801c-0.07791,0.07802 -0.1835,0.12183 -0.29362,0.12183h-1.65287c-0.11012,0 -0.21571,-0.04381 -0.29362,-0.12183l-0.73692,-0.73801c-0.11769,-0.11786 -0.27727,-0.18408 -0.44373,-0.18408h-1.34763c-0.22924,0 -0.41512,-0.18616 -0.41512,-0.4159v-5.21961c0,-0.22974 0.18588,-0.4159 0.41512,-0.4159z"/></g></g><g fill-rule="nonzero"><text transform="translate(161.52153,184.81051) scale(0.607,0.607)" font-size="40" xml:space="preserve" fill="#ffffff" fill-rule="nonzero" stroke="none" stroke-width="1" stroke-linecap="butt" stroke-linejoin="miter" stroke-miterlimit="10" stroke-dasharray="" stroke-dashoffset="0" font-family="Sans Serif" font-weight="normal" text-anchor="start" style="mix-blend-mode: normal"><tspan x="0" dy="0">v2 - 23/8/7</tspan></text><path d="M344.60526,192.09451h-183.15789" fill="none" stroke="#555962" stroke-width="5" stroke-linecap="round"/></g><text transform="translate(161.52153,53.04451) scale(0.36638,0.36638)" font-size="40" xml:space="preserve" fill="#bfbfbf" fill-rule="nonzero" stroke="none" stroke-width="1" stroke-linecap="butt" stroke-linejoin="miter" stroke-miterlimit="10" stroke-dasharray="" stroke-dashoffset="0" font-family="Sans Serif" font-weight="normal" text-anchor="start" style="mix-blend-mode: normal"><tspan x="0" dy="0">お金の管理の作成</tspan><tspan x="0" dy="48px">　維持費、維持費を払うまでの日数が</tspan><tspan x="0" dy="48px">　表示されます。</tspan><tspan x="0" dy="48px">ヘルプを設定などのメニューから</tspan><tspan x="0" dy="48px">部屋の編集などのメニューの真ん中に移動</tspan></text><g fill="#ffffff" stroke="none" stroke-linecap="butt"><text transform="translate(372.21919,24.04774) scale(0.30375,0.30375)" font-size="40" xml:space="preserve" fill="#ffffff" fill-rule="nonzero" stroke="none" stroke-width="1" stroke-linecap="butt" stroke-linejoin="miter" stroke-miterlimit="10" stroke-dasharray="" stroke-dashoffset="0" font-family="Sans Serif" font-weight="normal" text-anchor="start" style="mix-blend-mode: normal"><tspan x="0" dy="0">3,811</tspan></text><g fill-rule="evenodd" stroke-width="0"><path d="M353.41343,13.36238h1.34763c0.11012,0 0.21571,0.04381 0.29361,0.12184l0.73693,0.73801c0.11769,0.11786 0.27727,0.18408 0.44372,0.18408h1.65287c0.16645,0 0.32604,-0.06621 0.44373,-0.18408l0.73692,-0.73801c0.07791,-0.07802 0.18349,-0.12184 0.29362,-0.12184h12.06829c0.22924,0 0.41512,0.18617 0.41512,0.4159v5.21961c0,0.22974 -0.18588,0.4159 -0.41512,0.4159h-12.06829c-0.16645,0 -0.32603,0.06621 -0.44372,0.18408l-0.73692,0.73801c-0.07791,0.07802 -0.1835,0.12184 -0.29362,0.12184h-1.65287c-0.11012,0 -0.21571,-0.04381 -0.29362,-0.12184l-0.73692,-0.73801c-0.11769,-0.11786 -0.27727,-0.18408 -0.44373,-0.18408h-1.34763c-0.22924,0 -0.41512,-0.18616 -0.41512,-0.4159v-5.21961c0,-0.22974 0.18588,-0.4159 0.41512,-0.4159z"/><path d="M353.41343,20.34782h1.34763c0.11012,0 0.21571,0.04381 0.29361,0.12184l0.73693,0.73801c0.11769,0.11786 0.27727,0.18408 0.44372,0.18408h1.65287c0.16645,0 0.32604,-0.06621 0.44373,-0.18408l0.73692,-0.73801c0.07791,-0.07802 0.18349,-0.12184 0.29362,-0.12184h7.74622c0.22924,0 0.41513,0.18616 0.41513,0.4159v5.21961c0,0.22974 -0.18589,0.4159 -0.41513,0.4159h-7.74622c-0.16645,0 -0.32603,0.06621 -0.44372,0.18408l-0.73692,0.73801c-0.07791,0.07802 -0.1835,0.12183 -0.29362,0.12183h-1.65287c-0.11012,0 -0.21571,-0.04381 -0.29362,-0.12183l-0.73692,-0.73801c-0.11769,-0.11786 -0.27727,-0.18408 -0.44373,-0.18408h-1.34763c-0.22924,0 -0.41512,-0.18616 -0.41512,-0.4159v-5.21961c0,-0.22974 0.18588,-0.4159 0.41512,-0.4159z"/></g></g><g fill-rule="nonzero"><text transform="translate(161.52153,27.68674) scale(0.607,0.607)" font-size="40" xml:space="preserve" fill="#ffffff" fill-rule="nonzero" stroke="none" stroke-width="1" stroke-linecap="butt" stroke-linejoin="miter" stroke-miterlimit="10" stroke-dasharray="" stroke-dashoffset="0" font-family="Sans Serif" font-weight="normal" text-anchor="start" style="mix-blend-mode: normal"><tspan x="0" dy="0">v3 - 23/8/8</tspan></text><path d="M344.60526,34.97074h-183.15789" fill="none" stroke="#555962" stroke-width="5" stroke-linecap="round"/></g></g></g></svg>