<svg version="1.1" xmlns="http://www.w3.org/2000/svg" xmlns:xlink="http://www.w3.org/1999/xlink" width="479.9777" height="360" viewBox="0,0,479.9777,360"><g transform="translate(-0.01115,0)"><g data-paper-data="{&quot;isPaintingLayer&quot;:true}" stroke-linejoin="miter" stroke-miterlimit="10" stroke-dasharray="" stroke-dashoffset="0" style="mix-blend-mode: normal"><path d="M0.01115,0h479.9777v360h-479.9777z" fill="#484a4a" fill-rule="nonzero" stroke="none" stroke-width="1.00207" stroke-linecap="butt"/><path d="M0.1083,0h151.9777v360h-151.9777z" fill="#2f3334" fill-rule="nonzero" stroke="none" stroke-width="1.00207" stroke-linecap="butt"/><text transform="translate(182.9,89.88483) scale(0.38005,0.38005)" font-size="40" xml:space="preserve" fill="#faffff" fill-rule="nonzero" stroke="none" stroke-width="1" stroke-linecap="butt" stroke-linejoin="miter" stroke-miterlimit="10" stroke-dasharray="" stroke-dashoffset="0" font-family="Serif" font-weight="normal" text-anchor="start" style="mix-blend-mode: normal"><tspan x="0" dy="0">データ名</tspan></text><path d="M0.1083,125.5h152.9777v39.75h-152.9777z" fill="#484a4a" fill-rule="nonzero" stroke="none" stroke-width="1.00207" stroke-linecap="butt"/><text transform="translate(16.125,152.675) scale(0.60156,0.60156)" font-size="40" xml:space="preserve" fill="#e7e7e7" fill-rule="nonzero" stroke="none" stroke-width="1" stroke-linecap="butt" stroke-linejoin="miter" stroke-miterlimit="10" stroke-dasharray="" stroke-dashoffset="0" font-family="Serif" font-weight="normal" text-anchor="start" style="mix-blend-mode: normal"><tspan x="0" dy="0">ゲーム</tspan></text><g fill-rule="nonzero" stroke="none" stroke-width="1.00207" stroke-linecap="butt"><path d="M0.01115,3.75h479.9777v35h-479.9777z" fill="#909191"/><path d="M0.01115,0h479.9777v35h-479.9777z" fill="#e6e8eb"/></g><text transform="translate(180.99767,24) scale(0.5,0.5)" font-size="40" xml:space="preserve" fill="#000000" fill-rule="nonzero" stroke="none" stroke-width="1" stroke-linecap="butt" stroke-linejoin="miter" stroke-miterlimit="10" stroke-dasharray="" stroke-dashoffset="0" font-family="Serif" font-weight="normal" text-anchor="start" style="mix-blend-mode: normal"><tspan x="0" dy="0">データを編集</tspan></text><g fill="none" fill-rule="nonzero" stroke="#000000" stroke-width="2.5" stroke-linecap="round"><path d="M25.52667,8.39556l-9.03895,9.03895"/><path d="M25.52667,26.60445l-9.03895,-9.03894"/></g><text transform="translate(182.9,247.38483) scale(0.38005,0.38005)" font-size="40" xml:space="preserve" fill="#faffff" fill-rule="nonzero" stroke="none" stroke-width="1" stroke-linecap="butt" stroke-linejoin="miter" stroke-miterlimit="10" stroke-dasharray="" stroke-dashoffset="0" font-family="Serif" font-weight="normal" text-anchor="start" style="mix-blend-mode: normal"><tspan x="0" dy="0">データの管理</tspan></text><g fill-rule="nonzero" stroke-width="1" stroke-linecap="butt"><path d="M139.39169,89.80097c0,2.96234 -2.40254,5.36426 -5.36426,5.36426h-118.0555c-2.96234,0 -5.36363,-2.40255 -5.36363,-5.36426v-29.60257c0,-2.96234 2.4013,-5.36362 5.36363,-5.36362h118.05488c2.96359,0 5.36426,2.40128 5.36426,5.36362v29.60258z" fill="#3c8528" stroke-opacity="0.4031" stroke="#ffffff"/><text transform="translate(19.428,81) scale(0.4631,0.5)" font-size="40" xml:space="preserve" fill="#d7d7d9" fill-rule="nonzero" stroke="none" stroke-width="1" stroke-linecap="butt" stroke-linejoin="miter" stroke-miterlimit="10" stroke-dasharray="" stroke-dashoffset="0" font-family="Serif" font-weight="normal" text-anchor="start" style="mix-blend-mode: normal"><tspan x="0" dy="0">保存して遊ぶ</tspan></text></g><g fill-rule="nonzero" stroke-width="1" stroke-linecap="butt"><path d="M450.19801,295.30144c0,2.96234 -2.40254,5.36426 -5.36426,5.36426h-118.05549c-2.96234,0 -5.36363,-2.40255 -5.36363,-5.36426v-29.60257c0,-2.96234 2.4013,-5.36362 5.36363,-5.36362h118.05487c2.96359,0 5.36426,2.40128 5.36426,5.36362v29.60258z" fill="#6d3d41" stroke-opacity="0.4031" stroke="#ffffff"/><text transform="translate(342.02038,286.50047) scale(0.44828,0.5)" font-size="40" xml:space="preserve" fill="#d7d7d9" fill-rule="nonzero" stroke="none" stroke-width="1" stroke-linecap="butt" stroke-linejoin="miter" stroke-miterlimit="10" stroke-dasharray="" stroke-dashoffset="0" font-family="Serif" font-weight="normal" text-anchor="start" style="mix-blend-mode: normal"><tspan x="0" dy="0">データを消去</tspan></text><path d="M325.28044,273.82438h15.09114c0.55801,0 0.99404,0.48719 0.93852,1.04863l-1.39586,14.11453c-0.1125,1.13761 -1.05921,2.00394 -2.18987,2.00394h-9.79669c-1.13066,0 -2.07738,-0.86633 -2.18988,-2.00394l-1.39586,-14.11453c-0.05553,-0.56144 0.3805,-1.04863 0.93852,-1.04863zM333.76921,284.9512v-6.35818c0,-0.52673 -0.42229,-0.95373 -0.9432,-0.95373c-0.52091,0 -0.94319,0.427 -0.94319,0.95373v6.35818c0,0.52673 0.42228,0.95373 0.94319,0.95373c0.52091,0 0.9432,-0.427 0.9432,-0.95373zM336.9132,284.9512v-6.35818c0,-0.52673 -0.42229,-0.95373 -0.9432,-0.95373c-0.52091,0 -0.94319,0.427 -0.94319,0.95373v6.35818c0,0.52673 0.42228,0.95373 0.94319,0.95373c0.52091,0 0.9432,-0.427 0.9432,-0.95373zM330.62522,284.9512v-6.35818c0,-0.52673 -0.42228,-0.95373 -0.94319,-0.95373c-0.52091,0 -0.9432,0.427 -0.9432,0.95373v6.35818c0,0.52673 0.42229,0.95373 0.9432,0.95373c0.52091,0 0.94319,-0.427 0.94319,-0.95373zM324.65165,274.7781h16.34873zM324.65165,273.50647h16.34873c0.69455,0 1.25759,0.56933 1.25759,1.27164c0,0.70231 -0.56304,1.27164 -1.25759,1.27164h-16.34873c-0.69455,0 -1.2576,-0.56933 -1.2576,-1.27164c0,-0.70231 0.56305,-1.27164 1.2576,-1.27164zM334.39801,273.82438v-1.58954c0,-0.17557 -0.14076,-0.31791 -0.3144,-0.31791h-2.51519c-0.17364,0 -0.3144,0.14234 -0.3144,0.31791v1.58954zM331.56842,270.00947h2.51519c1.21546,0 2.20079,0.99633 2.20079,2.22537v3.497h-6.91677v-3.497c0,-1.22904 0.98533,-2.22537 2.20079,-2.22537z" fill="#ffffff" stroke="none"/></g><g stroke-width="1" stroke-linecap="butt"><path d="M307.39169,295.41162c0,2.96234 -2.40254,5.36426 -5.36426,5.36426h-118.05549c-2.96234,0 -5.36363,-2.40255 -5.36363,-5.36426v-29.60257c0,-2.96234 2.4013,-5.36362 5.36363,-5.36362h118.05487c2.96359,0 5.36426,2.40128 5.36426,5.36362v29.60258z" fill="#313333" fill-rule="nonzero" stroke-opacity="0.4031" stroke="#ffffff"/><text transform="translate(201.91998,286.61065) scale(0.37668,0.5)" font-size="40" xml:space="preserve" fill="#d7d7d9" fill-rule="nonzero" stroke="none" stroke-width="1" stroke-linecap="butt" stroke-linejoin="miter" stroke-miterlimit="10" stroke-dasharray="" stroke-dashoffset="0" font-family="Serif" font-weight="normal" text-anchor="start" style="mix-blend-mode: normal"><tspan x="0" dy="0">ファイルに保存</tspan></text><g fill-rule="evenodd" stroke="none"><path d="M183.95704,271.37999c0,-0.83911 0.67817,-1.51934 1.49247,-1.51934h10.48283v3.54608c0,1.37515 1.09822,2.48993 2.46997,2.48993h3.51767v13.58793c0,0.82955 -0.68223,1.50206 -1.5006,1.50206h-14.96172c-0.82876,0 -1.5006,-0.67898 -1.5006,-1.51933z" fill="#ffffff"/><path d="M197.42924,269.86065l4.49074,4.527h-2.99538c-0.82586,0 -1.49535,-0.66798 -1.49535,-1.50743z" fill="#ffffff"/><path d="M192.4926,277.60056c0.1289,-0.12994 0.30077,-0.19492 0.47263,-0.19492c0.19336,0 0.36522,0.06498 0.49412,0.19492l2.74991,2.77211c0.19336,0.21657 0.25779,0.49811 0.15037,0.758c-0.10742,0.25988 -0.34374,0.41149 -0.62303,0.41149h-1.11714l-0.53709,3.91992c-0.04297,0.3032 -0.19335,0.58474 -0.42967,0.758c-0.23631,0.19492 -0.55858,0.28156 -0.83787,0.23823c-0.51561,-0.08446 -0.9238,-0.49811 -0.98825,-0.99623l-0.55857,-3.91992h-1.0527c-0.27929,0 -0.51561,-0.17327 -0.62303,-0.43315c-0.10742,-0.23822 -0.04296,-0.54143 0.15038,-0.73634z" fill="#313333"/></g></g><g stroke-width="1" stroke-linecap="butt"><path d="M307.39169,345.41162c0,2.96234 -2.40254,5.36426 -5.36426,5.36426h-118.05549c-2.96234,0 -5.36363,-2.40255 -5.36363,-5.36426v-29.60257c0,-2.96234 2.4013,-5.36362 5.36363,-5.36362h118.05487c2.96359,0 5.36426,2.40128 5.36426,5.36362v29.60258z" fill="#313333" fill-rule="nonzero" stroke-opacity="0.4031" stroke="#ffffff"/><text transform="translate(201.91998,336.61065) scale(0.37668,0.5)" font-size="40" xml:space="preserve" fill="#d7d7d9" fill-rule="nonzero" stroke="none" stroke-width="1" stroke-linecap="butt" stroke-linejoin="miter" stroke-miterlimit="10" stroke-dasharray="" stroke-dashoffset="0" font-family="Serif" font-weight="normal" text-anchor="start" style="mix-blend-mode: normal"><tspan x="0" dy="0">コードをコピー</tspan></text><g fill-rule="evenodd" stroke="none"><path d="M183.95704,321.37999c0,-0.83911 0.67817,-1.51934 1.49247,-1.51934h10.48283v3.54608c0,1.37515 1.09822,2.48993 2.46997,2.48993h3.51767v13.58793c0,0.82955 -0.68223,1.50206 -1.5006,1.50206h-14.96172c-0.82876,0 -1.5006,-0.67898 -1.5006,-1.51933z" fill="#ffffff"/><path d="M197.42924,319.86065l4.49074,4.527h-2.99538c-0.82586,0 -1.49535,-0.66798 -1.49535,-1.50743z" fill="#ffffff"/><path d="M192.4926,327.60056c0.1289,-0.12994 0.30077,-0.19492 0.47263,-0.19492c0.19336,0 0.36522,0.06498 0.49412,0.19492l2.74991,2.77211c0.19336,0.21657 0.25779,0.49811 0.15037,0.758c-0.10742,0.25988 -0.34374,0.41149 -0.62303,0.41149h-1.11714l-0.53709,3.91992c-0.04297,0.3032 -0.19335,0.58474 -0.42967,0.758c-0.23631,0.19492 -0.55858,0.28156 -0.83787,0.23823c-0.51561,-0.08446 -0.9238,-0.49811 -0.98825,-0.99623l-0.55857,-3.91992h-1.0527c-0.27929,0 -0.51561,-0.17327 -0.62303,-0.43315c-0.10742,-0.23822 -0.04296,-0.54143 0.15038,-0.73634z" fill="#313333"/></g></g></g></g></svg>