<svg version="1.1" xmlns="http://www.w3.org/2000/svg" xmlns:xlink="http://www.w3.org/1999/xlink" width="43.13887" height="43.31143" viewBox="0,0,43.13887,43.31143"><defs><linearGradient x1="87.93482" y1="337.62094" x2="193.27761" y2="337.62094" gradientUnits="userSpaceOnUse" id="color-1"><stop offset="0" stop-color="#d1d2d3"/><stop offset="1" stop-color="#a4a5a8"/></linearGradient></defs><g transform="translate(-131.18149,-323.95315)"><g data-paper-data="{&quot;isPaintingLayer&quot;:true}" stroke-miterlimit="10" stroke-dasharray="" stroke-dashoffset="0" style="mix-blend-mode: normal"><path d="M173.07036,331.69969v27.81956c0,3.58182 -2.91226,6.49533 -6.49657,6.49533h-27.64698c-3.58054,0 -6.49532,-2.91351 -6.49532,-6.49533v-27.82081c0,-3.58181 2.91475,-6.49529 6.49532,-6.49529h27.64698c3.5843,0 6.49657,2.91476 6.49657,6.49656z" data-paper-data="{&quot;index&quot;:null}" fill="url(#color-1)" fill-rule="nonzero" stroke="#666666" stroke-width="2.5" stroke-linecap="butt" stroke-linejoin="miter"/><g data-paper-data="{&quot;index&quot;:null}"><path d="M156.13501,330.91829c0.13437,-0.08958 0.35832,-0.04479 0.40311,0.13437l1.16455,4.79257c0,0 2.86658,2.10515 3.7176,3.58323c1.43329,2.46347 1.47808,4.47904 1.47808,4.47904c0,0 3.18012,0.9406 3.7176,3.49365c0.53748,2.55305 -1.43329,7.39041 -9.85388,9.04765c-8.42059,1.65724 -15.18394,-0.62707 -18.36405,-5.73317c-3.18012,-5.1061 1.83641,-11.19759 1.56766,-10.83927l-0.9406,-8.01748c-0.04479,-0.17916 0.17916,-0.31353 0.35832,-0.22395l5.41963,3.53844c0,0 2.01557,-0.76144 4.12071,-0.85102c1.25413,-0.08958 2.3291,0 3.35928,0.17916z" fill="#297ff8" fill-rule="evenodd" stroke="#297ff8" stroke-width="1.2" stroke-linecap="butt" stroke-linejoin="miter"/><path d="M162.76399,344.08666c0,0 3.09054,0.80623 3.62802,3.35928c0.53748,2.55305 -1.61245,7.16646 -9.94346,8.77891c-10.83927,2.23952 -15.99016,-4.21029 -12.98921,-8.95807c3.00095,-4.79257 8.15185,-0.71665 11.91424,-0.98539c3.22491,-0.22395 3.58323,-3.04575 7.39041,-2.19473z" fill="#ffffff" fill-rule="evenodd" stroke="#297ff8" stroke-width="1" stroke-linecap="butt" stroke-linejoin="miter"/><path d="M171.00542,344.57935c-2.10515,1.70203 -5.33005,1.74682 -5.33005,1.74682" fill="none" fill-rule="evenodd" stroke="#297ff8" stroke-width="1.2" stroke-linecap="round" stroke-linejoin="round"/><path d="M170.42314,349.59588c-2.82179,0.22395 -4.56862,-0.62707 -4.56862,-0.62707" fill="none" fill-rule="evenodd" stroke="#297ff8" stroke-width="1.2" stroke-linecap="round" stroke-linejoin="round"/><path d="M135.03875,344.44498c0,0 3.85197,1.25413 5.41963,2.64263" fill="none" fill-rule="evenodd" stroke="#297ff8" stroke-width="1.2" stroke-linecap="round" stroke-linejoin="round"/><path d="M140.59276,348.65528c-1.92599,0.76144 -5.24047,0.26874 -5.24047,0.26874" fill="none" fill-rule="evenodd" stroke="#297ff8" stroke-width="1.2" stroke-linecap="round" stroke-linejoin="round"/><g fill="none" fill-rule="nonzero" stroke="none" stroke-width="1" stroke-linecap="butt" stroke-linejoin="miter" font-family="sans-serif" font-weight="normal" font-size="12" text-anchor="start"/><g fill="none" fill-rule="nonzero" stroke="none" stroke-width="1" stroke-linecap="butt" stroke-linejoin="miter" font-family="sans-serif" font-weight="normal" font-size="12" text-anchor="start"/></g></g></g></svg>