<svg version="1.1" xmlns="http://www.w3.org/2000/svg" xmlns:xlink="http://www.w3.org/1999/xlink" width="329.6974" height="105.83172" viewBox="0,0,329.6974,105.83172"><defs><linearGradient x1="135.89012" y1="264.02884" x2="402.61073" y2="264.02884" gradientUnits="userSpaceOnUse" id="color-1"><stop offset="0" stop-color="#d1d2d3"/><stop offset="1" stop-color="#a4a5a8"/></linearGradient><linearGradient x1="278.3536" y1="247.60249" x2="300.46473" y2="247.60249" gradientUnits="userSpaceOnUse" id="color-2"><stop offset="0" stop-color="#b9babc"/><stop offset="1" stop-color="#b3b4b6"/></linearGradient><linearGradient x1="278.3536" y1="256.44694" x2="300.46473" y2="256.44694" gradientUnits="userSpaceOnUse" id="color-3"><stop offset="0" stop-color="#b9babc"/><stop offset="1" stop-color="#b3b4b6"/></linearGradient><linearGradient x1="278.3536" y1="265.29139" x2="300.46473" y2="265.29139" gradientUnits="userSpaceOnUse" id="color-4"><stop offset="0" stop-color="#b9babc"/><stop offset="1" stop-color="#b3b4b6"/></linearGradient><linearGradient x1="308.50729" y1="267.04575" x2="321.33871" y2="267.04575" gradientUnits="userSpaceOnUse" id="color-5"><stop offset="0" stop-color="#b9babc"/><stop offset="1" stop-color="#b3b4b6"/></linearGradient><linearGradient x1="308.50729" y1="272.17832" x2="321.33871" y2="272.17832" gradientUnits="userSpaceOnUse" id="color-6"><stop offset="0" stop-color="#b9babc"/><stop offset="1" stop-color="#b3b4b6"/></linearGradient><linearGradient x1="308.50729" y1="277.31089" x2="321.33871" y2="277.31089" gradientUnits="userSpaceOnUse" id="color-7"><stop offset="0" stop-color="#b9babc"/><stop offset="1" stop-color="#b3b4b6"/></linearGradient></defs><g transform="translate(-23,-231.33788)"><g data-paper-data="{&quot;isPaintingLayer&quot;:true}" fill-rule="nonzero" stroke-linejoin="miter" stroke-miterlimit="10" stroke-dasharray="" stroke-dashoffset="0" style="mix-blend-mode: normal"><g fill="none" stroke-width="5" stroke-linecap="round"><g><path d="M26.42929,286.72222l27.10678,-26.2987l17.38095,6.45166l23.35065,-23.13276" stroke="#619def"/><path d="M94.5,287.88383h-69v-45.76768" stroke="#666e7f"/></g></g><g><g stroke-linecap="butt"><path d="M351.44738,249.03669v70.43718c0,9.06892 -7.37364,16.44573 -16.44887,16.44573h-70.00022c-9.06569,0 -16.44569,-7.37681 -16.44569,-16.44573v-70.44036c0,-9.06888 7.37994,-16.44563 16.4457,-16.44563h70.00023c9.0752,0 16.44887,7.37996 16.44887,16.44884z" fill="url(#color-1)" stroke="#666666" stroke-width="2.5"/><path d="M351.44738,319.47385c0,9.06892 -7.37364,16.44573 -16.44887,16.44573h-70.00022c-9.06569,0 -16.44569,-7.37681 -16.44569,-16.44573v-7.9281c0,-9.06889 7.37994,-16.44563 16.4457,-16.44563h70.00023c9.0752,0 16.44887,7.37997 16.44887,16.44884z" fill="#ffffff" stroke="#666666" stroke-width="2.5"/><text transform="translate(251.38689,319.15477) scale(0.40842,0.40842)" font-size="40" xml:space="preserve" fill="#000000" fill-rule="nonzero" stroke="none" stroke-width="1" stroke-linecap="butt" stroke-linejoin="miter" stroke-miterlimit="10" stroke-dasharray="" stroke-dashoffset="0" font-family="Sans Serif" font-weight="normal" text-anchor="start" style="mix-blend-mode: normal"><tspan x="0" dy="0">別の棟へ移動</tspan></text><g fill="none" stroke="none" stroke-width="1" font-family="sans-serif" font-weight="normal" font-size="12" text-anchor="start"/></g><g><g><path d="M308.46032,239.546v46.86213c0,1.45544 -1.18337,2.63933 -2.63984,2.63933h-31.76932c-1.45493,0 -2.63931,-1.18388 -2.63931,-2.63933v-46.86262c0,-1.45544 1.18438,-2.63931 2.63931,-2.63931h31.76932c1.45645,0 2.63984,1.18438 2.63984,2.63982z" fill="#0c0098" stroke="none" stroke-width="0" stroke-linecap="butt"/><path d="M278.3536,247.60249h17.09926" fill="none" stroke="url(#color-2)" stroke-width="2.5" stroke-linecap="round"/><path d="M278.35361,256.44694h22.11112" fill="none" stroke="url(#color-3)" stroke-width="2.5" stroke-linecap="round"/><path d="M281.00694,265.29139h17.3941" fill="none" stroke="url(#color-4)" stroke-width="2.5" stroke-linecap="round"/></g><g stroke-width="1.5"><path d="M325.67289,262.67623v24.13703c0,0.84462 -0.68673,1.53164 -1.53194,1.53164h-18.43621c-0.84432,0 -1.53163,-0.68702 -1.53163,-1.53164v-24.13731c0,-0.84462 0.68731,-1.53163 1.53163,-1.53163h18.43621c0.8452,0 1.53194,0.68731 1.53194,1.53193z" fill="#005cb7" stroke="none" stroke-linecap="butt"/><path d="M318.43025,267.04575h-9.92296" fill="none" stroke="url(#color-5)" stroke-linecap="round"/><path d="M308.50729,272.17832h12.83142" fill="none" stroke="url(#color-6)" stroke-linecap="round"/><path d="M320.14112,277.31089h-10.09406" fill="none" stroke="url(#color-7)" stroke-linecap="round"/></g><path d="M269.52413,290.00825h61.1222" fill="none" stroke="#000d41" stroke-width="5" stroke-linecap="round"/></g></g></g></g></svg>