<svg version="1.1" xmlns="http://www.w3.org/2000/svg" xmlns:xlink="http://www.w3.org/1999/xlink" width="23.20678" height="23.39096" viewBox="0,0,23.20678,23.39096"><defs><radialGradient cx="240" cy="180" r="11.28059" gradientUnits="userSpaceOnUse" id="color-1"><stop offset="0" stop-color="#000000"/><stop offset="1" stop-color="#000000" stop-opacity="0"/></radialGradient></defs><g transform="translate(-228.39661,-168.30452)"><g data-paper-data="{&quot;isPaintingLayer&quot;:true}" fill-rule="nonzero" stroke-linecap="butt" stroke-linejoin="miter" stroke-miterlimit="10" stroke-dasharray="" stroke-dashoffset="0" style="mix-blend-mode: normal"><path d="M249.85339,180c0,5.49274 -4.41151,9.94548 -9.85339,9.94548c-5.44188,0 -9.85339,-4.45274 -9.85339,-9.94548c0,-5.49274 4.41151,-9.94548 9.85339,-9.94548c5.44188,0 9.85339,4.45274 9.85339,9.94548z" fill="#ffffff" stroke="#ffffff" stroke-width="3.5"/><path d="M228.71941,180c0,-6.23008 5.0505,-11.28059 11.28059,-11.28059c6.23008,0 11.28059,5.0505 11.28059,11.28059c0,6.23008 -5.0505,11.28059 -11.28059,11.28059c-6.23008,0 -11.28059,-5.0505 -11.28059,-11.28059z" fill="url(#color-1)" stroke="none" stroke-width="NaN"/><path d="M231.91279,180c0,-4.46644 3.62076,-8.08721 8.08721,-8.08721c4.46644,0 8.08721,3.62076 8.08721,8.08721c0,4.46644 -3.62076,8.08721 -8.08721,8.08721c-4.46644,0 -8.08721,-3.62076 -8.08721,-8.08721z" fill="#bd62f5" stroke="none" stroke-width="NaN"/></g></g></svg>