<svg version="1.1" xmlns="http://www.w3.org/2000/svg" xmlns:xlink="http://www.w3.org/1999/xlink" width="493.66441" height="373.12422" viewBox="0,0,493.66441,373.12422"><defs><linearGradient x1="255.01082" y1="180" x2="266.33144" y2="180" gradientUnits="userSpaceOnUse" id="color-1"><stop offset="0" stop-color="#2b2e33" stop-opacity="0.6"/><stop offset="1" stop-color="#2b2e33" stop-opacity="0"/></linearGradient></defs><g transform="translate(6.8322,6.56211)"><g data-paper-data="{&quot;isPaintingLayer&quot;:true}" fill-rule="nonzero" stroke-linecap="butt" stroke-linejoin="miter" stroke-miterlimit="10" stroke-dasharray="" stroke-dashoffset="0" style="mix-blend-mode: normal"><path d="M0.1083,0h254.90253v360h-254.90251z" fill-opacity="0.6" fill="#2b2e33" stroke="none" stroke-width="1.00207"/><path d="M266.33144,360h-11.32062v-360h11.32062z" fill="url(#color-1)" stroke="none" stroke-width="1.00207"/><path d="M0.1083,0h26.61286v360h-26.61284z" fill-opacity="0.4" fill="#818999" stroke="none" stroke-width="1.00207"/><path d="M470.88754,24.50371v17.49204c0,6.79865 -5.52777,12.32882 -12.33118,12.32882h-44.37543c-6.79622,0 -12.3288,-5.53013 -12.3288,-12.32882v-17.49442c0,-6.79865 5.53248,-12.32871 12.3288,-12.32871h44.37543c6.80336,0 12.33118,5.53251 12.33118,12.33114z" fill="#303032" stroke="none" stroke-width="0"/><text transform="translate(411.1282,40.82108) scale(0.63104,0.63104)" font-size="40" xml:space="preserve" fill="#ffffff" fill-rule="nonzero" stroke="none" stroke-width="1" stroke-linecap="butt" stroke-linejoin="miter" stroke-miterlimit="10" stroke-dasharray="" stroke-dashoffset="0" font-family="Sans Serif" font-weight="normal" text-anchor="start" style="mix-blend-mode: normal"><tspan x="0" dy="0">戻る</tspan></text><path d="M470.82183,84.1299v17.49204c0,6.79865 -5.52777,12.32882 -12.33118,12.32882h-109.77054c-6.79622,0 -12.3288,-5.53013 -12.3288,-12.32882v-17.49442c0,-6.79865 5.53248,-12.32871 12.3288,-12.32871h109.77054c6.80336,0 12.33118,5.53251 12.33118,12.33114z" fill="#303032" stroke="none" stroke-width="0"/><text transform="translate(345.66738,100.44727) scale(0.63104,0.63104)" font-size="40" xml:space="preserve" fill="#ffffff" fill-rule="nonzero" stroke="none" stroke-width="1" stroke-linecap="butt" stroke-linejoin="miter" stroke-miterlimit="10" stroke-dasharray="" stroke-dashoffset="0" font-family="Sans Serif" font-weight="normal" text-anchor="start" style="mix-blend-mode: normal"><tspan x="0" dy="0">並び替え</tspan></text><g stroke="none" stroke-width="1"><path d="M466.9928,89.5962c0.0043,0.88327 -0.34579,1.73137 -0.97188,2.35442l-5.36589,5.36589c-1.30734,1.29623 -3.41519,1.29623 -4.72253,0l-5.3522,-5.36589c-0.62982,-0.62166 -0.98472,-1.46947 -0.98557,-2.35442c0.00254,-0.88595 0.35132,-1.7358 0.97188,-2.36811c0.39697,-0.32852 0.98557,-0.97188 7.734,-0.97188c6.74843,0 7.3781,0.62967 7.72031,0.97188c0.6256,0.62898 0.97527,1.48099 0.97188,2.36811z" fill="#231f20"/><path d="M458.3006,96.91955c-0.51408,-0.00445 -1.00577,-0.21096 -1.36885,-0.57492l-5.39327,-5.36589c-0.73708,-0.76373 -0.73708,-1.97397 0,-2.7377c0.76656,-0.76656 12.74399,-0.76656 13.51054,0c0.73708,0.76373 0.73708,1.97397 0,2.7377l-5.36589,5.36589c-0.36644,0.36729 -0.86371,0.57407 -1.38254,0.57492z" fill="#ffffff"/></g><path d="M-6.5822,366.31211v-372.62422h493.16441v372.62422z" fill="none" stroke="#000000" stroke-width="0.5"/></g></g></svg>