<svg version="1.1" xmlns="http://www.w3.org/2000/svg" xmlns:xlink="http://www.w3.org/1999/xlink" width="35.47139" height="37.20169" viewBox="0,0,35.47139,37.20169"><g transform="translate(-238.84666,-161.86912)"><g data-paper-data="{&quot;isPaintingLayer&quot;:true}" stroke-miterlimit="10" stroke-dasharray="" stroke-dashoffset="0" style="mix-blend-mode: normal"><g fill-rule="evenodd" stroke-width="0.5"><path d="M250.92223,188.1627c0.29769,0.14885 0.93031,0.48376 0.03722,1.74896c-0.89309,1.2652 -3.46071,1.52569 -3.7584,1.52569c-1.15356,0.03722 -2.56761,0.03722 -4.13053,-0.48376c-4.53986,-1.48849 -4.57708,-6.36325 -3.1258,-7.14468c1.41404,-0.78145 2.04665,2.23271 4.0933,4.05611c0.89309,0.81864 1.97222,1.11636 2.86531,1.30243c1.2652,0.22327 3.68398,-1.19078 4.01888,-1.00473z" fill="#ffab19" stroke="#001026" stroke-linecap="round" stroke-linejoin="round"/><path d="M241.69366,185.14853c0.59539,1.00473 1.74896,2.41877 1.74896,2.41877c0,0 -1.37684,-0.33491 -2.15829,0.29769c-0.6326,0.48376 -0.48376,1.30243 -0.40933,1.56291c-0.48376,-0.48376 -1.07915,-1.15356 -1.45127,-2.45598c-0.37213,-1.30243 0,-2.86531 0.74424,-3.0886c0.74424,-0.14885 0.93031,0.40933 1.52569,1.2652z" fill="#ffffff" stroke="none" stroke-linecap="butt" stroke-linejoin="miter"/></g><path d="M252.78282,192.03275c-0.66981,0.44653 -2.97695,2.08387 -5.9167,3.01417l-0.14885,0.03722c-0.14885,0.03722 -0.22327,0.22327 -0.14885,0.37213c0.6326,0.89309 1.78617,2.67927 -0.26049,3.31186c-1.97222,0.6326 -5.65621,-4.61429 -4.0933,-5.99114c0.70703,-0.52096 1.33965,-0.26049 1.67454,-0.11165c0.18604,0.07442 0.37213,0.07442 0.55818,0.03722c0.44653,-0.14885 1.2652,-0.44653 1.8978,-0.78145c1.60011,-0.81864 1.97222,-1.15356 2.71648,-1.71176c0.74424,-0.55818 2.45598,-1.93502 3.83283,-0.74424c1.19078,1.00473 0.52096,2.12108 -0.11165,2.56761z" fill="#ffab19" fill-rule="evenodd" stroke="#001026" stroke-width="0.5" stroke-linecap="round" stroke-linejoin="round"/><path d="M258.69951,184.29266c0.18604,0.14885 2.45598,2.82811 3.20022,2.15829c0.89309,-0.78145 2.12108,-2.30714 3.46071,-1.07915c1.33965,1.228 -1.19078,3.31186 -2.26993,3.87003c-2.56761,1.15356 -4.65149,-1.04193 -5.09803,-1.63733c-0.44653,-0.59539 -1.228,-1.60011 -1.228,-2.56761c0.03722,-1.04193 1.30243,-1.30243 1.93502,-0.74424z" fill="#ffab19" fill-rule="evenodd" stroke="#001026" stroke-width="0.5" stroke-linecap="round" stroke-linejoin="round"/><g fill-rule="evenodd" stroke-width="0.5"><path d="M258.73673,192.96304c0.78145,0.70703 2.4932,2.15829 2.4932,2.15829c0,0 5.3213,-0.93031 5.3213,1.74896c0,1.60011 -2.67927,1.97222 -6.28882,1.63733c-0.22327,-0.03722 -0.44653,-0.11165 -0.6326,-0.26049c-0.81864,-0.70703 -3.16302,-2.79088 -4.65149,-4.24218c-2.1955,-2.15829 -4.01888,-3.57234 -4.01888,-3.57234c-3.16302,-3.0886 -0.59539,-4.391 0.40933,-6.17718c0.93031,-1.52569 1.33965,-1.228 3.57234,-0.78145c1.2652,0.18604 2.00944,0.29769 2.82811,0.26049c1.228,-0.03722 1.00473,1.74896 0.66981,2.67927c0,0 -0.52096,1.37684 -1.00473,2.08387c-0.59539,0.85587 -1.04193,1.41404 -1.48849,1.74896z" fill="#ffab19" stroke="#001026" stroke-linecap="round" stroke-linejoin="round"/><path d="M255.61093,190.20936c0,0 -0.55818,-0.44653 -1.15356,-1.00473c-0.74424,-0.66981 -1.48849,-1.228 -0.74424,-2.38157c0.66981,-0.89309 1.30243,-2.08387 2.97695,-1.00473c1.60011,1.00473 0.89309,1.93502 0.89309,1.93502c-0.81864,1.67454 -1.97222,2.45598 -1.97222,2.45598z" fill="#ffffff" stroke="none" stroke-linecap="butt" stroke-linejoin="miter"/></g><g fill-rule="evenodd" stroke-width="0.5"><path d="M261.71366,162.07714c0.11165,-0.07442 0.29769,-0.03722 0.33491,0.11165l0.96751,3.98167c0,0 2.38157,1.74896 3.0886,2.97695c1.19078,2.04665 1.228,3.72119 1.228,3.72119c0,0 2.64205,0.78145 3.0886,2.90253c0.44653,2.12108 -1.19078,6.13998 -8.18662,7.51682c-6.99583,1.37684 -12.61484,-0.52096 -15.25689,-4.76313c-2.64205,-4.24218 1.52569,-9.30299 1.30243,-9.00528l-0.78145,-6.66093c-0.03722,-0.14885 0.14885,-0.26049 0.29769,-0.18604l4.50264,2.93976c0,0 1.67454,-0.6326 3.42349,-0.70703c1.04193,-0.07442 1.93502,0 2.79088,0.14885z" fill="#ffab19" stroke="#001026" stroke-linecap="butt" stroke-linejoin="miter"/><path d="M267.22104,173.01744c0,0 2.56761,0.66981 3.01417,2.79088c0.44653,2.12108 -1.33965,5.95391 -8.26106,7.29353c-9.00528,1.86061 -13.28465,-3.49793 -10.79146,-7.44239c2.4932,-3.98167 6.77257,-0.59539 9.89837,-0.81864c2.67927,-0.18604 2.97695,-2.53042 6.13998,-1.82337z" fill="#ffffff" stroke="none" stroke-linecap="butt" stroke-linejoin="miter"/><path d="M255.4993,176.99912c0,-0.14885 0.14885,-0.26049 0.29769,-0.22327c0.70703,0.26049 2.71648,0.85587 4.94918,1.00473c2.00944,0.11165 3.20022,0 3.7584,-0.11165c0.18604,-0.03722 0.33491,0.14885 0.26049,0.33491c-0.33491,1.00473 -1.74896,3.79561 -5.65621,3.57234c-3.38629,-0.37213 -3.72119,-2.75369 -3.60956,-4.57708z" fill="#ffffff" stroke="#001026" stroke-linecap="round" stroke-linejoin="round"/><path d="M274.06805,173.42678c-1.74896,1.41404 -4.42822,1.45127 -4.42822,1.45127" fill="none" stroke="#001026" stroke-linecap="round" stroke-linejoin="round"/><path d="M273.58427,177.5945c-2.34434,0.18604 -3.79561,-0.52096 -3.79561,-0.52096" fill="none" stroke="#001026" stroke-linecap="round" stroke-linejoin="round"/><path d="M260.93225,173.87333c0.78145,0 1.60011,0.07442 1.63733,0.33491c0.03722,0.52096 -0.52096,1.56291 -1.11636,1.60011c-0.66981,0.07442 -2.23271,-0.85587 -2.23271,-1.45127c-0.03722,-0.44653 0.96751,-0.48376 1.71176,-0.48376z" fill="#001026" stroke="#001026" stroke-linecap="round" stroke-linejoin="round"/><path d="M244.18687,173.31513c0,0 3.20022,1.04193 4.50264,2.1955" fill="none" stroke="#001026" stroke-linecap="round" stroke-linejoin="round"/><path d="M248.80115,176.81306c-1.60011,0.6326 -4.3538,0.22327 -4.3538,0.22327" fill="none" stroke="#001026" stroke-linecap="round" stroke-linejoin="round"/><g><path d="M265.32324,169.51954c1.07915,1.67454 1.11636,3.57234 0.07442,4.24218c-1.04193,0.66981 -2.75369,-0.11165 -3.87003,-1.78617c-1.07915,-1.67454 -1.11636,-3.57234 -0.07442,-4.24218c1.04193,-0.70703 2.79088,0.11165 3.87003,1.78617z" fill="#ffffff" stroke="#001026" stroke-linecap="round" stroke-linejoin="round"/><path d="M265.1744,171.6406c0,0.40933 -0.29769,0.74424 -0.66981,0.74424c-0.37213,0 -0.66981,-0.33491 -0.66981,-0.74424c0,-0.40933 0.29769,-0.74424 0.66981,-0.74424c0.37213,0 0.66981,0.33491 0.66981,0.74424" fill="#001026" stroke="none" stroke-linecap="butt" stroke-linejoin="miter"/></g><g><path d="M256.09469,170.56144c1.11636,1.63733 1.04193,3.64677 0.03722,4.3538c-1.228,0.70703 -2.86531,0.18604 -3.98167,-1.45127c-1.15356,-1.63733 -1.228,-3.7584 -0.07442,-4.57708c1.15356,-0.85587 2.90253,0.03722 4.01888,1.67454z" fill="#ffffff" stroke="#001026" stroke-linecap="round" stroke-linejoin="round"/><path d="M255.87143,172.71975c0,0.40933 -0.29769,0.74424 -0.66981,0.74424c-0.37213,0 -0.66981,-0.33491 -0.66981,-0.74424c0,-0.40933 0.29769,-0.74424 0.66981,-0.74424c0.37213,0.03722 0.66981,0.33491 0.66981,0.74424" fill="#001026" stroke="none" stroke-linecap="butt" stroke-linejoin="miter"/></g></g><path d="M255.71628,186.4186c1.20704,-0.5467 2.77346,-1.46503 3.44012,0.34616c0.6693,2.42492 -3.37925,3.30879 -4.73282,3.35978c-1.20014,0.0503 -1.69231,-1.06671 -2.11157,-2.01259c-0.73893,-1.82895 -1.43153,-3.37833 -0.53468,-4.69085c1.09397,-1.64732 2.22026,0.00848 2.64905,1.07161c0.26449,0.63964 0.56512,1.28818 0.72054,1.7478c0.15408,0.15277 0.36205,0.24212 0.56936,0.17805z" fill="#ffab19" fill-rule="evenodd" stroke="#001026" stroke-width="0.5" stroke-linecap="round" stroke-linejoin="round"/><g fill-rule="nonzero" stroke="none" stroke-linecap="butt" stroke-linejoin="miter"><path d="M269.87494,183.55742c-0.29226,2.24626 -1.87716,3.89183 -3.53998,3.6755c-1.66282,-0.21635 -2.77388,-2.21269 -2.48162,-4.45896c0.29226,-2.24626 1.87716,-3.89183 3.53998,-3.6755c1.66282,0.21635 2.77388,2.21269 2.48162,4.45896z" fill="#ffd792" stroke-width="0"/><g stroke-width="0.5"><path d="M268.3215,173.20312c0.63385,0.08246 0.55139,0.71633 0.55139,0.71633l-0.01375,0.10564c-0.03741,0.28743 -0.03336,1.2767 -0.19371,1.87994c0.10169,-0.11708 0.20723,-0.22544 0.28218,-0.28305c0.18316,-0.14077 0.38346,-0.25537 0.59506,-0.34976c0.0908,-0.07512 0.17285,-0.1415 0.24281,-0.19711l-0.03299,-0.0617l0.80166,-0.4285c0.11492,-0.06328 0.25028,-0.09187 0.39035,-0.07363c0.35006,0.04555 0.59692,0.36626 0.55139,0.71633c-0.02632,0.20236 -0.1446,0.37023 -0.30734,0.46706l-0.55539,0.33697c-0.90377,0.69787 -1.609,1.53832 -2.27136,2.43815l-0.15406,0.50786c-0.05504,0.1937 -0.19732,0.34581 -0.37699,0.41797c-0.00195,0.18048 -0.0642,0.55956 -0.5423,0.63128c-0.63212,0.09485 -0.72696,-0.53729 -0.72696,-0.53729c-0.1542,-1.05528 -0.5196,-1.93508 -1.32466,-2.64724l-0.0503,0.07462l-0.58113,-0.39165c-0.20117,-0.12952 -0.32102,-0.36722 -0.2881,-0.62027c0.04555,-0.35006 0.36626,-0.59692 0.71633,-0.55139c0.07528,0.00978 0.1458,0.03231 0.20964,0.06511l0.59293,0.28724l-0.01805,0.03726l0.09194,0.00482c0.15216,0.13328 0.29405,0.26843 0.4262,0.4062c0.43394,0.21182 0.84576,0.79108 1.16587,1.28692c0.0313,-0.06134 0.06785,-0.12448 0.10888,-0.18898c-0.6048,-0.838 -0.12791,-2.55991 -0.01963,-3.3921l0.01375,-0.10564c0,0 0.08246,-0.63385 0.71633,-0.55139z" fill="#009b15"/><path d="M268.57777,174.66092c-0.2472,0.32935 -0.6849,0.19656 -0.6849,0.19656c-2.28731,-0.75806 -2.00087,-2.82937 -1.74044,-4.78293l0.03224,-0.04531l-0.01902,-0.00576l0.18505,-0.61006c0.08513,-0.29962 0.37904,-0.49975 0.6972,-0.45835c0.25303,0.03293 0.45215,0.20961 0.5259,0.43723l0.22991,0.662l-0.12527,0.04351c0.19562,0.25654 0.37663,0.36089 0.50504,0.04405l1.2493,-0.74141c0.14246,0.5802 0.43842,0.91285 0.23942,1.3725c0.06683,-0.12857 0.21585,-0.38672 0.33511,-0.43007c0.43473,-0.15803 0.97821,-0.46205 1.37056,-0.21711c0.36526,0.22805 0.28525,0.827 0.29591,1.25749c0.02222,0.89733 -1.20163,2.48995 -2.4242,3.05677c-0.15381,0.16388 -0.32282,0.27887 -0.49155,0.31592c-0.03264,0.00717 -0.09594,-0.02867 -0.18029,-0.095z" fill="#edae00"/></g><path d="M270.10349,180.14938c-0.05693,0.43759 -1.30917,0.63541 -2.79697,0.44183c-1.4878,-0.19358 -2.64772,-0.70523 -2.59079,-1.14281c0.05693,-0.43759 1.30917,-0.63541 2.79697,-0.44183c1.4878,0.19358 2.64772,0.70523 2.59079,1.14281z" fill="#ffd792" stroke-width="0"/></g></g></g></svg>