<svg version="1.1" xmlns="http://www.w3.org/2000/svg" xmlns:xlink="http://www.w3.org/1999/xlink" width="43.13887" height="43.31143" viewBox="0,0,43.13887,43.31143"><defs><linearGradient x1="30.01402" y1="337.62092" x2="135.35681" y2="337.62092" gradientUnits="userSpaceOnUse" id="color-1"><stop offset="0" stop-color="#d1d2d3"/><stop offset="1" stop-color="#a4a5a8"/></linearGradient><linearGradient x1="89.68144" y1="330.03737" x2="99.95803" y2="330.03737" gradientUnits="userSpaceOnUse" id="color-2"><stop offset="0" stop-color="#b9babc"/><stop offset="1" stop-color="#b3b4b6"/></linearGradient><linearGradient x1="88.62057" y1="336.62146" x2="101.56276" y2="336.62146" gradientUnits="userSpaceOnUse" id="color-3"><stop offset="0" stop-color="#b9babc"/><stop offset="1" stop-color="#b3b4b6"/></linearGradient><linearGradient x1="88.781" y1="342.16384" x2="94.80387" y2="342.16384" gradientUnits="userSpaceOnUse" id="color-4"><stop offset="0" stop-color="#b9babc"/><stop offset="1" stop-color="#b3b4b6"/></linearGradient><linearGradient x1="88.50086" y1="347.59142" x2="101.52708" y2="347.59142" gradientUnits="userSpaceOnUse" id="color-5"><stop offset="0" stop-color="#b9babc"/><stop offset="1" stop-color="#b3b4b6"/></linearGradient></defs><g transform="translate(-73.26069,-323.95316)"><g data-paper-data="{&quot;isPaintingLayer&quot;:true}" fill-rule="nonzero" stroke-linejoin="miter" stroke-miterlimit="10" stroke-dasharray="" stroke-dashoffset="0" style="mix-blend-mode: normal"><path d="M115.14956,331.6997v27.81956c0,3.58182 -2.91226,6.49533 -6.49657,6.49533h-27.64698c-3.58054,0 -6.49532,-2.91351 -6.49532,-6.49533v-27.82081c0,-3.58181 2.91475,-6.49529 6.49532,-6.49529h27.64698c3.5843,0 6.49657,2.91476 6.49657,6.49656z" fill="url(#color-1)" stroke="#666666" stroke-width="2.5" stroke-linecap="butt"/><g><path d="M105.7201,334.28803v20.32538c0,2.61693 -2.12774,4.74558 -4.7465,4.74558h-12.30866c-2.616,0 -4.74558,-2.12865 -4.74558,-4.74558v-20.3263c0,-2.61692 2.12955,-4.74556 4.74558,-4.74556h12.30866c2.61874,0 4.7465,2.12957 4.7465,4.74649z" fill="#0080ff" stroke="none" stroke-width="0" stroke-linecap="butt"/><path d="M99.95803,329.80786v0.45932c0,1.04418 -0.94018,1.89352 -2.0973,1.89352h-6.08241c-1.15591,0 -2.0969,-0.84935 -2.0969,-1.89352v-0.4597c0,-1.04418 0.94098,-1.89351 2.0969,-1.89351h6.08241c1.15713,0 2.0973,0.84971 2.0973,1.89388z" fill="#0080ff" stroke="url(#color-2)" stroke-width="1.5" stroke-linecap="butt"/><path d="M101.56276,336.62146h-12.94217" fill="none" stroke="url(#color-3)" stroke-width="1.5" stroke-linecap="round"/><path d="M94.80387,342.16384h-6.02287" fill="none" stroke="url(#color-4)" stroke-width="1.5" stroke-linecap="round"/><path d="M101.52708,347.59235l-13.02621,0.03409" fill="none" stroke="url(#color-5)" stroke-width="1.5" stroke-linecap="round"/></g></g></g></svg>