<svg version="1.1" xmlns="http://www.w3.org/2000/svg" xmlns:xlink="http://www.w3.org/1999/xlink" width="266.22314" height="408.886" viewBox="0,0,266.22314,408.886"><defs><linearGradient x1="255.01082" y1="180" x2="266.33144" y2="180" gradientUnits="userSpaceOnUse" id="color-1"><stop offset="0" stop-color="#2b2e33" stop-opacity="0.6"/><stop offset="1" stop-color="#2b2e33" stop-opacity="0"/></linearGradient></defs><g transform="translate(-0.1083,0)"><g data-paper-data="{&quot;isPaintingLayer&quot;:true}" fill-rule="nonzero" stroke-linecap="butt" stroke-linejoin="miter" stroke-miterlimit="10" stroke-dasharray="" stroke-dashoffset="0" style="mix-blend-mode: normal"><path d="M0.1083,0h254.90253v360h-254.90251z" fill-opacity="0.6" fill="#2b2e33" stroke="none" stroke-width="1.00207"/><path d="M266.33144,360h-11.32062v-360h11.32062z" fill="url(#color-1)" stroke="none" stroke-width="1.00207"/><path d="M0.1083,0h26.61286v360h-26.61284z" fill-opacity="0.4" fill="#818999" stroke="none" stroke-width="1.00207"/><g><g><path d="M247.18525,69.031c0,4.752 -3.854,8.605 -8.605,8.605h-187.292c-4.752,0 -8.604,-3.854 -8.604,-8.605v-53.213c0,-4.752 3.852,-8.604 8.604,-8.604h187.291c4.754,0 8.605,3.852 8.605,8.604v53.213z" fill="#a4a5a8" stroke="#666666" stroke-width="2.5"/><path d="M242.83525,61.706c0,4.752 -3.854,8.605 -8.605,8.605h-96.092c-4.752,0 -8.604,-3.854 -8.604,-8.605v-38.563c0,-4.752 3.852,-8.604 8.604,-8.604h96.091c4.754,0 8.605,3.852 8.605,8.604v38.563z" fill="#ffffff" stroke="none" stroke-width="0"/></g><g><path d="M247.18525,151.531c0,4.752 -3.854,8.605 -8.605,8.605h-187.292c-4.752,0 -8.604,-3.854 -8.604,-8.605v-53.213c0,-4.752 3.852,-8.604 8.604,-8.604h187.291c4.754,0 8.605,3.852 8.605,8.604v53.213z" fill="#a4a5a8" stroke="#666666" stroke-width="2.5"/><path d="M242.83525,144.206c0,4.752 -3.854,8.605 -8.605,8.605h-96.092c-4.752,0 -8.604,-3.854 -8.604,-8.605v-38.563c0,-4.752 3.852,-8.604 8.604,-8.604h96.091c4.754,0 8.605,3.852 8.605,8.604v38.563z" fill="#ffffff" stroke="none" stroke-width="0"/></g><g><path d="M247.18525,234.031c0,4.752 -3.854,8.605 -8.605,8.605h-187.292c-4.752,0 -8.604,-3.854 -8.604,-8.605v-53.213c0,-4.752 3.852,-8.604 8.604,-8.604h187.291c4.754,0 8.605,3.852 8.605,8.604v53.213z" fill="#a4a5a8" stroke="#666666" stroke-width="2.5"/><path d="M242.83525,226.706c0,4.752 -3.854,8.605 -8.605,8.605h-96.092c-4.752,0 -8.604,-3.854 -8.604,-8.605v-38.563c0,-4.752 3.852,-8.604 8.604,-8.604h96.091c4.754,0 8.605,3.852 8.605,8.604v38.563z" fill="#ffffff" stroke="none" stroke-width="0"/></g><g><path d="M247.18525,316.531c0,4.752 -3.854,8.605 -8.605,8.605h-187.292c-4.752,0 -8.604,-3.854 -8.604,-8.605v-53.213c0,-4.752 3.852,-8.604 8.604,-8.604h187.291c4.754,0 8.605,3.852 8.605,8.604v53.213z" fill="#a4a5a8" stroke="#666666" stroke-width="2.5"/><path d="M242.83525,309.206c0,4.752 -3.854,8.605 -8.605,8.605h-96.092c-4.752,0 -8.604,-3.854 -8.604,-8.605v-38.563c0,-4.752 3.852,-8.604 8.604,-8.604h96.091c4.754,0 8.605,3.852 8.605,8.604v38.563z" fill="#ffffff" stroke="none" stroke-width="0"/></g><g><path d="M247.18525,399.031c0,4.752 -3.854,8.605 -8.605,8.605h-187.292c-4.752,0 -8.604,-3.854 -8.604,-8.605v-53.213c0,-4.752 3.852,-8.604 8.604,-8.604h187.291c4.754,0 8.605,3.852 8.605,8.604v53.213z" fill="#a4a5a8" stroke="#666666" stroke-width="2.5"/><path d="M242.83525,391.706c0,4.752 -3.854,8.605 -8.605,8.605h-96.092c-4.752,0 -8.604,-3.854 -8.604,-8.605v-38.563c0,-4.752 3.852,-8.604 8.604,-8.604h96.091c4.754,0 8.605,3.852 8.605,8.604v38.563z" fill="#ffffff" stroke="none" stroke-width="0"/></g></g></g></g></svg>