<svg version="1.1" xmlns="http://www.w3.org/2000/svg" xmlns:xlink="http://www.w3.org/1999/xlink" width="47" height="30.88889" viewBox="0,0,47,30.88889"><defs><linearGradient x1="228.49425" y1="166.90068" x2="228.49425" y2="193.09932" gradientUnits="userSpaceOnUse" id="color-1"><stop offset="0" stop-color="#6ae6b8"/><stop offset="1" stop-color="#53bfe0"/></linearGradient><radialGradient cx="249.40636" cy="179.76293" r="12.58828" gradientUnits="userSpaceOnUse" id="color-2"><stop offset="0" stop-color="#000000"/><stop offset="1" stop-color="#000000" stop-opacity="0"/></radialGradient><linearGradient x1="249.40636" y1="168.46563" x2="249.40636" y2="191.06023" gradientUnits="userSpaceOnUse" id="color-3"><stop offset="0" stop-color="#fafcfd"/><stop offset="1" stop-color="#f4f6f8"/></linearGradient></defs><g transform="translate(-216.5,-164.55555)"><g data-paper-data="{&quot;isPaintingLayer&quot;:true}" fill-rule="nonzero" stroke="none" stroke-linecap="butt" stroke-linejoin="miter" stroke-miterlimit="10" stroke-dasharray="" stroke-dashoffset="0" style="mix-blend-mode: normal"><path d="M262.08741,179.99969c0,7.23472 -5.86429,13.09963 -13.09901,13.09963h-17.97617c-7.23472,0 -13.09963,-5.8649 -13.09963,-13.09963v0c0,-7.23412 5.8649,-13.09901 13.09963,-13.09901h17.97617c7.23472,0 13.09901,5.8649 13.09901,13.09901z" fill="url(#color-1)" stroke-width="1"/><path d="M236.81808,179.76293c0,-6.9523 5.63597,-12.58828 12.58828,-12.58828c6.9523,0 12.58828,5.63597 12.58828,12.58828c0,6.9523 -5.63597,12.58828 -12.58828,12.58828c-6.9523,0 -12.58828,-5.63597 -12.58828,-12.58828z" fill="url(#color-2)" stroke-width="NaN"/><path d="M238.10905,179.76293c0,-6.23932 5.05797,-11.2973 11.2973,-11.2973c6.23932,0 11.2973,5.05797 11.2973,11.2973c0,6.23932 -5.05797,11.2973 -11.2973,11.2973c-6.23932,0 -11.2973,-5.05797 -11.2973,-11.2973z" fill="url(#color-3)" stroke-width="NaN"/><path d="M216.5,195.44444v-30.88889h47v30.88889z" fill="none" stroke-width="0"/></g></g></svg>