<svg version="1.1" xmlns="http://www.w3.org/2000/svg" xmlns:xlink="http://www.w3.org/1999/xlink" width="496.16541" height="371.12372" viewBox="0,0,496.16541,371.12372"><defs><linearGradient x1="239.99074" y1="25.54296" x2="239.99074" y2="89.19226" gradientTransform="translate(-40.98458,-55.26273) scale(0.7541,0.7541)" gradientUnits="userSpaceOnUse" id="color-1"><stop offset="0" stop-color="#0044b0"/><stop offset="1" stop-color="#00b049"/></linearGradient></defs><g transform="translate(8.08271,5.56186)"><g data-paper-data="{&quot;isPaintingLayer&quot;:true}" stroke-linecap="butt" stroke-linejoin="miter" stroke-miterlimit="10" stroke-dasharray="" stroke-dashoffset="0" style="mix-blend-mode: normal"><text transform="translate(54.34883,76.1315) scale(1.32608,1.32608)" font-size="40" xml:space="preserve" fill="#ffffff" fill-rule="nonzero" stroke="#000000" stroke-width="9" stroke-linecap="butt" stroke-linejoin="miter" stroke-miterlimit="10" stroke-dasharray="" stroke-dashoffset="0" font-family="&quot;Microsoft YaHei&quot;, &quot;微软雅黑&quot;, STXihei, &quot;华文细黑&quot;" font-weight="normal" text-anchor="start" style="mix-blend-mode: normal"><tspan x="0" dy="0">ビル経営ゲーム</tspan></text><g fill-rule="nonzero" font-family="&quot;Microsoft YaHei&quot;, &quot;微软雅黑&quot;, STXihei, &quot;华文细黑&quot;" font-weight="normal" font-size="40" text-anchor="start"><text transform="translate(54.34883,73.2828) scale(1.32608,1.32608)" font-size="40" xml:space="preserve" fill="#ffffff" fill-rule="nonzero" stroke="#000000" stroke-width="9" stroke-linecap="butt" stroke-linejoin="miter" stroke-miterlimit="10" stroke-dasharray="" stroke-dashoffset="0" font-family="&quot;Microsoft YaHei&quot;, &quot;微软雅黑&quot;, STXihei, &quot;华文细黑&quot;" font-weight="normal" text-anchor="start" style="mix-blend-mode: normal"><tspan x="0" dy="0">ビル経営ゲーム</tspan></text><text transform="translate(54.34883,73.2828) scale(1.32608,1.32608)" font-size="40" xml:space="preserve" fill="#ffffff" fill-rule="nonzero" stroke="#ffffff" stroke-width="4" stroke-linecap="butt" stroke-linejoin="miter" stroke-miterlimit="10" stroke-dasharray="" stroke-dashoffset="0" font-family="&quot;Microsoft YaHei&quot;, &quot;微软雅黑&quot;, STXihei, &quot;华文细黑&quot;" font-weight="normal" text-anchor="start" style="mix-blend-mode: normal"><tspan x="0" dy="0">ビル経営ゲーム</tspan></text><text transform="translate(54.34883,73.2828) scale(1.32608,1.32608)" font-size="40" xml:space="preserve" fill="url(#color-1)" fill-rule="nonzero" stroke="#ffffff" stroke-width="0" stroke-linecap="butt" stroke-linejoin="miter" stroke-miterlimit="10" stroke-dasharray="" stroke-dashoffset="0" font-family="&quot;Microsoft YaHei&quot;, &quot;微软雅黑&quot;, STXihei, &quot;华文细黑&quot;" font-weight="normal" text-anchor="start" style="mix-blend-mode: normal"><tspan x="0" dy="0">ビル経営ゲーム</tspan></text></g><path d="M-8.08271,365.56186v-371.12372h496.16541v371.12372z" fill="none" fill-rule="nonzero" stroke="none" stroke-width="NaN"/><path d="M472.49082,333.00405c0,11.0992 -9.02829,20.12548 -20.12548,20.12548c-11.09719,0 -20.12548,-9.02628 -20.12548,-20.12548c0,-11.09518 9.02829,-20.12548 20.12548,-20.12548c11.09719,0 20.12548,9.03031 20.12548,20.12548zM454.881,343.06679c0,-1.38866 -1.12702,-2.51568 -2.51568,-2.51568c-1.38866,0 -2.51568,1.12702 -2.51568,2.51568c0,1.39067 1.12702,2.51568 2.51568,2.51568c1.38866,0 2.51568,-1.12501 2.51568,-2.51568zM460.41553,328.97895c0,-4.43766 -3.61252,-8.0502 -8.0502,-8.0502c-4.43766,0 -8.0502,3.61252 -8.0502,8.0502h4.0251c0,-2.22185 1.80325,-4.0251 4.0251,-4.0251c2.22185,0 4.0251,1.80325 4.0251,4.0251c0,2.21984 -1.80325,4.0251 -4.0251,4.0251h-2.01254v6.03764h4.0251v-2.26411c3.46762,-0.8976 6.03764,-4.05327 6.03764,-7.79863z" fill="#b4b4b4" fill-rule="nonzero" stroke="none" stroke-width="1"/><path d="M452.36533,345.63247c-1.38866,0 -2.56568,-1.17501 -2.56568,-2.56568c0,-1.38866 1.17702,-2.56568 2.56568,-2.56568c1.38866,0 2.56568,1.17702 2.56568,2.56568c0,1.39067 -1.17702,2.56568 -2.56568,2.56568z" data-paper-data="{&quot;noHover&quot;:false,&quot;origItem&quot;:[&quot;Path&quot;,{&quot;applyMatrix&quot;:true,&quot;segments&quot;:[[[454.88098,343.06679],[0,1.39067],[0,-1.38866]],[[452.3653,340.55111],[1.38866,0],[-1.38866,0]],[[449.84962,343.06679],[0,-1.38866],[0,1.39067]],[[452.3653,345.58247],[-1.38866,0],[1.38866,0]]],&quot;closed&quot;:true,&quot;fillColor&quot;:[0,0,0,1]}]}" fill-opacity="0.01961" fill="#b5b5b5" fill-rule="nonzero" stroke="none" stroke-width="0.5"/><path d="M454.39209,336.82552l-0.00336,2.26498h-4.04679l-0.01689,-6.04485l2.04028,-0.0916c2.22185,0 3.97659,-1.74313 3.97659,-3.96297c0,-2.22185 -1.75474,-3.98723 -3.97659,-3.98723c-2.22185,0 -3.97659,1.76537 -3.97659,3.98723l-4.12322,-0.01833c0,-4.43768 3.66215,-8.094 8.09981,-8.094c4.43768,0 8.09981,3.65633 8.09981,8.094c0,3.74536 -2.60543,6.95517 -6.07305,7.85277z" data-paper-data="{&quot;noHover&quot;:false,&quot;origItem&quot;:[&quot;Path&quot;,{&quot;applyMatrix&quot;:true,&quot;segments&quot;:[[[460.41549,328.97895],[0,3.74536],[0,-4.43766]],[[452.36529,320.92875],[4.43768,0],[-4.43766,0]],[[444.31509,328.97895],[0,-4.43768],[0,0]],[[448.34019,328.97895],[0,0],[0,-2.22185]],[[452.36529,324.95385],[-2.22185,0],[2.22185,0]],[[456.39039,328.97895],[0,-2.22185],[0,2.21984]],[[452.36529,333.00405],[2.22185,0],[0,0]],[450.35275,333.00405],[450.35275,339.04169],[454.37784,339.04169],[[454.37784,336.77758],[0,0],[3.46762,-0.8976]]],&quot;closed&quot;:true,&quot;fillColor&quot;:[0,0,0,1]}]}" fill-opacity="0.01961" fill="#b5b5b5" fill-rule="nonzero" stroke="none" stroke-width="0.5"/><path d="M419.59235,349.30989v-29.24043h2.1593v31.48965h-28.07083c-2.38494,0 -4.31858,-2.01419 -4.31858,-4.49845v-26.9912c0,-2.48431 1.93365,-4.49853 4.31858,-4.49853h23.75224v29.2404h-23.75224c-1.19247,0 -2.15929,1.00612 -2.15929,2.24934c0,1.24322 0.96682,2.24923 2.15929,2.24923zM408.11614,330.23453l3.5093,-0.0185l-7.31812,-10.02076l-7.19319,10.01587l3.41511,0.03332l-0.01124,9.1807l7.60872,-0.00418z" fill="#b4b4b4" fill-rule="evenodd" stroke="none" stroke-width="1"/><path d="M408.14494,339.46755l-7.64552,0.00403l-0.01985,-9.2215l-3.41535,-0.03618l7.24279,-10.06863l7.36837,10.07355l-3.50954,0.02133z" data-paper-data="{&quot;noHover&quot;:false,&quot;origItem&quot;:[&quot;Path&quot;,{&quot;applyMatrix&quot;:true,&quot;segments&quot;:[[408.11614,330.23453],[411.62544,330.21603],[404.30732,320.19527],[397.11413,330.21114],[400.52924,330.24446],[400.518,339.42516],[408.12672,339.42098]],&quot;closed&quot;:true,&quot;fillColor&quot;:[0.70588,0.70588,0.70588],&quot;fillRule&quot;:&quot;evenodd&quot;}]}" fill-opacity="0.01961" fill="#b5b5b5" fill-rule="evenodd" stroke="none" stroke-width="0.5"/></g></g></svg>