<svg version="1.1" xmlns="http://www.w3.org/2000/svg" xmlns:xlink="http://www.w3.org/1999/xlink" width="50.9607" height="42.16125" viewBox="0,0,50.9607,42.16125"><defs><linearGradient x1="227.80242" y1="159.16941" x2="227.80242" y2="213.84141" gradientUnits="userSpaceOnUse" id="color-1"><stop offset="0" stop-color="#d5ffff"/><stop offset="1" stop-color="#d6feff"/></linearGradient></defs><g transform="translate(-326.73738,-158.91941)"><g data-paper-data="{&quot;isPaintingLayer&quot;:true}" stroke-linecap="butt" stroke-linejoin="miter" stroke-miterlimit="10" stroke-dasharray="" stroke-dashoffset="0" style="mix-blend-mode: normal"><path d="M377.44808,192.22566c0,4.752 -3.854,8.605 -8.605,8.605h-33.2517c-4.752,0 -8.604,-3.854 -8.604,-8.605v-24.45225c0,-4.752 3.852,-8.604 8.604,-8.604h33.2507c4.754,0 8.605,3.852 8.605,8.604v24.45225z" fill="#66cc33" fill-rule="nonzero" stroke="url(#color-1)" stroke-width="0.5"/><path d="M365.74634,172.38743c-1.46781,3.02281 -3.64347,6.50948 -5.69656,9.09334c-1.71907,2.17606 -3.09802,3.45242 -4.41567,4.07503c-0.15322,0.09651 -0.30337,0.12763 -0.49028,0.12763c-0.12257,0 -0.24514,-0.03113 -0.39836,-0.0965c-0.27579,-0.09028 -0.52094,-0.3082 -0.64351,-0.58838c-0.36771,-0.84364 -0.88864,-1.55654 -1.59037,-2.12002c-0.70786,-0.52923 -1.50458,-0.93392 -2.42081,-1.15184c-0.27885,-0.06226 -0.55464,-0.24593 -0.70786,-0.52923c-0.15322,-0.24905 -0.21144,-0.56036 -0.15322,-0.86856c0.36771,-1.43202 1.31766,-3.11309 2.97238,-5.19886c3.25123,-4.17465 9.74756,-10.3666 12.90074,-10.71216c0.85801,-0.12452 1.34829,0.15566 1.65473,0.4047c0.79978,0.68489 1.59651,2.18229 -1.01121,7.56482zM352.51036,188.9195c0.18386,1.55654 -0.21451,3.08197 -1.16751,4.29608c-0.8243,1.08647 -1.98873,1.83673 -3.30638,2.14803c-0.06129,0.03114 -0.15321,0.06226 -0.2145,0.06226l-0.3095,0.03113c-0.57915,0.0934 -1.13073,0.15566 -1.68537,0.15566c-4.40954,0 -7.50756,-2.99168 -8.73021,-4.94981c-0.46271,-0.77827 -1.16444,-2.2103 -0.55158,-3.1131c0.15322,-0.21792 0.57915,-0.68487 1.49844,-0.49809c2.91109,0.62261 3.95296,-0.68489 4.13988,-0.93393c1.96116,-2.58387 5.60769,-3.05084 8.11736,-1.12071c1.22879,0.96506 2.02245,2.36595 2.20937,3.9225z" fill="#d5ffff" fill-rule="evenodd" stroke="none" stroke-width="1"/></g></g></svg>