<svg version="1.1" xmlns="http://www.w3.org/2000/svg" xmlns:xlink="http://www.w3.org/1999/xlink" width="238.99097" height="351.77246" viewBox="0,0,238.99097,351.77246"><defs><linearGradient x1="246.11145" y1="127.39319" x2="311.68823" y2="127.39319" gradientUnits="userSpaceOnUse" id="color-1"><stop offset="0" stop-color="#d1d2d3"/><stop offset="1" stop-color="#a4a5a8"/></linearGradient><linearGradient x1="270.56798" y1="15.28794" x2="336.14476" y2="15.28794" gradientUnits="userSpaceOnUse" id="color-2"><stop offset="0" stop-color="#d1d2d3"/><stop offset="1" stop-color="#a4a5a8"/></linearGradient><linearGradient x1="293.72015" y1="263.18267" x2="359.29692" y2="263.18267" gradientUnits="userSpaceOnUse" id="color-3"><stop offset="0" stop-color="#d1d2d3"/><stop offset="1" stop-color="#a4a5a8"/></linearGradient></defs><g transform="translate(-158.94737,-6.23363)"><g data-paper-data="{&quot;isPaintingLayer&quot;:true}" stroke-miterlimit="10" stroke-dasharray="" stroke-dashoffset="0" style="mix-blend-mode: normal"><text transform="translate(161.52154,60.92396) scale(0.45334,0.45334)" font-size="40" xml:space="preserve" fill="#bfbfbf" fill-rule="nonzero" stroke="none" stroke-width="1" stroke-linecap="butt" stroke-linejoin="miter" stroke-miterlimit="10" stroke-dasharray="" stroke-dashoffset="0" font-family="Sans Serif" font-weight="normal" text-anchor="start" style="mix-blend-mode: normal"><tspan x="0" dy="0">部屋をタップすると、</tspan><tspan x="0" dy="48px">建築をすることができます。</tspan></text><text transform="translate(161.52154,32.43579) scale(0.607,0.607)" font-size="40" xml:space="preserve" fill="#ffffff" fill-rule="nonzero" stroke="none" stroke-width="1" stroke-linecap="butt" stroke-linejoin="miter" stroke-miterlimit="10" stroke-dasharray="" stroke-dashoffset="0" font-family="Sans Serif" font-weight="normal" text-anchor="start" style="mix-blend-mode: normal"><tspan x="0" dy="0">建築モード</tspan></text><path d="M344.60527,39.71979h-183.15789" fill="none" fill-rule="nonzero" stroke="#555962" stroke-width="5" stroke-linecap="round" stroke-linejoin="miter"/><text transform="translate(161.52154,173.02922) scale(0.45334,0.45334)" font-size="40" xml:space="preserve" fill="#bfbfbf" fill-rule="nonzero" stroke="none" stroke-width="1" stroke-linecap="butt" stroke-linejoin="miter" stroke-miterlimit="10" stroke-dasharray="" stroke-dashoffset="0" font-family="Sans Serif" font-weight="normal" text-anchor="start" style="mix-blend-mode: normal"><tspan x="0" dy="0">猫をタップするとその猫の</tspan><tspan x="0" dy="48px">ステータスを見ることが</tspan><tspan x="0" dy="48px">できます。建築をすることは</tspan><tspan x="0" dy="48px">できません。</tspan></text><text transform="translate(161.52154,144.54105) scale(0.607,0.607)" font-size="40" xml:space="preserve" fill="#ffffff" fill-rule="nonzero" stroke="none" stroke-width="1" stroke-linecap="butt" stroke-linejoin="miter" stroke-miterlimit="10" stroke-dasharray="" stroke-dashoffset="0" font-family="Sans Serif" font-weight="normal" text-anchor="start" style="mix-blend-mode: normal"><tspan x="0" dy="0">猫モード</tspan></text><path d="M161.44738,151.82505h183.15789" fill="none" fill-rule="nonzero" stroke="#555962" stroke-width="5" stroke-linecap="round" stroke-linejoin="miter"/><text transform="translate(161.52154,308.81869) scale(0.45334,0.45334)" font-size="40" xml:space="preserve" fill="#bfbfbf" fill-rule="nonzero" stroke="none" stroke-width="1" stroke-linecap="butt" stroke-linejoin="miter" stroke-miterlimit="10" stroke-dasharray="" stroke-dashoffset="0" font-family="Sans Serif" font-weight="normal" text-anchor="start" style="mix-blend-mode: normal"><tspan x="0" dy="0">鑑賞用です。</tspan><tspan x="0" dy="48px">ビルを移動することしか</tspan><tspan x="0" dy="48px">できません。</tspan></text><text transform="translate(161.52154,280.33052) scale(0.607,0.607)" font-size="40" xml:space="preserve" fill="#ffffff" fill-rule="nonzero" stroke="none" stroke-width="1" stroke-linecap="butt" stroke-linejoin="miter" stroke-miterlimit="10" stroke-dasharray="" stroke-dashoffset="0" font-family="Sans Serif" font-weight="normal" text-anchor="start" style="mix-blend-mode: normal"><tspan x="0" dy="0">カメラモード</tspan></text><path d="M344.60527,287.61452h-183.15789" fill="none" fill-rule="nonzero" stroke="#555962" stroke-width="5" stroke-linecap="round" stroke-linejoin="miter"/><g><path d="M299.10904,123.70717v17.31791c0,2.22971 -1.81291,4.0434 -4.04417,4.0434h-17.21048c-2.22892,0 -4.04339,-1.81368 -4.04339,-4.0434v-17.31869c0,-2.22971 1.81446,-4.04337 4.04339,-4.04337h17.21048c2.23126,0 4.04417,1.81446 4.04417,4.04416z" data-paper-data="{&quot;index&quot;:null}" fill="url(#color-1)" fill-rule="nonzero" stroke="#666666" stroke-width="2.5" stroke-linecap="butt" stroke-linejoin="miter"/><g data-paper-data="{&quot;index&quot;:null}"><path d="M288.56665,123.22074c0.08365,-0.05576 0.22306,-0.02788 0.25094,0.08365l0.72494,2.98341c0,0 1.78447,1.31047 2.31424,2.23059c0.89224,1.53353 0.92012,2.78824 0.92012,2.78824c0,0 1.97965,0.58553 2.31424,2.17483c0.33459,1.5893 -0.89224,4.60059 -6.13412,5.63224c-5.24189,1.03165 -9.45213,-0.39036 -11.43177,-3.56895c-1.97965,-3.17859 1.14318,-6.97059 0.97588,-6.74754l-0.58553,-4.99095c-0.02788,-0.11153 0.11153,-0.19518 0.22306,-0.13941l3.37377,2.20271c0,0 1.25471,-0.474 2.56518,-0.52977c0.78071,-0.05576 1.44988,0 2.09118,0.11153z" fill="#297ff8" fill-rule="evenodd" stroke="#297ff8" stroke-width="1.2" stroke-linecap="butt" stroke-linejoin="miter"/><path d="M292.69324,131.41816c0,0 1.92389,0.50188 2.25847,2.09118c0.33459,1.5893 -1.00376,4.46118 -6.18989,5.46494c-6.74754,1.39412 -9.95401,-2.62094 -8.08589,-5.57647c1.86812,-2.98341 5.07459,-0.44612 7.41671,-0.61341c2.00753,-0.13941 2.23059,-1.896 4.60059,-1.36624z" fill="#ffffff" fill-rule="evenodd" stroke="#297ff8" stroke-width="1" stroke-linecap="butt" stroke-linejoin="miter"/><path d="M297.8236,131.72486c-1.31047,1.05953 -3.318,1.08741 -3.318,1.08741" fill="none" fill-rule="evenodd" stroke="#297ff8" stroke-width="1.2" stroke-linecap="round" stroke-linejoin="round"/><path d="M297.46112,134.84769c-1.75659,0.13941 -2.844,-0.39036 -2.844,-0.39036" fill="none" fill-rule="evenodd" stroke="#297ff8" stroke-width="1.2" stroke-linecap="round" stroke-linejoin="round"/><path d="M275.43404,131.64122c0,0 2.39788,0.78071 3.37377,1.64506" fill="none" fill-rule="evenodd" stroke="#297ff8" stroke-width="1.2" stroke-linecap="round" stroke-linejoin="round"/><path d="M278.89147,134.26216c-1.19894,0.474 -3.26224,0.16729 -3.26224,0.16729" fill="none" fill-rule="evenodd" stroke="#297ff8" stroke-width="1.2" stroke-linecap="round" stroke-linejoin="round"/><g fill="none" fill-rule="nonzero" stroke="none" stroke-width="1" stroke-linecap="butt" stroke-linejoin="miter" font-family="sans-serif" font-weight="normal" font-size="12" text-anchor="start"/><g fill="none" fill-rule="nonzero" stroke="none" stroke-width="1" stroke-linecap="butt" stroke-linejoin="miter" font-family="sans-serif" font-weight="normal" font-size="12" text-anchor="start"/></g></g><g fill-rule="nonzero" stroke-linejoin="miter"><path d="M323.56557,11.60191v17.31791c0,2.22971 -1.81291,4.0434 -4.04417,4.0434h-17.21048c-2.22892,0 -4.04339,-1.81368 -4.04339,-4.0434v-17.31869c0,-2.22971 1.81446,-4.04337 4.04339,-4.04337h17.21048c2.23126,0 4.04417,1.81446 4.04417,4.04416z" data-paper-data="{&quot;index&quot;:null}" fill="url(#color-2)" stroke="#666666" stroke-width="2.5" stroke-linecap="butt"/><g data-paper-data="{&quot;index&quot;:null}"><path d="M303.86517,27.86626l8.59949,-13.05272" fill="none" stroke="#297ff8" stroke-width="3.5" stroke-linecap="round"/><path d="M320.3262,18.27711l-2.52494,3.98548c-0.308,0.48617 -0.95383,0.6312 -1.44033,0.32298l-12.53482,-7.94128c-0.486,-0.30789 -0.63109,-0.95399 -0.32308,-1.44016l2.52506,-3.98565c0.308,-0.48617 0.95417,-0.63098 1.44016,-0.32308l12.53482,7.94128c0.48651,0.30822 0.63115,0.95427 0.32314,1.44043z" data-paper-data="{&quot;index&quot;:null}" fill="#297ff8" stroke="none" stroke-width="0" stroke-linecap="butt"/></g></g><g fill-rule="nonzero" stroke-linecap="butt" stroke-linejoin="miter"><path d="M346.71774,259.49664v17.31791c0,2.22971 -1.81291,4.0434 -4.04417,4.0434h-17.21048c-2.22892,0 -4.04339,-1.81368 -4.04339,-4.0434v-17.31869c0,-2.22971 1.81446,-4.04337 4.04339,-4.04337h17.21048c2.23126,0 4.04417,1.81446 4.04417,4.04416z" data-paper-data="{&quot;index&quot;:null}" fill="url(#color-3)" stroke="#666666" stroke-width="2.5"/><path d="M344.74494,261.88108c0.06671,0.13646 0.11839,0.25703 0.11839,0.22321v9.47115c0,0.25979 -0.21426,0.45977 -0.45977,0.45977c-0.04457,0 -0.11605,-0.03064 -0.13467,-0.04924l-0.08856,-0.06914l-3.93199,-2.54137v1.18851c0,1.78991 -1.46972,3.31031 -3.21836,3.31031h-10.00555c-1.85331,-0.08101 -3.31031,-1.53801 -3.31031,-3.31031v-7.26429c0,-1.861 1.44931,-3.31031 3.31031,-3.31031h10.00555c1.7813,0 3.21836,1.46183 3.21836,3.31031v1.22236l3.85356,-2.76757c0.24795,-0.14845 0.50938,-0.09617 0.64304,0.12659z" data-paper-data="{&quot;index&quot;:null}" fill="#297ff8" stroke="none" stroke-width="0"/></g></g></g></svg>