<svg version="1.1" xmlns="http://www.w3.org/2000/svg" xmlns:xlink="http://www.w3.org/1999/xlink" width="231.72677" height="41.33045" viewBox="0,0,231.72677,41.33045"><g transform="translate(-124.13663,-194.3348)"><g data-paper-data="{&quot;isPaintingLayer&quot;:true}" fill-opacity="0.30308" fill="#4f545c" fill-rule="nonzero" stroke-opacity="0.4031" stroke="#ffffff" stroke-width="1" stroke-linecap="butt" stroke-linejoin="miter" stroke-miterlimit="10" stroke-dasharray="" stroke-dashoffset="0" style="mix-blend-mode: normal"><path d="M225.36341,229.801c0,2.96234 -2.40254,5.36426 -5.36426,5.36426h-89.99887c-2.96234,0 -5.36364,-2.40255 -5.36364,-5.36426v-29.60257c0,-2.96234 2.4013,-5.36362 5.36364,-5.36362h89.99825c2.96358,0 5.36425,2.40128 5.36425,5.36362v29.60258z"/><path d="M355.36341,229.801c0,2.96234 -2.40254,5.36426 -5.36426,5.36426h-89.99887c-2.96234,0 -5.36363,-2.40255 -5.36363,-5.36426v-29.60257c0,-2.96234 2.4013,-5.36362 5.36363,-5.36362h89.99825c2.96359,0 5.36426,2.40128 5.36426,5.36362v29.60258z"/></g></g></svg>