<svg version="1.1" xmlns="http://www.w3.org/2000/svg" xmlns:xlink="http://www.w3.org/1999/xlink" width="43.13887" height="43.31143" viewBox="0,0,43.13887,43.31143"><defs><linearGradient x1="87.93484" y1="337.62093" x2="193.27763" y2="337.62093" gradientUnits="userSpaceOnUse" id="color-1"><stop offset="0" stop-color="#d1d2d3"/><stop offset="1" stop-color="#a4a5a8"/></linearGradient></defs><g transform="translate(-131.1815,-323.95314)"><g data-paper-data="{&quot;isPaintingLayer&quot;:true}" fill-rule="nonzero" stroke-linejoin="miter" stroke-miterlimit="10" stroke-dasharray="" stroke-dashoffset="0" style="mix-blend-mode: normal"><path d="M173.07037,331.69968v27.81956c0,3.58182 -2.91226,6.49533 -6.49657,6.49533h-27.64698c-3.58054,0 -6.49532,-2.91351 -6.49532,-6.49533v-27.82081c0,-3.58181 2.91475,-6.49529 6.49532,-6.49529h27.64698c3.5843,0 6.49657,2.91476 6.49657,6.49656z" data-paper-data="{&quot;index&quot;:null}" fill="url(#color-1)" stroke="#666666" stroke-width="2.5" stroke-linecap="butt"/><g data-paper-data="{&quot;index&quot;:null}"><path d="M141.42359,357.82681l13.81425,-20.96794" fill="none" stroke="#297ff8" stroke-width="3.5" stroke-linecap="round"/><path d="M167.86665,342.42276l-4.05608,6.40229c-0.49478,0.78098 -1.53223,1.01396 -2.31376,0.51883l-20.13599,-12.75691c-0.78071,-0.4946 -1.01378,-1.5325 -0.519,-2.31348l4.05626,-6.40256c0.49478,-0.78098 1.53278,-1.01361 2.31348,-0.519l20.13599,12.75691c0.78153,0.49513 1.01388,1.53295 0.5191,2.31392z" data-paper-data="{&quot;index&quot;:null}" fill="#297ff8" stroke="none" stroke-width="0" stroke-linecap="butt"/></g></g></g></svg>