<svg version="1.1" xmlns="http://www.w3.org/2000/svg" xmlns:xlink="http://www.w3.org/1999/xlink" width="479.9777" height="360" viewBox="0,0,479.9777,360"><defs><linearGradient x1="272.22222" y1="19.33069" x2="272.22222" y2="74.00266" gradientUnits="userSpaceOnUse" id="color-1"><stop offset="0" stop-color="#d1d1d1"/><stop offset="1" stop-color="#b4b4b4"/></linearGradient><linearGradient x1="268" y1="71.66402" x2="268" y2="328.33601" gradientUnits="userSpaceOnUse" id="color-2"><stop offset="0" stop-color="#b4b4b4"/><stop offset="1" stop-color="#d1d1d1"/></linearGradient></defs><g transform="translate(-0.01115,0)"><g data-paper-data="{&quot;isPaintingLayer&quot;:true}" fill-rule="nonzero" stroke-linejoin="miter" stroke-miterlimit="10" stroke-dasharray="" stroke-dashoffset="0" style="mix-blend-mode: normal"><g><path d="M397.47272,65.39769c0,4.752 -3.854,8.605 -8.605,8.605h-76.292c-4.752,0 -8.604,-3.854 -8.604,-8.605v-37.463c0,-4.752 3.852,-8.604 8.604,-8.604h76.291c4.754,0 8.605,3.852 8.605,8.604v37.463z" fill="url(#color-1)" stroke="#d1d1d1" stroke-width="0" stroke-linecap="butt"/><g fill="none" stroke="#ffffff" stroke-width="5" stroke-linecap="round"><path d="M336.78181,60.1071l26.88082,-26.88082"/><path d="M336.78181,33.22628l26.88082,26.88082"/></g></g><path d="M393.2505,319.73107c0,4.752 -3.854,8.605 -8.605,8.605h-289.292c-4.752,0 -8.604,-3.854 -8.604,-8.605v-239.463c0,-4.752 3.852,-8.604 8.604,-8.604h289.291c4.754,0 8.605,3.852 8.605,8.604v239.463z" fill-opacity="0.2" fill="#d4d2d2" stroke="url(#color-2)" stroke-width="7.5" stroke-linecap="butt"/><g><path d="M0.01115,0h479.9777v360h-479.9777z" fill="#484a4a" stroke="none" stroke-width="1.00207" stroke-linecap="butt"/><g stroke="none" stroke-width="1.00207" stroke-linecap="butt"><path d="M0.01115,3.75h479.9777v35h-479.9777z" fill="#909191"/><path d="M0.01115,0h479.9777v35h-479.9777z" fill="#e6e8eb"/></g><g fill="none" stroke="#000000" stroke-width="2.5" stroke-linecap="round"><path d="M25.52667,8.39556l-9.03895,9.03895"/><path d="M25.52667,26.60445l-9.03895,-9.03894"/></g></g><text transform="translate(219.98807,24) scale(0.5,0.5)" font-size="40" xml:space="preserve" fill="#000000" fill-rule="nonzero" stroke="none" stroke-width="1" stroke-linecap="butt" stroke-linejoin="miter" stroke-miterlimit="10" stroke-dasharray="" stroke-dashoffset="0" font-family="Serif" font-weight="normal" text-anchor="start" style="mix-blend-mode: normal"><tspan x="0" dy="0">設定</tspan></text><text transform="translate(94.82532,95.56935) scale(0.57551,0.57551)" font-size="40" xml:space="preserve" fill="#d5ffff" fill-rule="nonzero" stroke="none" stroke-width="1" stroke-linecap="butt" stroke-linejoin="miter" stroke-miterlimit="10" stroke-dasharray="" stroke-dashoffset="0" font-family="Sans Serif" font-weight="normal" text-anchor="start" style="mix-blend-mode: normal"><tspan x="0" dy="0">音楽</tspan></text><text transform="translate(94.82532,133.8931) scale(0.57552,0.57552)" font-size="40" xml:space="preserve" fill="#d5ffff" fill-rule="nonzero" stroke="none" stroke-width="1" stroke-linecap="butt" stroke-linejoin="miter" stroke-miterlimit="10" stroke-dasharray="" stroke-dashoffset="0" font-family="Sans Serif" font-weight="normal" text-anchor="start" style="mix-blend-mode: normal"><tspan x="0" dy="0">効果音</tspan></text><g fill="none" stroke="#bd62f5" stroke-width="7.5" stroke-linecap="round"><path d="M195,124.98689h150"/><path d="M195,84.98689h150"/></g><text transform="translate(94.82532,207.40621) scale(0.57552,0.57552)" font-size="40" xml:space="preserve" fill="#d5ffff" fill-rule="nonzero" stroke="none" stroke-width="1" stroke-linecap="butt" stroke-linejoin="miter" stroke-miterlimit="10" stroke-dasharray="" stroke-dashoffset="0" font-family="Sans Serif" font-weight="normal" text-anchor="start" style="mix-blend-mode: normal"><tspan x="0" dy="0">カメラモードを追加</tspan></text></g></g></svg>