<svg version="1.1" xmlns="http://www.w3.org/2000/svg" xmlns:xlink="http://www.w3.org/1999/xlink" width="488.5" height="368.5" viewBox="0,0,488.5,368.5"><defs><linearGradient x1="240" y1="164.06831" x2="240" y2="210.38114" gradientUnits="userSpaceOnUse" id="color-1"><stop offset="0" stop-color="#4b4b4d" stop-opacity="0"/><stop offset="1" stop-color="#4b4b4d"/></linearGradient><linearGradient x1="240" y1="164.06831" x2="240" y2="210.38114" gradientUnits="userSpaceOnUse" id="color-2"><stop offset="0" stop-color="#666666" stop-opacity="0"/><stop offset="1" stop-color="#666666" stop-opacity="0.30196"/></linearGradient><linearGradient x1="335.64896" y1="164.31384" x2="335.64896" y2="210.62667" gradientUnits="userSpaceOnUse" id="color-3"><stop offset="0" stop-color="#4b4b4d" stop-opacity="0"/><stop offset="1" stop-color="#4b4b4d"/></linearGradient><linearGradient x1="335.64896" y1="164.31384" x2="335.64896" y2="210.62667" gradientUnits="userSpaceOnUse" id="color-4"><stop offset="0" stop-color="#666666" stop-opacity="0"/><stop offset="1" stop-color="#666666" stop-opacity="0.30196"/></linearGradient><linearGradient x1="114.74954" y1="255.00006" x2="365.25054" y2="255.00006" gradientUnits="userSpaceOnUse" id="color-5"><stop offset="0" stop-color="#d1d2d3"/><stop offset="1" stop-color="#a4a5a8"/></linearGradient><linearGradient x1="103.69357" y1="108.20048" x2="354.19457" y2="108.20048" gradientUnits="userSpaceOnUse" id="color-6"><stop offset="0" stop-color="#d1d2d3"/><stop offset="1" stop-color="#a4a5a8"/></linearGradient><linearGradient x1="144.35104" y1="164.31384" x2="144.35104" y2="210.62667" gradientUnits="userSpaceOnUse" id="color-7"><stop offset="0" stop-color="#4b4b4d" stop-opacity="0"/><stop offset="1" stop-color="#4b4b4d"/></linearGradient><linearGradient x1="144.35104" y1="164.31384" x2="144.35104" y2="210.62667" gradientUnits="userSpaceOnUse" id="color-8"><stop offset="0" stop-color="#666666" stop-opacity="0"/><stop offset="1" stop-color="#666666" stop-opacity="0.30196"/></linearGradient><linearGradient x1="114.74954" y1="255.00005" x2="365.25054" y2="255.00005" gradientUnits="userSpaceOnUse" id="color-9"><stop offset="0" stop-color="#d1d2d3"/><stop offset="1" stop-color="#a4a5a8"/></linearGradient></defs><g transform="translate(4.25,4.24998)"><g data-paper-data="{&quot;isPaintingLayer&quot;:true}" stroke-miterlimit="10" stroke-dasharray="" stroke-dashoffset="0" style="mix-blend-mode: normal"><g fill-rule="nonzero" stroke-width="2.5" stroke-linecap="butt" stroke-linejoin="miter"><path d="M280.65748,201.77611c0,4.752 -3.854,8.605 -8.605,8.605h-64.10596c-4.752,0 -8.604,-3.854 -8.604,-8.605v-107.55318c0,-4.752 3.852,-8.604 8.604,-8.604h64.10496c4.754,0 8.605,3.852 8.605,8.604z" fill="#d1d2d3" stroke="#656565"/><path d="M280.65748,201.77611c0,4.752 -3.854,8.605 -8.605,8.605h-64.10596c-4.752,0 -8.604,-3.854 -8.604,-8.605v-34.14379c0,-4.752 81.31396,-4.752 81.31396,0z" fill="url(#color-1)" stroke="url(#color-2)"/></g><g data-paper-data="{&quot;index&quot;:null}" fill-rule="evenodd" stroke="none" stroke-width="1" stroke-linecap="butt" stroke-linejoin="miter"><g data-paper-data="{&quot;index&quot;:null}" fill="#4c97ff"><path d="M230.1963,117.77191c-3.72907,-0.75699 -6.53581,-4.05385 -6.53581,-8.0063c0,-4.51202 3.65774,-8.16975 8.16976,-8.16975c4.51201,0 8.16975,3.65774 8.16975,8.16975c0,0.22399 -0.00902,0.44586 -0.0267,0.66531l-1.01452,-0.92615c-3.34452,-3.05626 -8.76249,-0.70367 -8.76249,3.84227z"/><path d="M236.88903,144.73014c-1.19791,1.33539 -3.42482,0.49444 -3.42482,-1.29644v-30.08671c0,-1.69356 2.03449,-2.57733 3.29129,-1.42883l22.2143,20.27972c1.31575,1.19913 0.45952,3.37542 -1.33145,3.37542h-9.02475l3.57106,7.96017c0.71135,1.58738 0.01598,3.46155 -1.55863,4.18458c-1.5746,0.71896 -3.42898,0.01613 -4.14036,-1.57526l-3.61273,-8.04955z"/></g><path d="M230.1963,121.08745c-5.54284,-0.79287 -9.80369,-5.55974 -9.80369,-11.3218c0,-6.31685 5.12079,-11.43763 11.43765,-11.43763c6.31685,0 11.43764,5.12079 11.43764,11.43764c0,1.12771 -0.1632,2.21731 -0.46727,3.24643l-3.84184,-3.50727c-3.34452,-3.05626 -8.76248,-0.70369 -8.76248,3.84227z" fill-opacity="0.14902" fill="#4d97ff"/></g><g fill-rule="nonzero" stroke-linecap="butt" stroke-linejoin="miter"><g stroke-width="2.5"><path d="M376.30644,202.02164c0,4.752 -3.854,8.605 -8.605,8.605h-64.10596c-4.752,0 -8.604,-3.854 -8.604,-8.605v-107.55318c0,-4.752 3.852,-8.604 8.604,-8.604h64.10496c4.754,0 8.605,3.852 8.605,8.604z" fill="#d1d2d3" stroke="#656565"/><path d="M376.30644,202.02164c0,4.752 -3.854,8.605 -8.605,8.605h-64.10596c-4.752,0 -8.604,-3.854 -8.604,-8.605v-34.14379c0,-4.752 81.31396,-4.752 81.31396,0z" fill="url(#color-3)" stroke="url(#color-4)"/></g><text transform="translate(296.46546,195.95689) scale(0.39184,0.39184)" font-size="40" xml:space="preserve" fill="#d9e9ff" fill-rule="nonzero" stroke="none" stroke-width="1" stroke-linecap="butt" stroke-linejoin="miter" stroke-miterlimit="10" stroke-dasharray="" stroke-dashoffset="0" font-family="Sans Serif" font-weight="normal" text-anchor="start" style="mix-blend-mode: normal"><tspan x="0" dy="0">お金の管理</tspan></text><text transform="translate(319.94905,144.50984) scale(1.55298,1.32669)" font-size="40" xml:space="preserve" fill="#4c97ff" fill-rule="nonzero" stroke="#4c97ff" stroke-width="1" stroke-linecap="butt" stroke-linejoin="miter" stroke-miterlimit="10" stroke-dasharray="" stroke-dashoffset="0" font-family="Sans Serif" font-weight="normal" text-anchor="start" style="mix-blend-mode: normal"><tspan x="0" dy="0">$</tspan></text></g><path d="M-4.25,364.25002v-368.5h488.5v368.5z" fill="none" fill-rule="nonzero" stroke="none" stroke-width="0" stroke-linecap="butt" stroke-linejoin="miter"/><path d="M365.25054,273.73104c0,4.752 -3.854,8.605 -8.605,8.605h-233.292c-4.752,0 -8.604,-3.854 -8.604,-8.605v-32.463c0,-4.752 3.852,-8.604 8.604,-8.604h233.291c4.754,0 8.605,3.852 8.605,8.604v32.463z" fill="url(#color-5)" fill-rule="nonzero" stroke="#656565" stroke-width="2.5" stroke-linecap="butt" stroke-linejoin="miter"/><text transform="translate(204.37488,270.62968) scale(0.88581,0.8858)" font-size="40" xml:space="preserve" fill="#4f4f4f" fill-rule="nonzero" stroke="none" stroke-width="1" stroke-linecap="butt" stroke-linejoin="miter" stroke-miterlimit="10" stroke-dasharray="" stroke-dashoffset="0" font-family="&quot;ヒラギノ角ゴ Pro W3&quot;, &quot;Hiragino Kaku Gothic Pro&quot;, Osaka, &quot;メイリオ&quot;, Meiryo, &quot;ＭＳ Ｐゴシック&quot;, &quot;MS PGothic&quot;" font-weight="normal" text-anchor="start" style="mix-blend-mode: normal"><tspan x="0" dy="0">戻る</tspan></text><g><g fill-rule="nonzero" stroke-width="2.5" stroke-linecap="butt" stroke-linejoin="miter"><path d="M185.00853,202.02164c0,4.752 -3.854,8.605 -8.605,8.605h-64.10596c-4.752,0 -8.604,-3.854 -8.604,-8.605v-107.55318c0,-4.752 3.852,-8.604 8.604,-8.604h64.10496c4.754,0 8.605,3.852 8.605,8.604z" fill="url(#color-6)" stroke="#656565"/><path d="M185.00853,202.02164c0,4.752 -3.854,8.605 -8.605,8.605h-64.10596c-4.752,0 -8.604,-3.854 -8.604,-8.605v-34.14379c0,-4.752 81.31396,-4.752 81.31396,0z" fill="url(#color-7)" stroke="url(#color-8)"/></g><g fill-rule="evenodd" stroke-width="3"><path d="M164.05425,107.89477v30.31261" fill="none" stroke="#4c97ff" stroke-linecap="square" stroke-linejoin="miter"/><g><path d="M120.10095,107.89478v-9.09378h9.09378v9.09378z" fill="#ffffff" stroke="#4c97ff" stroke-linecap="round" stroke-linejoin="round"/><path d="M159.50735,107.89478v-9.09378h9.09379v9.09378z" fill="#ffffff" stroke="#4c97ff" stroke-linecap="round" stroke-linejoin="round"/><path d="M120.10095,147.30119v-9.09378h9.09378v9.09378z" fill="#ffffff" stroke="#4c97ff" stroke-linecap="round" stroke-linejoin="round"/><path d="M159.50735,147.30119v-9.09378h9.09379v9.09378z" fill="#ffffff" stroke="#4c97ff" stroke-linecap="round" stroke-linejoin="round"/><path d="M124.64785,107.89477v30.31261" fill="none" stroke="#4c97ff" stroke-linecap="square" stroke-linejoin="miter"/><path d="M159.50735,103.34791h-30.31261" fill="none" stroke="#4c97ff" stroke-linecap="square" stroke-linejoin="miter"/><path d="M129.19474,142.75427h30.31261" fill="none" stroke="#4c97ff" stroke-linecap="square" stroke-linejoin="miter"/><g stroke="#575e75" stroke-linecap="butt" stroke-linejoin="miter"><path d="M133.74163,126.08235c-0.83706,0 -1.51563,0 -1.51563,0v-15.1563c0,0 0.67857,0 1.51563,0h12.12505c0.83706,0 1.51563,0 1.51563,0v15.1563c0,0 -0.67857,0 -1.51563,0z" fill="#ffffff"/><path d="M142.83542,135.17613c-0.83706,0 -1.51564,0 -1.51564,0v-15.1563c0,0 0.67857,0 1.51564,0h12.12505c0.83706,0 1.51563,0 1.51563,0v15.1563c0,0 -0.67857,0 -1.51563,0z" fill="#575e75"/></g></g></g><text transform="translate(105.16755,195.9569) scale(0.39184,0.39184)" font-size="40" xml:space="preserve" fill="#d9e9ff" fill-rule="nonzero" stroke="none" stroke-width="1" stroke-linecap="butt" stroke-linejoin="miter" stroke-miterlimit="10" stroke-dasharray="" stroke-dashoffset="0" font-family="Sans Serif" font-weight="normal" text-anchor="start" style="mix-blend-mode: normal"><tspan x="0" dy="0">部屋の編集</tspan></text></g><path d="M452.36531,345.63249c-1.38866,0 -2.56568,-1.17501 -2.56568,-2.56568c0,-1.38866 1.17702,-2.56568 2.56568,-2.56568c1.38866,0 2.56568,1.17702 2.56568,2.56568c0,1.39067 -1.17702,2.56568 -2.56568,2.56568z" data-paper-data="{&quot;noHover&quot;:false,&quot;origItem&quot;:[&quot;Path&quot;,{&quot;applyMatrix&quot;:true,&quot;segments&quot;:[[[454.88098,343.06679],[0,1.39067],[0,-1.38866]],[[452.3653,340.55111],[1.38866,0],[-1.38866,0]],[[449.84962,343.06679],[0,-1.38866],[0,1.39067]],[[452.3653,345.58247],[-1.38866,0],[1.38866,0]]],&quot;closed&quot;:true,&quot;fillColor&quot;:[0,0,0,1]}]}" fill-opacity="0.01961" fill="#b5b5b5" fill-rule="nonzero" stroke="none" stroke-width="0.5" stroke-linecap="butt" stroke-linejoin="miter"/><path d="M-4.25,364.25002v-368.5h488.5v368.5z" fill="none" fill-rule="nonzero" stroke="none" stroke-width="0" stroke-linecap="butt" stroke-linejoin="miter"/><path d="M365.25054,273.73103c0,4.752 -3.854,8.605 -8.605,8.605h-233.292c-4.752,0 -8.604,-3.854 -8.604,-8.605v-32.463c0,-4.752 3.852,-8.604 8.604,-8.604h233.291c4.754,0 8.605,3.852 8.605,8.604v32.463z" fill="url(#color-9)" fill-rule="nonzero" stroke="#656565" stroke-width="2.5" stroke-linecap="butt" stroke-linejoin="miter"/><text transform="translate(204.37488,270.62969) scale(0.88581,0.8858)" font-size="40" xml:space="preserve" fill="#4f4f4f" fill-rule="nonzero" stroke="none" stroke-width="1" stroke-linecap="butt" stroke-linejoin="miter" stroke-miterlimit="10" stroke-dasharray="" stroke-dashoffset="0" font-family="&quot;ヒラギノ角ゴ Pro W3&quot;, &quot;Hiragino Kaku Gothic Pro&quot;, Osaka, &quot;メイリオ&quot;, Meiryo, &quot;ＭＳ Ｐゴシック&quot;, &quot;MS PGothic&quot;" font-weight="normal" text-anchor="start" style="mix-blend-mode: normal"><tspan x="0" dy="0">戻る</tspan></text><text transform="translate(204.5676,201.25946) scale(0.59054,0.59054)" font-size="40" xml:space="preserve" fill="#d9e9ff" fill-rule="nonzero" stroke="none" stroke-width="1" stroke-linecap="butt" stroke-linejoin="miter" stroke-miterlimit="10" stroke-dasharray="" stroke-dashoffset="0" font-family="Sans Serif" font-weight="normal" text-anchor="start" style="mix-blend-mode: normal"><tspan x="0" dy="0">ヘルプ</tspan></text></g></g></svg>