<svg version="1.1" xmlns="http://www.w3.org/2000/svg" xmlns:xlink="http://www.w3.org/1999/xlink" width="19.96497" height="13.35278" viewBox="0,0,19.96497,13.35278"><g transform="translate(-254.63358,-168.28528)"><g data-paper-data="{&quot;isPaintingLayer&quot;:true}" stroke-miterlimit="10" stroke-dasharray="" stroke-dashoffset="0" style="mix-blend-mode: normal"><g><g data-paper-data="{&quot;index&quot;:null}" fill="none" fill-rule="nonzero" stroke="none" stroke-width="1" stroke-linecap="butt" stroke-linejoin="miter" font-family="sans-serif" font-weight="normal" font-size="12" text-anchor="start"/><g data-paper-data="{&quot;index&quot;:null}"><path d="M265.02118,170.35341c0.56469,-0.09821 1.15391,-0.14731 1.84136,-0.09821c1.15393,0.0491 2.25874,0.46648 2.25874,0.46648l2.97075,-1.93958c0.09821,-0.0491 0.22096,0.02455 0.19641,0.12276l-0.51558,4.39473c-0.14357,-0.19144 2.46474,2.97537 0.98348,5.72738c-0.03206,0.05955 0.28615,0.12145 -1.19129,-0.13529c-0.30063,-0.05224 -0.83538,0.04209 -1.28618,-0.05586c-0.7262,-0.15777 -5.60885,-0.00934 -7.32565,0.1849c-0.06442,0.00729 -0.76706,0.04591 -0.83014,0.05998c-1.03985,0.232 -1.85608,0.71831 -2.35315,1.25545c-0.23838,0.2576 -0.21087,0.99744 -0.46204,0.84006c-1.88203,-1.17929 -2.34945,-2.77237 -2.14324,-3.75194c0.29462,-1.39944 2.03779,-1.91503 2.03779,-1.91503c0,0 0.02455,-1.10482 0.8102,-2.45515c0.46648,-0.8102 2.03778,-1.96413 2.03778,-1.96413l0.63835,-2.62701c0.02455,-0.09821 0.14731,-0.12276 0.22096,-0.07366z" fill="#454545" fill-rule="evenodd" stroke="#001026" stroke-width="0.25" stroke-linecap="butt" stroke-linejoin="miter"/><path d="M257.68022,176.8017c0,0 -1.76771,-0.02455 -2.92164,-0.95752" fill="none" fill-rule="evenodd" stroke="#001026" stroke-width="0.25" stroke-linecap="round" stroke-linejoin="round"/><path d="M257.58206,178.25024c0,0 -0.95752,0.46648 -2.50427,0.34372" fill="none" fill-rule="evenodd" stroke="#001026" stroke-width="0.25" stroke-linecap="round" stroke-linejoin="round"/><path d="M271.50281,177.21907c0.85931,-0.76109 2.97074,-1.44854 2.97074,-1.44854" fill="none" fill-rule="evenodd" stroke="#001026" stroke-width="0.25" stroke-linecap="round" stroke-linejoin="round"/><path d="M274.3017,178.22569c0,0 -1.81682,0.27006 -2.87254,-0.14731" fill="none" fill-rule="evenodd" stroke="#001026" stroke-width="0.25" stroke-linecap="round" stroke-linejoin="round"/><g fill="none" fill-rule="nonzero" stroke="none" stroke-width="1" stroke-linecap="butt" stroke-linejoin="miter" font-family="sans-serif" font-weight="normal" font-size="12" text-anchor="start"/><g fill="none" fill-rule="nonzero" stroke="none" stroke-width="1" stroke-linecap="butt" stroke-linejoin="miter" font-family="sans-serif" font-weight="normal" font-size="12" text-anchor="start"/></g></g><path d="M272.805,179.3867c-1.11649,-0.33787 -3.15684,-0.53934 -5.89385,-0.37471c-6.01766,-0.02509 -7.10589,1.6591 -7.27465,2.49967c-0.05598,0.27882 -0.58258,0.03054 -0.56214,-0.11656c0.21983,-1.58212 1.58173,-2.8039 3.22283,-2.8039h9.40509c0.42857,0 0.83796,0.08318 1.21292,0.23424c0.09803,0.03949 0.02929,0.60346 -0.11018,0.56126z" fill="#7f0024" fill-rule="nonzero" stroke="#666666" stroke-width="0" stroke-linecap="butt" stroke-linejoin="miter"/></g></g></svg>