<svg version="1.1" xmlns="http://www.w3.org/2000/svg" xmlns:xlink="http://www.w3.org/1999/xlink" width="180.64107" height="50.79543" viewBox="0,0,180.64107,50.79543"><g transform="translate(-149.67952,-154.60235)"><g data-paper-data="{&quot;isPaintingLayer&quot;:true}" stroke="none" stroke-width="1" stroke-linecap="butt" stroke-linejoin="miter" stroke-miterlimit="10" stroke-dasharray="" stroke-dashoffset="0" style="mix-blend-mode: normal"><path d="M296.24451,190.99041c0,7.94488 -6.45972,14.40737 -14.41015,14.40737h-117.74746c-7.9421,0 -14.40738,-6.4625 -14.40738,-14.40737v-21.98069c0,-7.29123 5.4452,-13.33396 12.47988,-14.27892c0.63065,-0.08471 119.67495,-0.12845 119.67495,-0.12845c7.95043,0 14.41015,6.46527 14.41015,14.41015z" fill-opacity="0.50196" fill="#262626" fill-rule="nonzero"/><path d="M190.39265,170.32986v19.34202c0,4.61423 -3.75168,8.36752 -8.36913,8.36752h-18.86414c-4.61262,0 -8.36752,-3.75329 -8.36752,-8.36752v-19.34363c0,-4.2346 3.16247,-7.74411 7.24807,-8.29292c0.36627,-0.0492 19.98359,-0.0746 19.98359,-0.0746c4.61745,0 8.36913,3.75491 8.36913,8.36913z" fill="#2e2e2e" fill-rule="nonzero"/><text transform="translate(194.91341,175.79743) scale(0.35022,0.35022)" font-size="40" xml:space="preserve" fill="#ffffff" fill-rule="nonzero" stroke="none" stroke-width="1" stroke-linecap="butt" stroke-linejoin="miter" stroke-miterlimit="10" stroke-dasharray="" stroke-dashoffset="0" font-family="Sans Serif" font-weight="normal" text-anchor="start" style="mix-blend-mode: normal"><tspan x="0" dy="0">v6.2が登場！</tspan><tspan x="0" dy="48px">新要素を確認！</tspan></text><path d="M330.32059,190.99041c0,7.94488 -6.45972,14.40737 -14.41015,14.40737h-2.96343c-7.9421,0 -14.40738,-6.4625 -14.40738,-14.40737v-21.98069c0,-7.29123 5.4452,-13.33396 12.47988,-14.27892c0.63065,-0.08471 4.89092,-0.12845 4.89092,-0.12845c7.95043,0 14.41015,6.46527 14.41015,14.41015z" fill-opacity="0.50196" fill="#262626" fill-rule="nonzero"/><g fill="#ffffff" fill-rule="nonzero"><path d="M307.3555,172.92595v14.14922h14.14922v-5.05329h2.02132v4.67429c0,1.32497 -1.07534,2.40032 -2.40032,2.40032h-13.39122c-1.32377,0 -2.40032,-1.07534 -2.40032,-2.40032v-13.39122c0,-1.32377 1.07655,-2.40032 2.40032,-2.40032h4.67429v2.02132z"/><path d="M323.52601,177.97825h-2.02132v-3.62423l-8.38139,8.38137l-1.4291,-1.42907l8.38142,-8.38137h-3.62422v-2.02132h7.07461z"/></g><path d="M182.64644,191.2788v-20.94622h1.5468v22.55744h-20.10838c-1.70844,0 -3.09359,-1.44286 -3.09359,-3.22245v-19.335c0,-1.77962 1.38516,-3.22249 3.09359,-3.22249h17.01479v20.94619h-17.01479c-0.85422,0 -1.5468,0.72073 -1.5468,1.6113c0,0.89057 0.69258,1.61122 1.5468,1.61122zM174.42554,177.61428l2.51386,-0.01325l-5.24229,-7.17832l-5.1528,7.17481l2.4464,0.02388l-0.00805,6.57655l5.45047,-0.00299z" fill="#ffffff" fill-rule="evenodd"/></g></g></svg>